<svg xmlns="http://www.w3.org/2000/svg" xmlns:xlink="http://www.w3.org/1999/xlink" viewBox="0 0 1307.62 143.16"><defs><style>.cls-1{fill:url(#linear-gradient);}.cls-2{fill:#ff5f00;}.cls-3{fill:#eb001b;}.cls-4{fill:#f79e1b;}.cls-5{fill:#016fd0;}.cls-5,.cls-6{fill-rule:evenodd;}.cls-6{fill:#fff;}.cls-7{fill:#fbee1e;}.cls-8{fill:#8dc63f;}.cls-9{fill:#e9262a;}</style><linearGradient id="linear-gradient" x1="-308.2" y1="744.84" x2="-307.2" y2="744.84" gradientTransform="matrix(171.31, 0, 0, -55.11, 52797.92, 41118.5)" gradientUnits="userSpaceOnUse"><stop offset="0" stop-color="#272158"/><stop offset="1" stop-color="#164194"/></linearGradient></defs><g id="Layer_2" data-name="Layer 2"><g id="Layer_1-2" data-name="Layer 1"><path id="svg_10" data-name="svg 10" class="cls-1" d="M65,45.67,42.59,99H28L17,56.48c-.63-2.6-1.27-3.55-3.25-4.66A58.5,58.5,0,0,0,0,47.24l.32-1.57H23.87a6.35,6.35,0,0,1,6.35,5.44L36.09,81.9,50.52,45.67Zm57.34,35.92c.08-14.06-19.51-14.84-19.43-21.08.07-1.9,1.9-3.95,5.87-4.5a26.22,26.22,0,0,1,13.64,2.37l2.45-11.29A37.57,37.57,0,0,0,112,44.72c-13.64,0-23.32,7.26-23.4,17.6-.08,7.66,6.9,11.93,12.13,14.53,5.4,2.61,7.22,4.26,7.22,6.63-.08,3.56-4.28,5.13-8.25,5.21A28.91,28.91,0,0,1,85.5,85.3L83,97c3.25,1.5,9.2,2.77,15.39,2.85C112.86,99.83,122.3,92.64,122.38,81.59ZM158.54,99h12.77L160.13,45.67H148.31a6.16,6.16,0,0,0-5.87,3.86L121.66,98.88h14.52l2.85-8H156.8ZM143.08,80.09l7.29-20,4.21,20ZM84.78,45.67,73.36,99H59.56L71,45.67Z"/><path id="svg_11" data-name="svg 11" d="M423.27,131.74v-8a4.68,4.68,0,0,0-5-5.06,5.26,5.26,0,0,0-4.53,2.26,4.65,4.65,0,0,0-4.25-2.26,4.3,4.3,0,0,0-3.73,1.86V119h-2.79v12.77h2.79v-7.05c0-2.26,1.2-3.33,3.06-3.33s2.79,1.2,2.79,3.33v7.05h2.8v-7.05c0-2.26,1.33-3.33,3.06-3.33s2.79,1.2,2.79,3.33v7.05ZM464.65,119h-4.52v-3.86h-2.79V119h-2.53v2.52h2.53v5.86c0,2.93,1.19,4.66,4.39,4.66a7.35,7.35,0,0,0,3.46-.94l-.8-2.39a4.4,4.4,0,0,1-2.4.66c-1.33,0-1.86-.79-1.86-2.12v-5.73h4.52V119Zm23.69-.27a3.77,3.77,0,0,0-3.33,1.86V119h-2.79v12.77H485v-7.19c0-2.12.93-3.32,2.66-3.32a8,8,0,0,1,1.74.26l.79-2.66a9,9,0,0,0-1.86-.13ZM452.55,120a9.16,9.16,0,0,0-5.19-1.33c-3.2,0-5.33,1.6-5.33,4.12,0,2.13,1.6,3.33,4.4,3.73l1.33.13c1.46.27,2.26.67,2.26,1.33,0,.94-1.07,1.6-2.93,1.6a7.32,7.32,0,0,1-4.26-1.33l-1.33,2.13A9.46,9.46,0,0,0,447,132c3.72,0,5.85-1.73,5.85-4.13s-1.73-3.46-4.39-3.86l-1.33-.13c-1.2-.13-2.13-.4-2.13-1.2s.93-1.46,2.4-1.46a9.61,9.61,0,0,1,4,1.06Zm74.24-1.33a3.75,3.75,0,0,0-3.32,1.86V119h-2.8v12.77h2.8v-7.19c0-2.12.93-3.32,2.66-3.32a8,8,0,0,1,1.73.26l.8-2.66a9.06,9.06,0,0,0-1.87-.13Zm-35.66,6.65a6.4,6.4,0,0,0,6.79,6.66,6.59,6.59,0,0,0,4.52-1.47l-1.33-2.26a5.36,5.36,0,0,1-3.32,1.2,3.78,3.78,0,0,1-3.86-4.13,3.92,3.92,0,0,1,3.86-4.12,5.36,5.36,0,0,1,3.32,1.2l1.33-2.27a6.63,6.63,0,0,0-4.52-1.46A6.39,6.39,0,0,0,491.13,125.35Zm25.82,0V119h-2.8v1.59a4.79,4.79,0,0,0-4-1.86,6.66,6.66,0,0,0,0,13.31,4.47,4.47,0,0,0,4-1.87v1.6H517v-6.39Zm-10.25,0a3.87,3.87,0,1,1,7.72,0,3.87,3.87,0,1,1-7.72,0Zm-33.4-6.65c-3.72,0-6.38,2.66-6.38,6.65a6.26,6.26,0,0,0,6.52,6.66,8.2,8.2,0,0,0,5.19-1.73l-1.33-2a6.37,6.37,0,0,1-3.73,1.33,3.59,3.59,0,0,1-3.86-3.06h9.45v-1.06c.13-4.13-2.26-6.79-5.86-6.79Zm0,2.39c1.73,0,2.93,1.07,3.2,3.07h-6.65a3.37,3.37,0,0,1,3.45-3.07Zm69.33,4.26V113.91h-2.79v6.65a4.83,4.83,0,0,0-4-1.86,6.66,6.66,0,0,0,0,13.31,4.49,4.49,0,0,0,4-1.87v1.6h2.79v-6.39Zm-10.25,0a3.87,3.87,0,1,1,7.72,0,3.87,3.87,0,1,1-7.72,0Zm-93.4,0V119h-2.8v1.59a4.79,4.79,0,0,0-4-1.86,6.66,6.66,0,0,0,0,13.31,4.48,4.48,0,0,0,4-1.87v1.6H439v-6.39Zm-10.38,0a3.86,3.86,0,1,1,7.71,0,3.86,3.86,0,1,1-7.71,0Z"/><path id="svg_12" data-name="svg 12" class="cls-2" d="M493.53,22H451.62V97.28h41.91Z"/><path id="svg_13" data-name="svg 13" class="cls-3" d="M454.28,59.62A48,48,0,0,1,472.51,22a47.9,47.9,0,1,0,0,75.32A47.82,47.82,0,0,1,454.28,59.62Z"/><path id="svg_14" data-name="svg 14" class="cls-4" d="M550.08,59.62a47.86,47.86,0,0,1-77.44,37.66,48,48,0,0,0,0-75.32,47.86,47.86,0,0,1,77.44,37.66Z"/><path id="svg_15" data-name="svg 15" class="cls-5" d="M786.4.72H928.85V143.16H786.4V.72Z"/><path id="svg_16" data-name="svg 16" class="cls-6" d="M814,100V77.64h23.66L840.22,81l2.61-3.32h86V98.45A9.7,9.7,0,0,1,924,100H876.46l-2.85-3.56V100h-9.42v-6a7.52,7.52,0,0,1-4,.87H857V100H842.75l-2.53-3.4L837.6,100Z"/><path id="svg_17" data-name="svg 17" class="cls-6" d="M786.4,60.78l5.3-12.42H801l3,7v-7h11.48l1.82,5.06L819,48.36h51.51v2.53a11,11,0,0,1,7.13-2.53l16.69.08,3,6.88v-7h9.58l2.61,4v-4h9.81V70.75h-9.73l-2.54-4v4H893l-1.43-3.56h-3.79l-1.43,3.56h-9.57a9.53,9.53,0,0,1-6.26-2.45v2.45h-14.4l-2.85-3.56v3.56H799.62l-1.43-3.56H794.4L793,70.75H786.4v-10Z"/><path id="svg_18" data-name="svg 18" class="cls-5" d="M793.6,51.05l-7.2,16.78h4.75l1.35-3.33h7.75l1.35,3.33h4.82l-7.36-16.78Zm2.69,3.88,2.38,5.85h-4.75l2.37-5.85Z"/><path id="svg_19" data-name="svg 19" class="cls-5" d="M806.82,67.83V51.05l6.65.08,3.87,10.76,3.8-10.84h6.57V67.83h-4.19V55.48l-4.43,12.35h-3.64l-4.52-12.35V67.83Z"/><path id="svg_20" data-name="svg 20" class="cls-5" d="M830.56,67.83V51.05h13.69v3.8h-9.42V57.7H844v3.48h-9.18v3h9.42v3.64Z"/><path id="svg_21" data-name="svg 21" class="cls-5" d="M846.62,51.05V67.83h4.2V61.89h1.74l5,5.94h5.15l-5.54-6.18a5,5,0,0,0,4.59-5.14c0-3.56-2.77-5.46-5.86-5.46Zm4.2,3.8h4.75a1.75,1.75,0,1,1,.08,3.48h-4.83Z"/><path id="svg_22" data-name="svg 22" class="cls-5" d="M867.83,67.83h-4.27V51.05h4.27Z"/><path id="svg_23" data-name="svg 23" class="cls-5" d="M878,67.83h-1c-4.43,0-7.2-3.49-7.2-8.31s2.69-8.47,8.31-8.47h4.59v4h-4.83c-2.29,0-3.87,1.82-3.87,4.51,0,3.24,1.82,4.59,4.51,4.59h1.1Z"/><path id="svg_24" data-name="svg 24" class="cls-5" d="M887.06,51.05l-7.2,16.78h4.67l1.35-3.33h7.75L895,67.83h4.82l-7.2-16.78Zm2.69,3.88,2.38,5.85h-4.75Z"/><path id="svg_25" data-name="svg 25" class="cls-5" d="M900.2,67.83V51.05h5.3l6.81,10.52V51.05h4.19V67.83h-5.14l-7-10.85V67.83Z"/><path id="svg_26" data-name="svg 26" class="cls-5" d="M817,97.11V80.33h13.61v3.8h-9.42V87h9.18v3.56h-9.18v2.92h9.42v3.65Z"/><path id="svg_27" data-name="svg 27" class="cls-5" d="M883.82,97.11V80.33h13.69v3.8h-9.42V87h9.18v3.56h-9.18v2.92h9.42v3.65Z"/><path id="svg_28" data-name="svg 28" class="cls-5" d="M831.11,97.11l6.65-8.23L831,80.33h5.3l4,5.3,4-5.3h5.06l-6.72,8.39,6.72,8.39h-5.3l-4-5.15-3.8,5.15Z"/><path id="svg_29" data-name="svg 29" class="cls-5" d="M849.87,80.41V97.18h4.27v-5.3h4.43c3.72,0,6.57-2,6.57-5.85,0-3.17-2.21-5.62-6-5.62Zm4.27,3.72h4.67a1.87,1.87,0,0,1,2.06,1.9,1.92,1.92,0,0,1-2.06,1.9h-4.59v-3.8Z"/><path id="svg_30" data-name="svg 30" class="cls-5" d="M867,80.33V97.11h4.2V91.17h1.74l5,5.94H883l-5.54-6.18a5.05,5.05,0,0,0,4.59-5.14c0-3.56-2.77-5.46-5.86-5.46Zm4.2,3.8h4.74a1.75,1.75,0,1,1,.08,3.48h-4.82Z"/><path id="svg_31" data-name="svg 31" class="cls-5" d="M899.49,97.11V93.46h8.39c1.26,0,1.74-.63,1.74-1.42s-.56-1.42-1.74-1.42h-3.8c-3.33,0-5.15-2-5.15-5,0-2.69,1.67-5.3,6.57-5.3h8.15l-1.74,3.8h-7c-1.35,0-1.74.71-1.74,1.34a1.39,1.39,0,0,0,1.5,1.43h4c3.64,0,5.22,2,5.22,4.82,0,2.93-1.74,5.31-5.46,5.31l-8.86.08Z"/><path id="svg_32" data-name="svg 32" class="cls-5" d="M914.84,97.11V93.46h8c1.27,0,1.74-.63,1.74-1.42s-.55-1.42-1.74-1.42h-3.4c-3.33,0-5.15-2-5.15-5,0-2.69,1.67-5.3,6.57-5.3h8l-1.75,3.8h-6.88c-1.35,0-1.74.71-1.74,1.34A1.39,1.39,0,0,0,920,86.9h3.64c3.64,0,5.23,2,5.23,4.82,0,2.93-1.75,5.31-5.46,5.31l-8.55.08Z"/><path id="svg_100" data-name="svg 100" class="cls-7" d="M1271.65,139.7H1192.5c-18.91,0-34.23-15.9-34.23-35.57V37.38c0-19.64,15.32-35.57,34.23-35.57h79.15c18.91,0,34.26,15.93,34.26,35.57v66.75C1305.91,123.8,1290.56,139.7,1271.65,139.7Z"/><path id="svg_101" data-name="svg 101" class="cls-8" d="M1192.5,3.59c-17.94,0-32.52,15.14-32.52,33.79v66.75c0,18.62,14.58,33.78,32.52,33.78h79.15c17.94,0,32.52-15.16,32.52-33.78V37.38c0-18.62-14.58-33.79-32.52-33.79Zm79.15,137.92H1192.5c-19.85,0-36-16.75-36-37.35V37.38c0-20.6,16.15-37.38,36-37.38h79.15c19.85,0,36,16.75,36,37.38v66.75C1307.62,124.73,1291.5,141.51,1271.65,141.51Z"/><path id="svg_102" data-name="svg 102" d="M1250.66,76.85c-.83.09-1.68.17-2.51.23-.54.06-1.05.14-1.57.25a4.25,4.25,0,0,0-1.36.57,2.57,2.57,0,0,0-.94,1,3.14,3.14,0,0,0-.37,1.64,2.06,2.06,0,0,0,.94,1.84A4.05,4.05,0,0,0,1247,83a5.23,5.23,0,0,0,2.22-.42,5.34,5.34,0,0,0,1.54-1.13,5.42,5.42,0,0,0,1-1.59,13.33,13.33,0,0,0,.59-1.75L1253,76a4.93,4.93,0,0,1-2.3.85Zm-8.55-8.91a8,8,0,0,1,2.25-2.21,8.88,8.88,0,0,1,3-1.19,17.56,17.56,0,0,1,3.42-.36,22,22,0,0,1,3,.22,9.06,9.06,0,0,1,2.82.82,5.34,5.34,0,0,1,2.11,1.7,4.57,4.57,0,0,1,.8,2.94,16.9,16.9,0,0,1-.46,3.65l-1.85,8.72a6.68,6.68,0,0,0-.23,1.44,13.85,13.85,0,0,0-.06,1.5,5.84,5.84,0,0,0,.2,1.25h-5.72V84.29a7.27,7.27,0,0,1-2.85,2,9.86,9.86,0,0,1-3.5.65,9.35,9.35,0,0,1-3-.45,5.86,5.86,0,0,1-2.11-1.25,4.35,4.35,0,0,1-1.25-1.81,5.91,5.91,0,0,1-.4-2.15,6.54,6.54,0,0,1,2.08-5,10.33,10.33,0,0,1,5.86-2.35c1.34-.17,2.51-.29,3.51-.37a15.53,15.53,0,0,0,2.47-.4,3.15,3.15,0,0,0,1.48-.79,2.23,2.23,0,0,0,.49-1.55,2,2,0,0,0-.37-1.33,2.79,2.79,0,0,0-.91-.8,3.17,3.17,0,0,0-1.17-.39,5.81,5.81,0,0,0-1.2-.12,5,5,0,0,0-2.73.77,3.34,3.34,0,0,0-1.48,2.4h-5.36a7.34,7.34,0,0,1,1.17-3.42Z"/><path id="svg_103" data-name="svg 103" d="M1272.59,69a3.35,3.35,0,0,0-2.45-.77,5.85,5.85,0,0,0-2.51.48,1.73,1.73,0,0,0-1,1.67,1.61,1.61,0,0,0,.57,1.22,6.09,6.09,0,0,0,2,1l2.84,1a15.84,15.84,0,0,1,2.17.88,7.69,7.69,0,0,1,1.73,1.22,5.41,5.41,0,0,1,1.17,1.72,5.9,5.9,0,0,1,.43,2.35,6.26,6.26,0,0,1-.88,3.4,7,7,0,0,1-2.28,2.29,10.37,10.37,0,0,1-3.19,1.25,17.39,17.39,0,0,1-3.59.39,14.36,14.36,0,0,1-3.1-.34,9,9,0,0,1-2.85-1.1,6,6,0,0,1-2.08-2.07,5.86,5.86,0,0,1-.8-3.19v-.91h5.27v.71a2.16,2.16,0,0,0,.37,1.3,3.11,3.11,0,0,0,.94.9,4.59,4.59,0,0,0,1.34.54,6.27,6.27,0,0,0,1.48.2,11.05,11.05,0,0,0,1.28-.11,3.88,3.88,0,0,0,1.17-.43,3.07,3.07,0,0,0,.85-.79,2,2,0,0,0,.32-1.22,1.94,1.94,0,0,0-.57-1.58,5.14,5.14,0,0,0-1.48-.79l-4.39-1.47a15.29,15.29,0,0,1-1.91-.8,4.88,4.88,0,0,1-1.42-1,4.13,4.13,0,0,1-.88-1.5,7,7,0,0,1-.29-2.18,5.88,5.88,0,0,1,.85-3.23,7,7,0,0,1,2.25-2.12,9.9,9.9,0,0,1,3-1.16,13.35,13.35,0,0,1,3.13-.37,18.26,18.26,0,0,1,3.27.28,7.72,7.72,0,0,1,2.77,1,5.39,5.39,0,0,1,1.88,2.12,7.22,7.22,0,0,1,.65,3.43h-5.32a3,3,0,0,0-.77-2.15Z"/><path id="svg_104" data-name="svg 104" d="M1288.93,56.54l-2.13,10.75h.08a7.13,7.13,0,0,1,.91-1,7.23,7.23,0,0,1,1.46-1,8.34,8.34,0,0,1,2-.76,9.81,9.81,0,0,1,2.54-.31c4.07,0,6.09,1.95,6.09,5.82a5,5,0,0,1-.09.85c0,.34-.11.71-.17,1.08s-.14.71-.2,1-.11.56-.14.76l-2.59,12.68h-5.72l2.53-12.68c.06-.34.11-.76.23-1.33a10.57,10.57,0,0,0,.14-1.3,1.9,1.9,0,0,0-.85-1.59,3.1,3.1,0,0,0-1.88-.62,4.55,4.55,0,0,0-2.28.54,5.07,5.07,0,0,0-1.68,1.36,7,7,0,0,0-1.17,1.92,12.63,12.63,0,0,0-.71,2.21l-2.34,11.52h-5.69l6-29.88Z"/><path id="svg_105" data-name="svg 105" d="M1237.1,78.78,1236,84.49s-3.25,2.63-11.9,1.9c0,0-11.54-1.53-9-13.36,0,0,3.76-15,15.55-15.87,0,0,7.52-1,11.9,3.25l-4,5a7.34,7.34,0,0,0-7.78-3,13.74,13.74,0,0,0-10,11.32s-1,7.56,6.52,7.81c0,0,6,.14,9.91-2.71Z"/><path id="svg_106" data-name="svg 106" class="cls-9" d="M1170.12,54.78a34.09,34.09,0,0,1,.71-5.52c1.36-6,4.27-9.42,8.85-10.21l.18,0a13.46,13.46,0,0,1,2.56-.23,11.64,11.64,0,0,1,7.2,2.27c2.6,2,4.25,5.4,4.93,10.1l-24.43,3.62Zm72.36,41.82c2.88-1.69,29.59-8.32,29.59-8.32-24.58,3.12-78.83,18.48-78.83,18.48l43.12-74.25a12.44,12.44,0,0,0,2.14-8.29c-1.63-5.46-6.41-3.56-6.41-3.56L1191.56,28a4.8,4.8,0,0,0-4.13,5.15,20,20,0,0,0-8.8-.28c-13.24,2.38-15.24,18.48-14.47,26.63.77,9.45,3.79,16.32,8.95,20.43a18.25,18.25,0,0,0,11.42,3.9,13.42,13.42,0,0,0,2.53-.2c18.4-3.82,15.29-21.33,15.27-21.5a3,3,0,0,0-3.54-2.46,3.13,3.13,0,0,0-2.36,3.65,14.62,14.62,0,0,1-.48,6.14c-1.34,4.24-4.7,6.93-10,8.06a12.6,12.6,0,0,1-9.25-2.6c-3.36-2.72-5.47-7.36-6.3-13.87l28-4.18a3,3,0,0,0,2.5-3.2v-.09c-.37-5.83-1.82-10.52-4.3-14a7.65,7.65,0,0,1,6-6.34l26-3.76-44.37,76.9c-5.38,5.47-2.76,14.18-2.76,14.18,2.51,5.35,10.11,1.44,10.11,1.44l49.93-20.43c-4.5.91-24.18,6.12-24.18,6.12,4.75-3.12,44.74-14.83,44.74-14.83-3.51.65-19.57,3.76-19.57,3.76Z"/></g></g></svg>