<svg id="Layer_1" data-name="Layer 1" xmlns="http://www.w3.org/2000/svg" xmlns:xlink="http://www.w3.org/1999/xlink" viewBox="0 0 1920 916.42"><defs><style>.cls-1{fill:none;}.cls-2{clip-path:url(#clip-path);}.cls-3{fill:#f9bc7a;}.cls-4{fill:#f7dfbf;}.cls-5{fill:#514f4f;}.cls-6{fill:#f8b864;}.cls-7{fill:#e5a14e;}.cls-8{fill:#727272;}.cls-9{fill:#343332;}.cls-10{fill:#b56e35;}.cls-11{fill:#b63036;}.cls-12{fill:#d43d41;}.cls-13{fill:#974925;}.cls-14{fill:#b52326;}.cls-15{fill:#d8494e;}.cls-16{fill:#fccf97;}.cls-17{fill:#84d5d3;}.cls-18{fill:#ce683b;}.cls-19{fill:#fefefe;}.cls-20{fill:#e5b67c;}.cls-21{fill:#c6c5c4;}.cls-22{fill:#f18f62;}</style><clipPath id="clip-path"><rect class="cls-1" x="-0.24" y="-6.63" width="1920" height="922.83"/></clipPath></defs><g class="cls-2"><path class="cls-3" d="M1962.76,711.2c-11.28-7.58-35.3-13-84-23-164.57-33.7-230.13-17.51-250-12-36.5,10.12-54.76,15.18-69,33-44.47,55.65,1.83,171.11,55,237,71.22,88.29,228.75,181.44,333,110C2058.63,980.22,2041.76,764.31,1962.76,711.2Z"/><path class="cls-3" d="M297.6,670.65c-11.27-7.57-35.3-13-84-23C49,614-16.52,630.15-36.4,635.65c-36.49,10.12-54.75,15.18-69,33-44.47,55.65,1.84,171.11,55,237,71.23,88.29,228.75,181.44,333,110C393.48,939.68,376.61,723.76,297.6,670.65Z"/><path class="cls-3" d="M1419.74,738.06c5.14,2.2,10.17,4.72,15.7,5.84,12.84,2.6,24.55-.9,35.71-6.93,11.56-6.24,22.06-14.12,32.81-21.61,14.8-10.3,30-19.79,46.81-26.62,3-.15,5.51,1.85,8.49,1.63.23.4.38.92.73,1.17,14,9.88,27.85,19.89,42,29.52,7.4,5.05,17.15,3.08,22.68-4,1.16-1.49,2.11-3.14,3.16-4.71,2.08-2.91,4.07-5.87,6.25-8.7,5.23-6.77,5.82-13.83,1.53-21.26,3.53-.34,6.78,1,10.15,1.68a1.81,1.81,0,0,1,1.57,2V916.4h-239.2c1.67-5,1.38-10,.15-15A52.6,52.6,0,0,0,1393,875.1a136.85,136.85,0,0,0-5.39-17.37c.31-1.27,1.36-1.85,2.31-2.58a85.16,85.16,0,0,0,13.88-13.29c16.4-19.91,21.15-43.32,20.53-68.34,0-1.77.11-3.56,0-5.32A245.29,245.29,0,0,0,1419.74,738.06Zm185.45,58h0a51.12,51.12,0,0,0-7.92-18.16,32,32,0,0,0-4.46-6.53c-.35-1.53-1.61-2.29-2.71-3.18-1.85-2-3.55-4.12-5.89-5.59h0l-.64-.75a8.82,8.82,0,0,0-5-3.72,9.22,9.22,0,0,0-4.33-2.78h0l-.74-.75a9.6,9.6,0,0,0-5-2.74l-4.2-1.74c-1.56-1-3.14-2-5.12-1.93A56.21,56.21,0,0,0,1538.5,745a31.42,31.42,0,0,0-12.43.91c-4.39.84-8.79,1.71-12.86,3.68a20.33,20.33,0,0,0-9.27,4.33,21.62,21.62,0,0,0-5.67,3.57c-2.33,1.13-4.59,2.34-5.88,4.75v.08l-.6.21c-2.72,2.35-5.43,4.73-7.33,7.84a13.86,13.86,0,0,0-4.39,5.47l-2.65,4.53a21.86,21.86,0,0,0-4.24,9.27c-6,14.6-6.31,29.45-2,44.5.87,4.95,3.11,9.33,5.58,13.63A64.46,64.46,0,0,0,1499,872.12a20.81,20.81,0,0,0,1.94,1.54,69.11,69.11,0,0,0,43.36,10.42,63,63,0,0,0,30.7-10.53,65,65,0,0,0,23-23.43,46.14,46.14,0,0,0,6.07-13.13,5.1,5.1,0,0,0,1.09-3.42c1.25-2.79,1.36-5.83,2-8.76h0c1.84-1.32,3.75-2.54,5.5-4a40.49,40.49,0,0,0,9.37-10.25c5.47-8.93,4.68-17.88,0-26.86-3.37-6.44-7.55-12.42-10.65-19-3.59-7.67-4.17-15.11,1.23-22.25,1-1.31,1.28-2.71-.14-3.77s-2.69-.18-3.62,1.07a22.37,22.37,0,0,0-4.79,15.34c.58,8.16,4.63,14.92,8.65,21.7,2.85,4.82,5.92,9.53,7.61,14.93,3,9.48-3.44,22.85-12.62,26V807.61l-.38-1a26.83,26.83,0,0,0-1.68-9,1.49,1.49,0,0,0-.45-1.54Zm21.42,89.74a6.88,6.88,0,0,0-6.43-7.3,6.32,6.32,0,0,0-.87,0,7.59,7.59,0,0,0-7.62,7.56v.14c0,3.72,3.86,7.32,7.81,7.24,4.29-.09,7.11-3.12,7.11-7.63Zm-109.7-168.51c-1,6.59-4.52,10-11.34,10.63,7.19.41,10.53,4.17,11.35,11,.71-6.94,4.32-10.41,11.2-10.94-6.49-.85-10.36-3.92-11.21-10.68Zm-63.2,159.38c.73-6.7,4-10.4,11-11.12-7.13-.2-9.9-4.42-10.8-11-1.89,3.15-1.42,6.26-3.72,8.22-2.11,1.8-5.11,1.35-8.33,3.48,7.73,0,11,3.73,11.85,10.43Z"/><path class="cls-3" d="M272.27,684.5l10.52-2.25,2.37,5.1c1,3.83,3.21,7,5.53,10.17,2.29,3,4.41,6.06,7.36,8.44a20.89,20.89,0,0,0,7.08,6.1,7,7,0,0,0,3.35,2.05h.07l.86.64-.05-.06.83.64a15.43,15.43,0,0,0,5.6,3,29.13,29.13,0,0,0,9.49,3.3,45.74,45.74,0,0,0,19.36,2.16c11.67-.24,22.15-4.12,31.79-10.5,1.51-1,2.9-1.78,4.92-1.47,8.7,1.35,17.34,1.2,25.74-1.9,9.14,5.41,17.43,12.06,26.28,17.9,9.37,6.17,18.82,12.15,29.77,15.27,7.64,2.18,15.29,2,23,.66l1.11,3.87a213.77,213.77,0,0,0,18.4,54.94,51.22,51.22,0,0,0,17,19.84c4.32,2.93,9,5,14.39,4.22,8.63-1.2,13-7.2,15.88-14.66,2.13-3.49,2.19-7.75,4.18-11.29,1.93,2.11,4.44,3.65,6,6.12-.93,2.56-2.1,5-2.37,7.81-4.61,12-8.2,24.34-12,36.63-3.19,10.46-6.54,20.9-8.79,31.63-.84,1.56-1.73,3.1-2.53,4.68-4.63,9.12-8.65,18.36-5.22,28.94H333.86a7.86,7.86,0,0,0-.17-2.11c-6.8-18.43-19.62-30.2-38.73-35.14-7.56-2-15.11-1.24-22.69-.69ZM494.75,847.83c1.29-2.45,0-4.36-1.35-6.22a52.12,52.12,0,0,0-11.34-10.85c-37.59-28.14-78.66-50-122.38-66.85-6.86-2.65-13.91-5.07-21.47-5-2.32,0-4.29.43-5.12,2.93l-28.12,36a4.74,4.74,0,0,1-4.05,2.26c-4,.12-5.87,3.14-4.59,6.95a27.71,27.71,0,0,0,5.5,9.12c14,16.31,31.86,27.7,49.93,38.79a21,21,0,0,0,1.71,1.27,613.63,613.63,0,0,0,64.93,34c14.63,6.47,29.47,12.41,45.31,15.25,5.5,1,11.08,1.91,16.65.22a5.36,5.36,0,0,0,4.14-4.83c.24-2.31-.26-4.63-2.5-5.44-3-1.08-2.44-2.61-1.67-4.86Q487.64,869.14,494.75,847.83Zm-65.11-83.78c.48-9.31,6-12.83,14.33-13.88-9.06-.48-13.61-5-14.48-14-.6,9-5.17,13.39-14.14,14.2C424.27,750.83,428.58,755.42,429.64,764.05Z"/><path class="cls-3" d="M783.19,855.12a313.31,313.31,0,0,0-11.77-39.84c-.63-1.76-1.65-3.43-1.54-5.41,6.66,2.77,12.52,6.84,18.3,11.07-3.58,2.52-8.11,3.65-11.14,7l.5.82L790.66,822c2.62,3,6.3,4.56,9.23,7.1,3.24,2.82,7.53,4.45,9.66,8.52A298.66,298.66,0,0,0,783.19,855.12Z"/><path class="cls-3" d="M1163.31,815.52,1148.65,810a73.79,73.79,0,0,1,9.7-5.34Q1160.83,810.11,1163.31,815.52Z"/><path class="cls-3" d="M1108.6,857c.71-2.83,3.72-3.41,5.3-5.39.8-1,1.78-1.86,2.67-2.78a117.74,117.74,0,0,1,34.06,20.27c-13.58.07-25.52,4.23-35.15,14.12-.59.6-1.18,1.27-2.12.56a158.84,158.84,0,0,0-3.7-21C1109.31,860.87,1109,858.94,1108.6,857Z"/><path class="cls-3" d="M788,879c-1.38-7-2.1-14.14-4.35-21a21.86,21.86,0,0,1,2.18-2.33,129.3,129.3,0,0,1,27-17.26c.21,1.18,1.24,1.64,2,2.38,4.58,4.45,10.16,7.82,14.07,13-7.63,5.06-15.11,10.36-22.27,16.08-6.11.42-11.29,3-15.92,6.86Z"/><path class="cls-3" d="M831.44,854.89c.65,2.43,3,3.23,4.59,4.82,4.79,4.93,9.73,9.73,14.62,14.58-.42,3.25-.84,6.51-1.27,9.76-2.4-.25-3.36-2.45-5-3.76-9.71-8-20.89-11.45-33.36-11.08A99.3,99.3,0,0,1,831.44,854.89Z"/><path class="cls-3" d="M1158,869.66l-2.88.12a202.37,202.37,0,0,0-36.54-22.72,40.31,40.31,0,0,0,5.33-7,26.07,26.07,0,0,0,4.51-10.11c2-.3,3.69.79,5.41,1.45,10.72,4.13,21.24,8.66,30.59,15.49A190.94,190.94,0,0,0,1158,869.66Z"/><path class="cls-3" d="M1146.31,811.79a80,80,0,0,1,19.46,7.19c1,3.41,3.76,5.83,5.3,9q-1.41,3.81-2.81,7.62a51.69,51.69,0,0,0-3.09,8.89c-7-3.5-13.61-7.77-20.88-10.77-5-2.08-10-4.2-15.08-6.31.13-1.09.26-2.18.4-3.28l.63-2.82C1135.78,818.42,1140.54,814.24,1146.31,811.79Z"/><path class="cls-4" d="M717.72,916.48H598.12a74.6,74.6,0,0,0-4.57-26c-1.37-3.67-4.12-6.63-4.84-10.53a220.68,220.68,0,0,0,3.3-32.74c4.78,3,9.52,6.19,14.37,9.14,22.38,13.6,46.51,19.61,72.69,16.51,18.72-2.22,34.53-10.71,48.81-22.61,2.51-2.1,4.52-4.88,7.75-6.08,3.43,8.69,6.92,17.35,9.58,26.32-1.5,1.33-3.51,1.3-5.28,1.88a26.18,26.18,0,0,0-16.59,15A64.71,64.71,0,0,0,717.72,916.48Z"/><path class="cls-5" d="M1033.55,916.48H929c-.26-.23-.48-.57-.78-.69A197.55,197.55,0,0,1,891,896a191.59,191.59,0,0,1-33.75-28.83c-1.26-1.37-1.91-3.34-4.09-3.66a20.32,20.32,0,0,1,.92-5.74l.25-.85v0c1.83.31,3.23,1.49,4.7,2.47,17.24,11.53,35,22.12,54.26,30a181.58,181.58,0,0,0,66.94,13.61,195.08,195.08,0,0,0,27-2c17.73-2.28,34.52-7.71,50.65-15.15a323.67,323.67,0,0,0,47-26.94c1.14-.78,2.18-2,3.8-1.73l1.06,5.79-3.67,3.84a212.26,212.26,0,0,1-36.55,30.51,231.22,231.22,0,0,1-24.07,13.69C1041.46,912.78,1037.14,913.87,1033.55,916.48Z"/><path class="cls-5" d="M813.69,916.48H797.93c-4.21-5.68-3.2-11.31.16-16.92.18-.31.4-.59.59-.89.37-.6,1-1.33.24-1.88-1-.75-1.45.3-1.88.94-.66,1-1.26,2-1.83,3.06-2.83,5.2-2.39,10.44-.14,15.69H779.31c-.89-3.62-.7-7.31-.69-11,0-4.54,1.69-8.82,2.07-13.31A71.6,71.6,0,0,1,788,879l2.7-2.24c4.63-3.85,9.81-6.44,15.92-6.86-3.37,3.33-6.75,6.64-10.09,10-.62.62-1.84,1.41-1,2.31,1.11,1.16,1.84-.27,2.51-1,4.14-4.22,8.11-8.63,13-12.07,12.47-.37,23.65,3.06,33.36,11.08,1.59,1.31,2.55,3.51,5,3.76.27,1.85,1.41,3.16,2.6,4.52,7.09,8.08,10.92,17.81,14,27.91H815.84c-2.59-6.14-.84-11.81,1.88-17.38.36-.73,1.1-1.55,0-2.1s-1.35.65-1.7,1.3A24.14,24.14,0,0,0,813.69,916.48Z"/><path class="cls-5" d="M1184,916.48h-15.76a6.42,6.42,0,0,1,.38-1.67c3.25-6.26,1-11.76-2.33-17.09-.42-.67-.91-1.67-1.9-.92-.75.57-.12,1.28.24,1.88.48.82,1,1.61,1.45,2.46,3.32,6.44,2.94,10.53-1.42,15.34h-15c2-6,.93-11.69-1.86-17.16-.47-.93-.48-2.91-2-2.23-1.16.51-.07,1.91.36,2.82a21.66,21.66,0,0,1,1.4,16.57h-50.13c.25-6.39,3.87-11.59,6.49-17s6.34-10.46,9.58-15.65c.94.71,1.53,0,2.12-.56,9.63-9.89,21.57-14,35.15-14.12,5.73,4,10.48,9,15.37,13.87.66.67,1.33,2.33,2.44,1.33s-.43-1.93-1.07-2.58c-4-4-8.16-8-12.26-11.95l2.88-.12,8.41,3c2,.67,2.76,3.4,5.33,3,.19.42.28,1,.6,1.24,5.15,4.44,7.81,10.32,9.87,16.61C1184.66,901,1183.88,908.79,1184,916.48Z"/><path class="cls-6" d="M588.71,880c.72,3.9,3.47,6.86,4.84,10.53a74.6,74.6,0,0,1,4.57,26H583.8c-.71-4.91-1.4-9.82-2.14-14.73-.11-.73-.1-1.92-1.33-1.57-.84.24-.52,1.17-.4,1.86a97.29,97.29,0,0,1,1.72,14.44H564.46V901.64H563v14.85H545.84a53.07,53.07,0,0,1-.85-9.58c0-.73.48-2-.78-2-1.07,0-1,1.18-1,2,.12,3.2.32,6.38.49,9.57H532.24c-3.43-10.58.59-19.82,5.22-28.94.8-1.58,1.69-3.12,2.53-4.68,2.21-1.35,2.84-4,4.86-5.6,11.84-9.26,29.85-8.83,41.22,1.1C586.86,879,587.43,880.08,588.71,880Z"/><path class="cls-7" d="M1393,875.1a52.55,52.55,0,0,1,15.26,26.32c1.23,5,1.52,10-.15,15h-11.46c.15-3.3.32-6.59.42-9.9,0-.68-.08-1.63-1-1.65s-.86,1-.82,1.62c.21,3.35-.41,6.63-.79,9.93h-17.19V901.65h-1.43v14.83h-17.19a81,81,0,0,1,1.62-14.14c.13-.77.62-1.89-.52-2.1s-1.13,1-1.24,1.78c-.7,4.82-1.35,9.64-2,14.46h-14.32c-.4-7,1.43-13.86,2.21-20.78,1.34-1.19,1.47-2.94,2-4.47,4.82-13.42,14.94-20.53,29.17-20.59C1381.84,870.62,1387.45,872.73,1393,875.1Z"/><path class="cls-6" d="M780.69,892.18c-.38,4.49-2.05,8.77-2.07,13.31,0,3.68-.2,7.37.69,11h-7.16c.25-3.28.87-6.54.61-9.85,0-.68.15-1.63-.77-1.72-1.32-.14-1,1-1,1.76a34.15,34.15,0,0,1-1,9.81H753.53c-.65-2.94,0-5.94-.35-8.88-.23-2.07,1.26-5.58-1.06-5.82-1.7-.17-.5,3.62-.8,5.62-.44,3,.67,6.13-.65,9.08H734.91c-1.09-4.64.54-9.08,1-13.6.11-1,1-2.4-.58-2.63-1.07-.15-1.08,1.37-1.22,2.25-.73,4.66-1.4,9.32-2.09,14h-14.3a64.59,64.59,0,0,1,5.62-29,26.19,26.19,0,0,1,16.59-15.09c1.77-.58,3.78-.55,5.28-1.88,2.38.06,4.76,0,7.13.2,9.27.75,17.46,3.68,22.75,12C777.07,885.77,778.83,889,780.69,892.18Z"/><path class="cls-8" d="M1113.36,883.78c-3.24,5.2-6.94,10.17-9.58,15.66s-6.24,10.65-6.49,17h-63.74c3.59-2.61,7.91-3.7,11.82-5.64a231.22,231.22,0,0,0,24.07-13.69A211.65,211.65,0,0,0,1106,866.64l3.67-3.84A158.53,158.53,0,0,1,1113.36,883.78Z"/><path class="cls-7" d="M1184,916.48c-.07-7.69.71-15.44-1.75-23-2.06-6.29-4.72-12.17-9.87-16.61-.32-.27-.41-.82-.6-1.24a36.56,36.56,0,0,1,19.73-5.11c9.89,1,18.27,4.42,23.68,13.5,2.2,3.7,3.12,7.88,5.17,11.58,1.13,6.92,2.86,13.76,2.31,20.85H1208.3c-1.61-5.35-.81-11.25-3.37-17-1.19,1.81-.59,3-.47,4.07.47,4.32,1.88,8.57,1,13h-13.61c-.75-4.67,0-9.58-2.14-14-.73,4.72.48,9.38,0,14Z"/><path class="cls-8" d="M866,916.48c-3.07-10.1-6.9-19.83-14-27.91-1.19-1.36-2.33-2.67-2.6-4.52q.65-4.89,1.27-9.76,1.22-5.41,2.45-10.81c2.18.32,2.83,2.29,4.09,3.66A191.59,191.59,0,0,0,891,896a197.55,197.55,0,0,0,37.27,19.82c.3.12.52.46.78.69Z"/><path class="cls-4" d="M1222.62,916.48c.55-7.09-1.18-13.93-2.31-20.84,2.8,1.53,5.67,3,8.38,4.63,18.39,11.33,38.39,14.7,59.54,11.77a119.5,119.5,0,0,0,47.1-17.37c2.68-1.67,5-4.07,8.32-4.67l.21,2.71.27.93.3,2.06c-.78,6.92-2.61,13.73-2.21,20.78Z"/><path class="cls-9" d="M1164.61,916.48c4.36-4.81,4.74-8.9,1.42-15.34-.43-.85-1-1.64-1.45-2.46-.36-.6-1-1.31-.24-1.88,1-.75,1.48.25,1.9.92,3.37,5.33,5.58,10.83,2.33,17.09a6.42,6.42,0,0,0-.38,1.67Z"/><path class="cls-9" d="M795.07,916.48c-2.25-5.25-2.69-10.49.14-15.69.57-1,1.17-2.07,1.83-3.06.43-.64.88-1.69,1.88-.94.74.55.13,1.28-.24,1.88-.19.3-.41.58-.59.89-3.36,5.61-4.37,11.24-.16,16.92Z"/><path class="cls-9" d="M1147.42,916.48a21.66,21.66,0,0,0-1.4-16.57c-.43-.91-1.52-2.31-.36-2.82,1.57-.68,1.58,1.3,2,2.23,2.79,5.47,3.85,11.16,1.86,17.16Z"/><path class="cls-9" d="M750.67,916.48c1.32-3,.21-6.08.65-9.08.3-2-.9-5.79.8-5.62,2.32.24.83,3.75,1.06,5.82.34,2.94-.3,5.94.35,8.88Z"/><path class="cls-9" d="M813.69,916.48a24.14,24.14,0,0,1,2.36-18.18c.35-.65.6-1.86,1.7-1.3s.33,1.37,0,2.1c-2.72,5.57-4.47,11.24-1.88,17.38Z"/><path class="cls-9" d="M1205.43,916.48c.91-4.41-.5-8.66-1-13-.12-1.12-.72-2.26.47-4.07,2.56,5.8,1.76,11.7,3.37,17Z"/><path class="cls-9" d="M732.05,916.48c.69-4.66,1.36-9.32,2.09-14,.14-.88.15-2.4,1.22-2.25,1.57.23.69,1.68.58,2.63-.49,4.52-2.12,9-1,13.6Z"/><path class="cls-9" d="M581.65,916.48A97.29,97.29,0,0,0,579.93,902c-.12-.69-.44-1.62.4-1.86,1.23-.35,1.22.84,1.33,1.57.74,4.91,1.43,9.82,2.14,14.73Z"/><path class="cls-9" d="M1356.54,916.48c.66-4.82,1.31-9.64,2-14.46.11-.76.13-2,1.24-1.78s.65,1.33.52,2.1a81,81,0,0,0-1.62,14.14Z"/><path class="cls-9" d="M1189.68,916.48c.48-4.67-.73-9.33,0-14,2.11,4.47,1.39,9.38,2.14,14Z"/><path class="cls-9" d="M543.7,916.48c-.17-3.19-.37-6.37-.49-9.57,0-.79-.07-2,1-2,1.26,0,.81,1.23.78,2a53.07,53.07,0,0,0,.85,9.58Z"/><path class="cls-9" d="M770,916.48a34.15,34.15,0,0,0,1-9.81c0-.73-.3-1.9,1-1.76.92.09.72,1,.77,1.72.26,3.31-.36,6.57-.61,9.85Z"/><path class="cls-9" d="M1394.5,916.48c.38-3.3,1-6.58.79-9.93,0-.67-.2-1.65.82-1.62s1,1,1,1.65c-.1,3.31-.27,6.6-.42,9.9Z"/><path class="cls-9" d="M563,916.48V901.63h1.43v14.84Z"/><path class="cls-9" d="M1375.88,916.48V901.65h1.43v14.83Z"/><path class="cls-7" d="M1419.74,738.06a245.26,245.26,0,0,1,4.58,30.14c.15,1.76,0,3.55,0,5.32a112.89,112.89,0,0,1-4.36,18.31c-6.55,18.53-17.81,33.7-32.64,46.47-12.94,11.14-27.46,19.67-42.79,27-1.41.67-2.77,1.45-4.41,1.18-.1-1.43.87-2.4,1.5-3.53a104.49,104.49,0,0,0,9.23-21.23,95.12,95.12,0,0,0,3.6-38.42,97.19,97.19,0,0,0-6.32-25.52c-6.53-16-16.81-29.74-27.64-43.09-4.7-5.79-9.45-11.61-12-18.87-4.5-12.73-3.11-25.54-1.07-38.42.89-5.59,2.58-11.12,1.12-16.92-1.12-4.44-4.76-7.29-10-7.4-6.67-.15-9.53,1.51-10.55,6.64a85.07,85.07,0,0,0-1.54,12,121.35,121.35,0,0,1-3.07,22.92c-1.93,7.81-4.68,15.37-9.85,21.6-6.41,7.72-14.38,13.87-22,20.37-16.86,14.48-30.83,31-37.54,52.69-7.15,23.11-5.87,45.73,3.61,68,.87,2,2.44,3.86,2.29,6.28a26.12,26.12,0,0,1-4.72-1.41c-5.47-2.77-10.85-5.71-16.27-8.58-10.41-7.29-20-15.5-27.85-25.56-1.54-3.12-4.26-5.54-5.3-9,6.13,2.3,11.74,5.64,17.45,8.79.79.43,1.84,1.85,2.63.4.57-1.06-.95-1.42-1.69-1.87-6.68-4.11-13.84-7.29-20.85-10.77l-5-10.82a113.37,113.37,0,0,1-5.8-38.32c.67-20.27,5.75-39.53,13.93-58a3.14,3.14,0,0,0-.38-3.8c-11.53-14.59-15.36-32-17.93-49.8a172.84,172.84,0,0,1-1.28-35c1-16.81,3-33.49,10.78-48.83a25.77,25.77,0,0,1,13.78-12.43c9.43-3.79,17,.06,23.59,6.51,6.9,6.72,11.78,15,16.89,23,8.29,13,18.89,23.88,30.72,33.66,1.92,1.58,3.56,1.15,5.55.2a103.66,103.66,0,0,1,41.7-10.23c20.52-.64,39.34,5.09,56.38,16.42,2.7,1.79,4.62,1.77,7.37.29,17.68-9.55,32.4-22.58,45.31-37.83a64.39,64.39,0,0,1,14.29-12.36c15.89-10.29,29.25.78,33.46,12.19,4.55,12.32,4.8,25.25,4.15,38.14a194.54,194.54,0,0,1-7.74,46c-4.17,14-9.47,27.53-18.56,39.2a80.67,80.67,0,0,1-7.26,7.87c-1.15,1.14-1.72,2.12-1.23,3.73C1417.35,729.59,1418.53,733.83,1419.74,738.06Zm-196.4-103.64a.77.77,0,0,0,.1.25h.2l-.31-.29a6.64,6.64,0,0,0-1.1-1.8c-10.29-8.67-17.68-19.47-23.82-31.32-2.55-4.93-5.37-9.88-9.5-13.75-7.81-7.32-15.36-8-20.42,3.31-.34.76-.68,1.52-1,2.3-4.83,12.73-4.24,26-3.39,39.16,1,15.18,4.55,30,8.64,44.66,1,3.71,2.43,7.31,3.88,11.62,1.2-1.84,2-3,2.72-4.18a168.76,168.76,0,0,1,20.11-26.28c2.65-2.88,4.09-5.11,2.72-9.22-1.49-4.45,1.38-7,6.07-6.26.47.07.92.24,1.2-.38-1.36-2.44-2.79-4.88-4.11-7.38-.68-1.29-1.13-2.77,0-4s2.39-.55,3.69-.45C1214.05,630.79,1218.38,633.7,1223.34,634.42Zm149.5,8.31c4.17,0,8.18-1.47,12.32-1.14,2.35.18,5.81-1.46,6.77,1.35s-2,5.07-3.7,7.29a1.55,1.55,0,0,1-.27.24c-.68.59-2,.87-1.7,2s1.69,1.13,2.73,1.22c2.8.26,3.49,2,3.37,4.49a10.81,10.81,0,0,1-2.9,6.78c-2.19,2.4-1.54,4,.13,6.3,7.07,9.65,12.52,20.26,17.7,31,.35.73.78,1.76,1.38,1.94,1,.31,1.18-1,1.53-1.62a265.82,265.82,0,0,0,13.42-29.22c5.07-13.49,9.3-27.27,10.72-41.67.84-8.54.9-17.15-2.1-25.44-2.32-6.41-7.74-8.49-14.1-6-7.44,2.94-11.57,9.34-16.47,14.92-4.61,5.26-8.54,11.08-13.9,15.72-4.77,4.1-10,7.63-14.93,11.79Zm-33.46,19.69c-5.79,0-9.93,2.1-10.81,5.09-1.24,4.27.36,8.17,4.34,10.57,4.65,2.8,9.91,3.29,15.08,3.39,4.69.09,7.23-2,8.17-5.5s-.72-7-4.42-9.63C1347.79,663.52,1343.23,662.91,1339.38,662.42Zm-72.31.06c0-3.89-.73-5.22-3.48-6.71-6.36-3.43-18.52-.93-23,4.73a7.27,7.27,0,0,0,3.83,11.8c6.15,1.61,12.1.32,17.6-2.29,3-1.42,5.68-3.81,5-7.59Zm-11.44,54.57c0-1.35-.35-2-2.24-3.39a44.08,44.08,0,0,0-18.82-8.18c-10-1.77-19.13.5-27.61,5.84-1.81,1.14-3,2.66-1.66,4.74s3.15,1.73,5,.66c.93-.53,1.85-1.07,2.79-1.58a31.11,31.11,0,0,1,22.12-3.17,37.43,37.43,0,0,1,15,7.16c1.19.92,2.45,1.49,3.93.58a2.89,2.89,0,0,0,1.49-2.71ZM1378,730.73c0-1.77-1.37-2.71-2.5-3.73-10-9-21.71-11.92-34.82-9.23a40.59,40.59,0,0,0-11.1,3.83c-1.79,1-2.72,2.46-1.7,4.43.92,1.79,2.58,1.92,4.32,1.28.67-.24,1.28-.65,1.94-.92,13.65-5.68,26.25-4.45,37.51,5.67a8.34,8.34,0,0,0,2.29,1.66,2.91,2.91,0,0,0,3.83-1.5A2.83,2.83,0,0,0,1378,730.73Z"/><path class="cls-8" d="M1017.83,662.3c3.54,1.56,5.69-.77,8.08-2.74,15.49-12.78,31.68-24.53,50.19-32.64,10.34-4.53,21-7.78,32.56-6.34a17.43,17.43,0,0,1,14.23,10c4.21,8.43,5.09,17.55,5.23,26.78.38,25.32-4.3,50-9.7,74.59-1.43,6.51-3.07,13-4.74,19.43a7.48,7.48,0,0,0,.29,4.83,310.77,310.77,0,0,1,9.68,29.89,86.14,86.14,0,0,0-30.06,8.72,4.44,4.44,0,0,0-2.68,5.24c-3.93.09-7.86.25-11.79.24a223.73,223.73,0,0,0-39,3.58c-4.88.85-9.62,2.63-14.69,2.4a50.62,50.62,0,0,0-20.6-15.34,11.77,11.77,0,0,0-5.5-11.67c-10.86-6.85-22.27-7.09-33.62-1.27-5.08,2.6-8.26,6.8-7.39,13a42.41,42.41,0,0,0-20.78,15.87,283.26,283.26,0,0,0-36.15-5.86c-9.85-.9-19.7-.51-29.56-.79.41-3.13-1.37-4.81-3.93-6.06-9.06-4.4-18.71-6.71-28.59-8.25,2.54-9.19,5.35-18.29,8.75-27.2a8.32,8.32,0,0,0,.35-5.19c-6.46-26.17-11.8-52.53-13.53-79.5-.73-11.32-.77-22.63,1.73-33.8.15-.7.34-1.39.53-2.07,4-14.29,11.7-19.42,26.49-17.86,14.35,1.52,26.94,7.64,39.16,14.74A249.06,249.06,0,0,1,938.71,661c1.71,1.45,3.26,2.19,5.4,1.54.23,2.48.39,5,.72,7.42.74,5.54,1.77,11.05,4.11,16.15.93,2,1.74,4.73,4.71,4.78s4-2.39,4.86-4.56c3.61-8.67,4.73-17.81,4.86-27.12a10.55,10.55,0,0,1,4.4-.36,214,214,0,0,0,5.12,48.66c1,4.76,2.33,9.47,4.94,13.67,2.31,3.71,5.26,3.71,7.32,0a42.47,42.47,0,0,0,4.06-10.24,188.58,188.58,0,0,0,5.72-52.15l4.34.24c-.11,9.67.8,19.15,5.15,28,.89,1.8,1.82,3.79,4.23,3.83s3.22-2.18,4.48-3.67a7.32,7.32,0,0,0,.91-2.29A61.14,61.14,0,0,0,1017.83,662.3Zm88.77,1.35c.47-3.73-.32-7.38-.84-11-1.1-7.7-4.9-10.09-12.52-8.29a52.73,52.73,0,0,0-11.36,4.2c-11.77,5.83-22.56,13.22-33.09,21-3.27,2.42-3.3,2.46.32,4.44a104.44,104.44,0,0,1,20.51,14.12c10.05,9.16,19.06,19.27,26.18,31,.54.89.82,2.72,2.3,2.26,1.11-.35,1.1-2,1.3-3.1,1.33-7.59,2.58-15.18,3.92-22.76A274,274,0,0,0,1106.6,663.65Zm-250,.64c.19,4.5.16,9,.64,13.51,1.49,13.91,3.81,27.67,6.5,41.38.18.87-.24,2.17,1,2.39s1.39-1.08,1.87-1.85a157.94,157.94,0,0,1,17.74-23.12,115.42,115.42,0,0,1,29.84-22.86c2.95-1.6,2.27-2.52.19-4.06a260.2,260.2,0,0,0-22.16-14.93c-7.46-4.42-15-8.74-23.61-10.76-6-1.42-9.28.61-11,6.47-1.39,4.56-.81,9.21-1,13.83Zm184.54,73.79c-5.15,0-8.11,2.62-10.51,6.09a27.78,27.78,0,0,0-4.63,15.15c-.31,8.55,1.18,16.68,8,22.71,4.35,3.83,9.58,3.56,13.82-.38,9.93-9.24,10.15-31,.41-40.42a9.79,9.79,0,0,0-7.08-3.15ZM936.91,760.42a28.44,28.44,0,0,0-4.25-15.5c-5.33-8.83-14.86-9.1-20.55-.63-6.34,9.43-6.17,25.31.36,34.61,5.46,7.76,14,7.76,19.47,0C935.57,773.68,936.91,767.84,936.91,760.42Z"/><path class="cls-6" d="M563.11,806.78c-1.57-2.46-4.08-4-6-6.11.31-2,.55-4,.95-6a175.73,175.73,0,0,0,3.58-30.06c.39-14.2-.56-28.34-1.54-42.48-.44-6.41-.94-12.81-1.58-19.2-1.26-12.7-1.58-25.4.46-38,3.24-20,9.14-39.38,16-58.44,1.53-4.21,3.54-8.35,3.75-13A134.54,134.54,0,0,1,700,581.57c1.59,5.33,5,9.71,7.74,14.41,9.48,16.15,18.3,32.62,25.06,50.14,7.11,18.45,8.4,38,10.68,57.31,1.85,15.58,3.72,31.13,7.63,46.36,2.72,10.63,6,21,11.3,30.74a.87.87,0,0,1-.2.45c-2.25,1.07-3.15,3.13-3.89,5.3-.93.1-1.37.79-1.9,1.45A158.64,158.64,0,0,1,742,803.42c-4.84,4.59-10.4,8.27-15.26,12.8-3.24.91-5.46,3.59-8.47,4.92.44-3.37,3.06-5.58,4.48-8.44,11.23-22.62,10.18-45.51,1.54-68.53-8-21.25-23.41-36.72-40.2-51.07-5.61-4.79-11.62-9.17-16.33-14.9-8.54-10.39-10.64-23.08-12.36-35.88-1.24-9.21-1.08-18.52-2.2-27.72a28.88,28.88,0,0,0-1.62-6.93c-1.82-4.7-6-4.25-10-4.19-6.08.08-8.58,2.28-9.92,8.06-1.44,6.18.36,12.1,1.2,18a168.15,168.15,0,0,1,1.68,33.1,45.19,45.19,0,0,1-2.87,14.26c-3.76,9.49-10.62,16.89-16.81,24.68-14.86,18.84-26.8,38.74-29.16,63.26-1.3,13.6-.17,26.83,4.46,39.71,3.56,9.91,9.46,18.35,16.55,26-1,1.21-1.88.3-2.86,0-4.24-1.34-8-4-12.36-4.94-6-3.79-12.4-7-18.11-11.28C570,811.8,566.54,809.31,563.11,806.78ZM711.94,665.71a44.46,44.46,0,0,0-25.2,8.78c-1.76,1.37-3.08,3-1.56,5.11s3.4,1.37,5.27,0c12.63-9,25.71-10.55,39.34-2.22,1.89,1.15,3.9,1.73,5.24-.65s-.31-3.75-2.13-4.89A38,38,0,0,0,711.94,665.71Zm-99.19,19.71c0-1.38-.82-2.4-2.83-3.33-9.26-4.28-18.88-5.73-28.88-3.21a38.53,38.53,0,0,0-17.45,10c-1.6,1.55-2,3.37-.39,5s3.24,1,4.72-.41c.59-.58,1.26-1.09,1.89-1.63a31.2,31.2,0,0,1,26.2-7.6,41.77,41.77,0,0,1,11.54,3.62C610.37,689.24,612.84,688,612.75,685.42Z"/><path class="cls-10" d="M762.36,780.53c-5.28-9.69-8.58-20.11-11.3-30.74-3.91-15.23-5.78-30.78-7.63-46.36-2.28-19.33-3.57-38.86-10.68-57.31-6.76-17.52-15.58-34-25.06-50.14-2.76-4.7-6.15-9.08-7.74-14.41,7.1.14,13.83,2.06,20.32,4.69,30.6,12.39,58.27,29.3,81.8,52.71,8.58,8.53,12,19.22,14.21,30.61,4.62,24.23,4.28,48.6,2,73a15,15,0,0,1-.47,2.09c-1.72.37-1.53,2-1.88,3.11A164.07,164.07,0,0,1,805,774.32c-7.15,13.74-19.94,17.22-33.63,12.73C767.61,785.8,765.28,782.83,762.36,780.53Z"/><path class="cls-10" d="M578.77,593.49c-.21,4.62-2.22,8.76-3.75,13-6.91,19.06-12.81,38.39-16,58.44-2,12.65-1.72,25.35-.46,38,.64,6.39,1.14,12.79,1.58,19.2,1,14.14,1.93,28.28,1.54,42.48a175.73,175.73,0,0,1-3.58,30.06c-.4,2-.64,4-1,6-2,3.54-2,7.8-4.18,11.29-3.13-.51-6.12.89-9.22.66-10.58-.76-19.38-5.56-26.7-12.81-10.2-10.1-17-22.56-22.73-35.56-2.44-5.51-4.68-11.11-7-16.68l-1.11-3.87c-1.25-9.08-3-18.08-3.65-27.24-.72-10.12-1-20.26.47-30.32,1.16-7.84,5.2-14.58,9.8-20.84,20.59-28,45.38-51.37,76-68.22A27,27,0,0,1,578.77,593.49Z"/><path class="cls-11" d="M285.16,687.35l-2.37-5.1c-1-4.49-2.74-8.82-2.61-13.51,3.49-.28,5.43-3.1,8-4.91.93-.66.77-2,.38-3a1,1,0,0,0-1.3-.56.76.76,0,0,0-.26.15c-2.63,2-6.39,2.77-7.15,6.73-.71-2.3-.21-4.65-.24-7a5.34,5.34,0,0,0,4.08-1.77c1-1,2-2,3.62-1.8.83,1.85,1.83,2.12,3.74,1a61.73,61.73,0,0,1,25.26-8.11,74.16,74.16,0,0,1,38.86,6.9c3.75,1.8,7.31,4,11.49,6.08-.72-4.12-1.94-7.13-5.37-8.57a139.7,139.7,0,0,0-18.07-6.55c-11.4-3-22.83-4-34.48-1.45a65.43,65.43,0,0,0-21.37,9.31c-.22-4.16-.21-4.14-3.81-2.19a33,33,0,0,1-3.26,1.4c-.24-1.5.32-2.88.59-4.31,2.38.56,3.31-2.66,5.67-2.15.19,3.67,2.2,1.42,3.26.83A66.78,66.78,0,0,1,324,640.24c11.43.28,22.48,3.09,33.17,7.22,1.13.43,2.53,2,3.46.73s-.68-2.6-1.42-3.75a4.79,4.79,0,0,0-2.21-1.69c-19-7.8-38.2-9.71-57.82-2.22-4.37,1.67-8.19,4.33-12.46,6.12-.22-4.07-.22-4.07-4.27-2.24,1.19-4,2-8.16,4.72-11.56a7,7,0,0,0,5.45-3c3.27-4.74,6.11-9.78,9.12-14.71l1.75-1.55a.43.43,0,0,0,.34-.33l1.35-1.19.79-.58c2-1.52,3.82-3.32,6.43-3.77.47,2.19-.79,3.56-2.24,4.91a43.47,43.47,0,0,0-10,14.32c8.89-5.63,13.41-15.14,20.13-22.68a4.22,4.22,0,0,1,3.6-1.29c5.83,4,11.91,7.63,17.37,12.29a94.56,94.56,0,0,1,24.89,33.35c7,15.41,10.06,31.76,10.69,48.6.07,1.81.51,2.48,2.28,1.53a14.62,14.62,0,0,1,2-.75c0,2.57,0,5.15.07,7.72.06,1.72.69,2.8,2.64,1.69a30.86,30.86,0,0,0,18.72-.76c6.46-1.7,10.46-5.9,12.22-12.25,2.53-9.11,1-18.22-.15-27.33-.59-4.85-1.26-9.69-1.72-14.55a21.08,21.08,0,0,1,1.2-9.86,10.43,10.43,0,0,1,10.51-6.46c1.32.14,2.38.6,2.39,2.1,0,1.28-.86,1.77-2.06,2-6.82,1.51-7.85,2.82-7.9,9.81-.06,7.31,1.59,14.43,2.36,21.66a95.64,95.64,0,0,1,.66,16.05c-.6,9.55-4.12,17.3-12.92,22-8.4,3.1-17,3.25-25.74,1.9-2-.31-3.41.47-4.92,1.47-9.64,6.38-20.12,10.26-31.79,10.5,9.84-3.42,19.19-7.75,27.39-15.14.17,2.08.47,4,2.59,3.72s1.92-2.36,2.17-3.89c.19-1.15-.11-2.39.08-3.55.57-3.55-.64-5-4.27-3.89,0-.83,0-1.67-.07-2.5,0-1.46-.5-2.12-1.9-1-3.18,2.62-6.38,5.22-9.57,7.83a34.87,34.87,0,0,1-9.42,1.24c.19-1.11,1.17-1.4,2-1.91a112.41,112.41,0,0,0,16.51-12.36c1.08-1,2-2.09,1.72-3.7-.11-.78.36-1.82-.56-2.26s-1.44.56-2,1.09A90.13,90.13,0,0,1,353.63,699c-4,2.33-8,4.69-12.34,7.18,2.33,1.07,4.53-.27,6.29,1.14-5.72,4.74-12.88,6.11-19.66,8.33-1.43.47-2.46-1-2.86-2.18-.52-1.47.94-1.44,1.92-1.84,3.93-1.58,8.21-2.41,12.06-5.06l-3.76-1.45c.28-1.43,1.59-1.65,2.6-2.2,3.24-1.75,6.51-3.46,9.74-5.24a108.75,108.75,0,0,0,19.15-13.49c1.86-1.63,3.91-3.28,3.72-6.18-.06-.88.46-2.11-.72-2.5-.89-.3-1.4.71-2,1.26a104.59,104.59,0,0,1-26.32,18.69c-4.76,2.3-9.47,4.72-14.88,6.83l4.53,2.82c-2.11,2.46-5.37,2.2-8,3.35-1,.43-1.48-.31-2-1-2.14-3.17,1.4-3.5,2.75-5l-2.79-2.3a7,7,0,0,1,2.82-1.42c16-6.11,30.82-14.22,42.59-27,.93-1,3-2,.56-3.57-1.54-1-2.76-2.41-4.65.12A62.89,62.89,0,0,1,348,681.91a100.3,100.3,0,0,1-28,13.82c-1.3.41-2.56.74-2.63,2.42-1.71,0-2.6-2.14-4.71-1.79,1.11,6.69,4,12.53,7.77,18,1.63,2.4,4.14,4.2,4.9,7.2a29.13,29.13,0,0,1-9.49-3.3c1-1.94-.69-3-1.47-4.29-4.4-7.2-7.5-14.8-8.4-23.2a5.3,5.3,0,0,1,2.39,1.49c.81.64,1.77,1.72,2.78,1s.56-2,.28-3a15.11,15.11,0,0,1-.54-4.23,59.74,59.74,0,0,1,8.55-29.79c.55-.94,1.46-1.76.79-3.58-10.69,10-15.67,21.83-14.46,36.12a12.17,12.17,0,0,1-1.32-.47c-.8-.4-1.26-1.8-2.29-1.28s-.64,1.94-.56,2.92c.37,4.59,1.87,8.92,3.17,13.32,1.08,3.66,3.69,6.79,3.65,10.8a7,7,0,0,1-3.35-2c.17-1.27-.53-2.27-1-3.32-4.1-8.59-6.9-17.46-6-27.15l3.49,3c-.28-11.69,4.11-21.11,10.61-29.92-5.6.15-13.13,13.27-14.19,24.07-1.8,0-2.2-2-4-2.71-.46,7.14-.41,14,1.38,20.76.82,3.06,1.81,6.08,2.72,9.12-3-2.38-5.07-5.48-7.36-8.44,1.43-1,.81-2.23.4-3.47a40.38,40.38,0,0,1-1.62-15.64c.16-2.39.19-5,2.23-6.8,1.47,0,1.36,2,2.85,2.47,1.39-6,3.32-11.43,7.39-16.39-2.28-.1-3.18.65-3.95,1.8-2.08,3.13-4.21,6.21-6.33,9.31-1.15-.5-.63-2.67-2.1-2.53s-1.33,2-1.9,3.08C284.73,675,285.06,681.2,285.16,687.35Zm69.83-50c-2.12-3.71-4.21-5.9-7.59-6.7s-6.82-2.14-10.31-2.66c-11.52-1.74-23-1.33-34.14,2.24-5.35,1.71-10.1,4.74-15.05,7.31a2.13,2.13,0,0,0-1.06,2.82,2.15,2.15,0,0,0,.14.26c.77,1.18,1.68.12,2.49-.18a15.91,15.91,0,0,0,1.6-.8c14.74-7.63,30.28-9.6,46.6-6.86,5.62,1,11,2.72,17.33,4.57Zm-38.08,54.79,1.7-.52a85.67,85.67,0,0,0,23-10.4c6.36-4.14,12.3-8.9,16.9-15.08.73-1,2-2.07.18-3.21-1.5-.91-2.71-.85-4,.7-8,9.56-18.54,15.69-29.69,20.85-2.69,1.24-5.44,2.36-8.16,3.54a2.28,2.28,0,0,0-1.41,2.9h0a1.42,1.42,0,0,0,1.48,1.22Zm-1.63-10.87c-.55,2.94,1.3,2.35,2.94,1.65a112.5,112.5,0,0,0,25.36-14.34c2.6-2,5.52-3.81,7.14-6.89.36-.7,1.29-1.24.58-2.18s-1.66-.82-2.62-.77a3.24,3.24,0,0,0-2.1,1.24c-8.26,8.4-18.35,13.85-29.24,17.94a2.81,2.81,0,0,0-2.06,3.35Zm25.05-25.48a4.07,4.07,0,0,0-2.72,1.15c-5,4.36-10.72,7.45-16.57,10.39-1.36.68-2.77,1.45-3.36,3-.29.8-.57,1.68.18,2.32s1.35.13,2-.19c3.09-1.54,6.28-2.92,9.27-4.65a84.14,84.14,0,0,0,12.53-8.74c.71-.6,1.61-1.25,1.35-2.35s-1.28-.79-2.68-.93Zm-16-46.28a1.24,1.24,0,0,0-.93-1.34c-1-.25-1.52.54-2,1.18-3.13,4-6.22,8-9.33,12.08-.42.54-1.24,1.09-.69,1.79s1.55.43,2.36.29,10.61-13.3,10.62-14Zm9.6,44.64c-7.81-1.18-7.81-1.18-11.23,4.74a1.53,1.53,0,0,0-.19.3c-.23.64-1,1.31-.44,2,.71.86,1.57.2,2.24-.21,3.25-2,6.55-3.79,9.69-6.83Zm-3.1-40.35a1.75,1.75,0,0,0-.67-1.88c-.77-.52-1.35-.06-1.88.44a27,27,0,0,0-6.42,8c-.31.67-1.23,1.47-.32,2.2a2.21,2.21,0,0,0,2.69,0c2.91-2.52,4.24-6.23,6.63-8.76Zm6.35,3.9c-.39-.83-1.06-2-2-1.64-2.46,1-3.69,3.24-4.79,5.46-.37.76.32,1.29,1.17,1.37h.35c1.56.13,5.43-3.68,5.3-5.19Zm8.4,6.69c-1.51-1.23-2.56-2.14-3.67-3-1.44-1.11-2.17.1-2.73,1.06s-.06,1.75,1.14,1.88c1.48.18,2.84,1.26,5.29.09Z"/><path class="cls-12" d="M1469.72,613.12c.12-2.27,1.45-4,2.66-5.74q4.69-6.76,9.53-13.42c6-8.18,16-10,24.28-4.15,12.61,8.8,25.13,17.74,37.69,26.61,1.07.75,2.18,1.45,3.27,2.17,0,.64-.09,1.22-.85,1.31-4.43.51-7.16,3.32-9.57,6.76-5.73,8.2-11.58,16.31-17.38,24.46-.19-1.19-1.11-1.77-2-2.37-4.88-3.35-9.83-6.59-14.62-10q-15.54-11.24-30.92-22.67C1470.89,615.34,1469.24,614.93,1469.72,613.12Z"/><path class="cls-10" d="M780.69,892.18c-1.86-3.17-3.62-6.41-5.6-9.51-5.29-8.3-13.48-11.23-22.75-12-2.37-.2-4.75-.14-7.13-.2-2.66-9-6.15-17.63-9.58-26.32,0-.45-.09-.9-.13-1.35.73-.6,1.5-1.16,2.18-1.81,8.39-8,15.25-17.21,21.45-26.91,2.59-4,5.86-7.86,6.57-12.9,1.21,2.67,2.41,5.33,3.61,8,0,.41.16.73.65.73h-.08c-.11,2,.91,3.65,1.54,5.41a313.31,313.31,0,0,1,11.77,39.84c-2.2,2-4.47,3.93-6.55,6-.88.89-3.07,1.83-1.72,3.25,1.14,1.21,2.1-.85,3-1.59,2-1.55,3.32-3.78,5.72-4.78,2.25,6.83,3,14,4.35,21A70.89,70.89,0,0,0,780.69,892.18Z"/><path class="cls-12" d="M1635.59,682.42c4.29,7.43,3.7,14.49-1.53,21.26-2.18,2.83-4.17,5.79-6.25,8.7-3.69-1.61-7.35-3.28-11.07-4.8-16.15-6.61-31.33-15.07-46.28-24,1.63-2.42,3.26-4.85,4.91-7.26.6-.88,1.2-1.88,2.46-.79-.12,2.4,1.38,3.42,3.44,3.66a4.12,4.12,0,0,0,4.56-2.56c1.64-3.73-.73-6.4-5.56-6.24a3.72,3.72,0,0,1,.28-1.28c4.15-6.18,9.62-11.73,9.26-20,0-.07.18-.14.27-.2l38.93,27.6A31.62,31.62,0,0,1,1635.59,682.42Zm-19,12.26c-2.76,0-5,2.25-4.73,4.64s1.74,4.33,4.41,4.29,4.48-1.49,4.48-4.46-1.86-4.13-4.16-4.46Zm-16.67-3.19c2.16-.24,3.65-1.72,3.65-4.58s-1.7-4.1-4.22-4.33c-2.36-.21-4.83,2.21-4.57,4.45.3,2.6,1.48,4.53,5.14,4.47Z"/><path class="cls-12" d="M1137.21,544c-.2,5.39-3,9.16-6.92,12.14-7.72,5.9-16.45,10-25.17,14.19a2.07,2.07,0,0,1-2.82-.49c-6.41-7.23-12.83-14.44-17.42-23a16.68,16.68,0,0,1-1.94-11.71c1.35-6.27,6-9.88,12.42-9.27a18.1,18.1,0,0,1,13.43,7.26c1.44,1.94,2.39,2.14,4.51.83,7.69-4.75,15.66-3.82,20.74,2.09A13.55,13.55,0,0,1,1137.21,544Z"/><path class="cls-5" d="M994.88,658.8A188.58,188.58,0,0,1,989.16,711a42.47,42.47,0,0,1-4.06,10.24c-2.06,3.69-5,3.69-7.32,0-2.61-4.2-3.92-8.91-4.94-13.67a214,214,0,0,1-5.12-48.66A114.24,114.24,0,0,1,994.88,658.8Z"/><path class="cls-12" d="M824.81,590.86a94.92,94.92,0,0,1-14.56-1.67,40,40,0,0,1-4.16-1c-5.92-1.82-9.74-6.48-9.51-11.5.22-4.79,4.85-9.79,10.87-10.12,5-.27,7.64-1.38,9.22-6.68,1.71-5.72,7.83-8.16,13.36-6.89,5.23,1.21,8.28,5.5,8.05,11.91-.31,8.56-3.3,16.54-5.81,24.6-.41,1.31-1.23,1.51-2.46,1.41C828.15,590.77,826.47,590.86,824.81,590.86Z"/><path class="cls-12" d="M1325.79,568.47c.27-4.45,1.49-8.18,5.42-10.16,4.34-2.2,8.34-.59,12.1,1.84.6.38,1.37.78,1.62,1.37,2.36,5.47,6.25,5.16,11.29,4,5.53-1.28,10.58,2.29,12.39,7.42,1.72,4.87-.06,9.62-5.16,12.79-7.27,4.53-15.54,6.59-23.64,9a1.68,1.68,0,0,1-2.1-.86c-4.56-7.27-9.32-14.45-11.52-22.9A23.64,23.64,0,0,1,1325.79,568.47Z"/><path class="cls-4" d="M1577.83,675.55c-1.26-1.09-1.86-.09-2.46.79-1.65,2.41-3.28,4.84-4.91,7.26-2.85,3.72-6.07,6.83-11.2,6.77-3,.22-5.53-1.78-8.49-1.63-1.49-3.2-4.75-4.45-7.32-6.36-6.44-4.78-13.11-9.23-19.65-13.88a26,26,0,0,1-6.12-6.81c.26-3.57-.22-7.26,1.67-10.57,5.8-8.15,11.65-16.26,17.38-24.46,2.41-3.44,5.14-6.25,9.57-6.76.76-.09.88-.67.85-1.31a147.57,147.57,0,0,1,42.93,30.34c-.09.06-.28.13-.27.2.36,8.27-5.11,13.82-9.26,20a3.72,3.72,0,0,0-.28,1.28c1,1.48,3.66,2.38,2.12,4.85C1581.12,677.31,1579.42,676.42,1577.83,675.55Zm-12,4.69c1.22-1.56,2.5-3.09,3.65-4.71,2.83-4,2.8-4-1-6.79l3.12-4c2.73,2.54,4.72,2.09,6.49-1.23,1.29-2.4,3.19-4.46,4.66-6.76,2.51-3.92,1.87-7.56-2-10.29q-14.1-10.08-28.33-20c-3.55-2.46-7.35-2.11-9.82,1.29-6.36,8.75-12.45,17.69-18.65,26.56-1.85,4.38-1.22,6.89,2.79,9.76q13.62,9.73,27.38,19.33c4.8,3.32,8.88,2.15,11.67-3.16Z"/><path class="cls-12" d="M574.69,534.3c5.08,3.58,7.85-.42,11.28-4.48s9-4.37,13.43-1.78c4.1,2.41,5.88,6.78,4.34,12.13-2.39,8.26-7.51,15.11-12.17,22.16a1.86,1.86,0,0,1-2.51.64c-7.4-2.33-14.76-4.74-21.39-8.91l-.3-.2c-4.5-3.12-6.72-8.32-5.37-12.6S568.34,534.15,574.69,534.3Z"/><path class="cls-13" d="M765.7,801.2c-.71,5-4,8.85-6.57,12.9-6.2,9.7-13.06,18.93-21.45,26.91-.68.65-1.45,1.21-2.18,1.81-3.85-8.55-6.4-17.53-8.79-26.56,4.86-4.53,10.42-8.21,15.26-12.8a158.78,158.78,0,0,0,14.4-15.73c.53-.66,1-1.35,1.9-1.45A103.19,103.19,0,0,1,765.7,801.2Z"/><path class="cls-11" d="M346.79,600.81c1.81-1,3.26.87,5,.62,27.93,21,40,50.08,42.47,84.19,4.82-3.86,5.31-5.16,4.12-10.29-.08-.35,0-.72-.06-1.07-1.52-9.61-3.35-19.16-6.74-28.31-4.53-12.27-10.71-23.58-20-33-1.53-1.55-1.78-3.08.32-4.4a4.83,4.83,0,0,1,3.56,2.11l.85.65h0c.78,2.21,2.87,3.39,4.14,5.21,6.87,9.86,12.71,20.25,16.48,31.74,2.5,7.64,3.61,15.6,5.52,23.37-.54,7.56-3.29,14.35-7.1,20.78a1.26,1.26,0,0,1-1.24-1.26,1.23,1.23,0,0,1,0-.2c.61-3.86-1.29-3.33-3.62-2.11-1.07-1-.76-2.23-.67-3.36a45.68,45.68,0,0,0-.93-11.31c-2.57-15.4-7-30.16-15.56-43.47a90.48,90.48,0,0,0-22-23.91C349.31,605.3,346.5,604.1,346.79,600.81Z"/><path class="cls-12" d="M1009.36,606.09c0-3.62,2.07-7,4.87-8.06a9.92,9.92,0,0,1,10.77,3.76c1.8,2.73,3.28,3.37,6.49,2.34a8.73,8.73,0,0,1,11.06,5.36c1.55,4.12-.13,8.12-4.69,10.69-5.22,2.94-11,4.53-16.67,6.21-.91.27-1.91.58-2.58-.46-3.87-6-7.84-11.94-9.25-19.12A4.33,4.33,0,0,1,1009.36,606.09Z"/><path class="cls-12" d="M1452.88,711.63c.09-3.58,0-7.16.85-10.66,1.15-4.63,4.4-7.74,8.14-7.8a8.83,8.83,0,0,1,8.23,7.25c.65,3.93,1.9,5.94,6.09,6.87,4.41,1,6.73,5.57,6.08,9.7s-3.62,6.7-8.65,7c-6.38.36-12.51-1.33-18.7-2.52-1.35-.26-1.62-1.16-1.66-2.34C1453.16,716.62,1453,714.12,1452.88,711.63Z"/><path class="cls-13" d="M762.36,780.53c2.92,2.3,5.25,5.27,9,6.52,13.69,4.49,26.48,1,33.63-12.73a163.12,163.12,0,0,0,10.88-26.52c.35-1.12.16-2.74,1.88-3.11-2.25,16-4.17,32.17-14.17,45.79a34.2,34.2,0,0,1-8,8.06c-7.69,5.31-15.51,4.87-22.51-1.39-5-4.47-8.06-10.25-10.92-16.16A1,1,0,0,0,762.36,780.53Z"/><path class="cls-14" d="M1519.35,651.12c-1.89,3.31-1.41,7-1.67,10.57l-41.39-29.3c-6.71-4.76-9.29-12.36-6.57-19.27-.48,1.81,1.17,2.22,2.1,2.91q15.4,11.41,30.92,22.67c4.79,3.46,9.74,6.7,14.62,10C1518.24,649.35,1519.16,649.93,1519.35,651.12Z"/><path class="cls-15" d="M381.07,698a14.62,14.62,0,0,0-2,.75c-1.77,1-2.21.28-2.28-1.53-.63-16.84-3.71-33.19-10.69-48.6a94.56,94.56,0,0,0-24.89-33.35c-5.46-4.66-11.54-8.26-17.37-12.29l6.38-1.66c.07,2.13,2,2.61,3.3,3.42a99.47,99.47,0,0,1,22.78,18.65c9.52,10.74,15.7,23.2,19.77,36.77a117.44,117.44,0,0,1,5.15,36.54Z"/><path class="cls-15" d="M346.79,600.81c-.29,3.29,2.52,4.49,4.46,5.94a90.48,90.48,0,0,1,22,23.91c8.6,13.31,13,28.07,15.56,43.47a45.68,45.68,0,0,1,.93,11.31c-.09,1.13-.4,2.41.67,3.36-.05.67-.09,1.34-.14,2a5.15,5.15,0,0,0-2.36,1.53c-.59.5-1,1.54-2,1-.73-.4-.45-1.28-.48-2a133.27,133.27,0,0,0-4.13-27.73c-4.73-18.19-12.91-34.4-26.26-47.81a98.15,98.15,0,0,0-19.74-15.08C339.13,600.24,343,599.89,346.79,600.81Z"/><path class="cls-11" d="M335.3,600.76A97.9,97.9,0,0,1,355,615.84c13.35,13.41,21.53,29.62,26.26,47.81a132.94,132.94,0,0,1,4.17,27.77c0,.68-.25,1.56.48,2,1,.54,1.44-.5,2-1a5.15,5.15,0,0,1,2.36-1.53c1.14,2.57-1.77,5.58.85,8a23.93,23.93,0,0,1-5.62,6.53c0-1.9-.06-3.8-.06-5.71,0-4.52,0-4.52-4.22-3a117.44,117.44,0,0,0-5.15-36.54c-4.07-13.57-10.25-26-19.77-36.77a99.5,99.5,0,0,0-22.77-18.62c-1.32-.81-3.23-1.29-3.3-3.42C331.88,600.81,333.52,600.19,335.3,600.76Z"/><path class="cls-15" d="M371.87,608.56c-2.1,1.32-1.85,2.85-.32,4.4,9.29,9.41,15.47,20.72,20,33,3.39,9.15,5.22,18.7,6.74,28.31.06.35,0,.72.06,1.07,1.19,5.13.7,6.43-4.12,10.29-2.43-34.12-14.54-63.21-42.47-84.21A46,46,0,0,1,371.87,608.56Z"/><path class="cls-16" d="M1619.24,616.49a12.26,12.26,0,0,1,12.32,12.21v.39a12.61,12.61,0,0,1-12.68,12.33,12.82,12.82,0,0,1-12.3-12.85C1606.7,622.08,1612.61,616.42,1619.24,616.49Z"/><path class="cls-12" d="M466.18,707c-.92,10.26,1.11,8.1-7.89,10a44.38,44.38,0,0,1-8.52,1c-4.45,0-7.35-2.22-7.9-5.75-.6-3.9,1.67-7.41,6-8.42,2.44-.57,3.42-1.38,3.62-4,.29-3.89,3.74-7.07,6.87-7.16,3.4-.08,6.49,3,7.13,7.25C465.91,702.53,466,705.27,466.18,707Z"/><path class="cls-5" d="M963.32,659.2c-.13,9.31-1.25,18.45-4.86,27.12-.91,2.17-1.91,4.61-4.86,4.56s-3.78-2.77-4.71-4.78c-2.34-5.1-3.37-10.61-4.11-16.15-.33-2.46-.49-4.94-.72-7.42A90.54,90.54,0,0,1,963.32,659.2Z"/><path class="cls-5" d="M1017.83,662.3a60.91,60.91,0,0,1-3.84,22.6,7.32,7.32,0,0,1-.91,2.29c-1.26,1.49-2.08,3.72-4.48,3.67s-3.34-2-4.23-3.83c-4.35-8.84-5.26-18.32-5.15-28C1005.49,659.78,1011.77,660.42,1017.83,662.3Z"/><path class="cls-5" d="M1090.91,800.11a4.44,4.44,0,0,1,2.68-5.24,86.14,86.14,0,0,1,30.06-8.72c1.72,5.85,3.55,11.67,4.43,17.73-1.4.53-2.78.17-4.18,0-4.31-.67-8.65-1.17-12.94-1.94C1104.32,800.68,1097.59,800.74,1090.91,800.11Z"/><path class="cls-5" d="M839.26,786c9.88,1.54,19.53,3.85,28.59,8.25,2.56,1.25,4.34,2.93,3.93,6.06-3.89.56-7.82.22-11.74.57-8.52.76-16.9,2.45-25.38,3.41A147.39,147.39,0,0,1,839.26,786Z"/><path class="cls-9" d="M1090.91,800.11c6.68.63,13.41.57,20,1.78,4.29.77,8.63,1.27,12.94,1.94,1.4.22,2.78.58,4.18,0a2.55,2.55,0,0,0,1.64,1.26l18.93,4.9,14.66,5.48c7,3.48,14.17,6.66,20.85,10.77.74.45,2.26.81,1.69,1.87-.79,1.45-1.84,0-2.63-.4-5.71-3.15-11.32-6.49-17.45-8.78a80,80,0,0,0-19.46-7.18A67.47,67.47,0,0,0,1129,807a48,48,0,0,0-16.88-2,29.72,29.72,0,0,1-9.81-.74,67,67,0,0,0-16.78-2.35,224,224,0,0,0-28.83,1.54c-10,1.16-20,2.36-29.7,5.43-1.79-.54-3.61,1.52-5.48.17.74-1.94,3.37-.72,3.85-2.72,5.06.23,9.8-1.55,14.68-2.4a223.73,223.73,0,0,1,39-3.58C1083.05,800.36,1087,800.2,1090.91,800.11Z"/><path class="cls-5" d="M834.66,804.28c8.48-1,16.86-2.65,25.38-3.41,3.92-.35,7.85,0,11.74-.57,9.86.28,19.71-.11,29.56.79A283.41,283.41,0,0,1,937.5,807c.41.2.82.4,1.24.58.88.38,2.6.18,2.29,1.47-.36,1.49-1.71.19-2.62.17s-1.81-.1-2.72-.16c-1.15-1-2.61-1.08-4-1.39a205.6,205.6,0,0,0-32.09-4.82c-11.85-.81-23.77-2.14-35.58.5-3,.68-6.18.65-9.21,1-7.06.69-14.16.91-21.07,2.75a157,157,0,0,0-43.1,15l-13.12,6.75L777,828c3-3.3,7.56-4.43,11.14-7a195.66,195.66,0,0,1,45-15.81A5.83,5.83,0,0,0,834.66,804.28Z"/><path class="cls-16" d="M637,499.64c-5,2.08-10,1.72-13.6,5.09s-2.62,8.52-5,12.85c-2.22-4.34-1.52-9.54-5-12.93s-8.61-2.85-13.16-5.24c11.34-.61,17.39-6.33,17.69-17.86,1.81,2.83,2.29,5.55,2.88,8.22.89,4,3.12,6.52,7.23,7.41C630.89,497.77,633.59,498.68,637,499.64Z"/><path class="cls-16" d="M887.34,583.13c4.49-2.87,9.81-2,13.1-5.79,3.06-3.57,2.62-8.5,4.93-13,.48,11.41,6.19,17.47,17.72,17.86-4.4,2.69-9.69,1.94-13.18,5.57s-2.48,8.82-5.39,13.67C903.92,590.23,899.17,583.33,887.34,583.13Z"/><path class="cls-16" d="M1277.44,523.54c.43,11.5,6.48,17.2,18.09,18-11.6.93-17.75,6.61-18.34,18.52-1.3-11-6.1-17.92-18-18,4.34-2.76,9.43-2,12.87-5.4C1275.66,533.19,1274.88,528.05,1277.44,523.54Z"/><path class="cls-15" d="M402.38,671.59c-1.91-7.77-3-15.73-5.52-23.37-3.77-11.49-9.61-21.88-16.48-31.74-1.27-1.82-3.36-3-4.14-5.21,9.17,5.51,15.64,13.5,20.39,22.89C402.6,646,404.83,658.42,402.38,671.59Z"/><path class="cls-3" d="M385.5,705.42a23.89,23.89,0,0,0,5.65-6.61l.56-.42c-.08,2,1.64,2.4,2.83,3.2,2.61,1.77,5.3,3.41,8,5.1a30.86,30.86,0,0,1-18.72.76C384.36,706.77,384.93,706.09,385.5,705.42Z"/><path class="cls-15" d="M320.25,604.3c-6.72,7.54-11.24,17-20.13,22.68a43.47,43.47,0,0,1,10-14.32c1.45-1.35,2.71-2.72,2.24-4.91A26,26,0,0,1,320.25,604.3Z"/><path class="cls-15" d="M301.69,615.17c-3,4.93-5.85,10-9.12,14.71a7,7,0,0,1-5.45,3C290.83,626,295.28,619.78,301.69,615.17Z"/><path class="cls-14" d="M280.3,654.42c1.09-.46,2.22-.84,3.26-1.4,3.6-2,3.59-2,3.81,2.19v1.35c-1.62-.23-2.6.78-3.62,1.8a5.34,5.34,0,0,1-4.08,1.77V658.7c.08-.07.23-.16.22-.2a3.16,3.16,0,0,0-.22-.5,1.49,1.49,0,0,1,.33-1.58.75.75,0,0,0,.18-.59Z"/><path class="cls-14" d="M279.87,667.11c.76-4,4.52-4.75,7.15-6.73a1,1,0,0,1,1.39.25,1.06,1.06,0,0,1,.11.21c.39,1,.55,2.33-.38,3-2.53,1.81-4.47,4.63-8,4.91Z"/><path class="cls-14" d="M391.71,698.42l-.56.42c-2.62-2.41.29-5.42-.85-8,.05-.67.09-1.34.14-2,2.33-1.22,4.23-1.75,3.62,2.11a1.25,1.25,0,0,0,1,1.44l.2,0C394.08,694.42,393.57,696.78,391.71,698.42Z"/><path class="cls-14" d="M282.4,644.42c4.05-1.83,4.05-1.83,4.27,2.24,0,.44-.07.88-.11,1.32-2.36-.51-3.29,2.71-5.67,2.15A10.44,10.44,0,0,1,282.4,644.42Z"/><path class="cls-11" d="M280.15,655.87a.75.75,0,0,1-.18.59.42.42,0,0,1,.13-.57Z"/><path class="cls-15" d="M376.28,611.32l-.85-.65Z"/><path class="cls-15" d="M305.92,611.52l-.79.58Z"/><path class="cls-15" d="M303.78,613.29a.43.43,0,0,1-.34.33l.05-.29Z"/><path class="cls-11" d="M279.63,658a3.16,3.16,0,0,1,.22.5l-.22.2Z"/><path class="cls-17" d="M770,809.88c-.49,0-.62-.32-.65-.73Z"/><path class="cls-11" d="M1480.12,775.82a13.86,13.86,0,0,1,4.39-5.47c4.23-.53,8.31-1.78,12.56-2.32,10.86-1.38,21.32-.25,31.33,4.21,10.83,4.83,19,12.83,25.91,22.27.57.79.89,2.55,2.11,2s.37-2,0-3.09c-8.2-21.11-25.83-30.28-46.56-31.59-5.83-.37-11.58,1-17.4.43,1.29-2.41,3.55-3.62,5.88-4.75,6.73-.17,13.46-.34,20.15.73,17.42,2.8,30.61,11.67,39.3,27.1.45.8.54,2.52,2,1.81,1.29-.62,1-2,.46-3.17-2.29-4.85-4.79-9.61-8.55-13.5-12.43-12.9-28-17-45.35-15.91a5.43,5.43,0,0,1-2.36-.63,20.33,20.33,0,0,1,9.27-4.33,62.2,62.2,0,0,1,12.31,1.57c13.81,3,25.45,9.53,33.66,21.4.63.92.86,2.9,2.12,2.41,1.51-.58.66-2.49.59-3.82a4.19,4.19,0,0,0-.87-1.93c-7.54-10.86-16.57-19.52-30.58-21.1-1.51-.17-3.77.18-4.37-2.21a31.42,31.42,0,0,1,12.43-.91c9.21,2.68,15.93,9,22.84,16.58-.85-5.25-1.5-9.3-2.16-13.36,2-.08,3.56.9,5.12,1.93.67,4.08,1.69,8.13,2,12.24,1.07,16-1.21,31.27-9.28,45.4a88.65,88.65,0,0,1-16.69,20.61c-4.37,4.12-9.25,7.59-14.33,11.72,4.68.82,8.29,1.29,11.88-2.09a174.19,174.19,0,0,0,14.51-14.63,86.77,86.77,0,0,0,13.62-22,67.28,67.28,0,0,0,3.53-43.22c-.51-2.05-.71-4.19-1.06-6.28a9.6,9.6,0,0,1,5,2.74l.74.75h0c.69,5.75,1.87,11.49,2,17.25a72.64,72.64,0,0,1-7.64,34A100.8,100.8,0,0,1,1549,834c-2.25,2.21-4.56,4.37-7,6.71,6.58,2.45,10-1.91,13.08-5.25,9.75-10.55,17.82-22.26,21.93-36.28,2.61-8.91,4.13-18,3-27.3-.54-4.58-.94-9.17-1.41-13.76a8.82,8.82,0,0,1,5,3.72l.64.75h0a42.45,42.45,0,0,0,.2,7.49c1.24,6.92.6,13.75-.62,20.53-2.68,14.89-9.08,28.07-18.35,40-2.33,3-5.86,5.11-7.15,8.85,4.38.58,7.2-1.65,9.88-4.58a80.26,80.26,0,0,0,10.32-14c8.18-14.13,12.36-29.19,10.27-45.7-.28-2.21-1.86-5.21,1.34-7,1.1.89,2.36,1.65,2.71,3.18.81,4.33.13,9.26,4.94,12.42.26-2.22-1.06-4-.48-5.89a51.12,51.12,0,0,1,7.92,18.16c-2.88-2.5-3.25-6.82-6.68-9.46v6.85c-2-.51-2-2.53-2.91-3.81-.35-.47-.67-1.07-1.35-.91s-.62.9-.69,1.47c-.56,4.63,1.9,8,5,12a6.89,6.89,0,0,1,.74-3.84c3.46,1.86,3.07,5.9,4.91,8.69,1,1.43,1.14,3.49,3.49,3.46v7.23c9.18-3.16,15.58-16.53,12.62-26-1.69-5.4-4.76-10.11-7.61-14.93-4-6.78-8.07-13.54-8.65-21.7a22.37,22.37,0,0,1,4.79-15.34c.93-1.25,2.12-2.19,3.62-1.07s1.13,2.46.14,3.77c-5.4,7.14-4.82,14.58-1.23,22.25,3.1,6.6,7.28,12.58,10.65,19,4.69,9,5.48,17.93,0,26.86a40.49,40.49,0,0,1-9.37,10.25c-1.75,1.42-3.66,2.64-5.5,4,1-3.11-.19-5.74-1.65-8.39-1.31-2.38-2.37-4.91-3.72-7.28-.78-1.38-.88-3.84-2.65-3.8s-.72,2.78-2,3.77l-4.88-7.72c-1.77,3.2.38,10.8,3.33,12.1,1.43.63,1.39-.69,1.63-1.54,2.79,1.52,3.08,4.57,4.28,7,.45.93,1,2.11-.44,2.72s-1.91-.65-2.22-1.61c-.45-1.39-1-3.18-2.27-3.34-1.71-.22-1,2.41-2.35,3.09-2.19-1.61-2.51-4.46-4.3-6.41-1.44-1.56-1.83-1.16-2.64.35s-.92,2.77.31,4.17a15.15,15.15,0,0,1,2.75,4.09c1.05,2.64,2.18,2.82,3.87.64,1.37,1.39,2.65,2.94-.16,4a9.89,9.89,0,0,0-6.24,8.79c4.53-2.1,8.66-4.77,13-7.16,2.11-1.17,3.66-3.48,6.41-3.46-.63,2.93-.74,6-2,8.76-.06-1.87-.16-3.56-2.63-1.61a54.8,54.8,0,0,1-4.64,3.22c-6,3.75-11.94,7.46-18.72,9.64.62-2.9,4.18-3.76,4.93-6.91-2-.13-3.41.7-4.92,1.27a95.92,95.92,0,0,1-29.39,6.36c-15.48.75-30.81-.37-45.78-4.93-10.48-3.19-20.79-6.76-30.33-12.22-1.29-.73-3.55-1.23-2.86-3.46.79-2.54,2.87-1.29,4.53-1.13.15,0,.33-.26.61-.49-2.17-8.09-3.7-16.33-3.44-24.84.09-3,1.23-5.84.7-8.85a21.86,21.86,0,0,1,4.24-9.27c2.51,1.2,1.83,3.4,1.45,5.29a78.44,78.44,0,0,0-.58,27.29,41.55,41.55,0,0,0,4.3,13.87c1.06,1.94,3.26,3.15,4.89,2.64,1.89-.59.18-2.66-.1-4-.52-2.55-1.52-5-1.88-7.59-1.73-12.11-3.27-24.27-1.45-36.5.48-3.2.9-5.57-3.51-5C1480.46,776.34,1480.28,776,1480.12,775.82Zm24.63-.65c.12-3.19-1-3.94-3.68-2.89-3,1.18-2.49,4.09-2.58,6.13-.7,17.39-.22,34.7,5,51.51a36.09,36.09,0,0,0,2.08,5.31c1.15,2.33,3.81,2.43,5.56,2.08,1.31-.26-.05-2.43-.49-3.64a132.18,132.18,0,0,1-4.41-15.74,116.92,116.92,0,0,1-2.65-27.54C1503.63,785.26,1503.4,779.93,1504.75,775.17Zm3.5,14.44c.3,5.93.3,9.94.69,14a110.47,110.47,0,0,0,7.37,31.74c.58,1.42.83,3.73,3.23,2.73,2.11-.88,4-2.15,2.45-5.13a52.83,52.83,0,0,1-3.64-8.13c-5.31-15.88-7.12-32.1-4.38-48.71.26-1.61.33-3.22-1.89-3.5s-3,.8-3,2.91C1509.13,780.85,1507.77,786.14,1508.25,789.61Zm9.4,1a117.82,117.82,0,0,0,.66,13.54c1.2,9.13,3.34,17.93,7.53,26.16.51,1,.85,3.06,2.66,1.76,1.31-1,3.51-1.58,2.14-4.37-7-14.26-7.57-29.71-7.89-45.16,0-1.87.51-3.75.6-5.64.11-2.18-1.8-2.41-3.22-2.61-1.7-.24-1.7,1.29-1.72,2.48-.06,5-1.32,10-.76,13.87Zm-23.26-15.89c.45-1.23-.38-1.61-1.71-1.34-2,.4-3.67,1.22-3.61,3.65s-.54,5-.68,7.41a132.23,132.23,0,0,0,5,45.37,4.47,4.47,0,0,0,3.29,3.42c.86.2,1.81,1.15,2.64.38s0-1.79-.31-2.63c-3.88-12.06-5.16-24.52-5.67-37.08-.21-6.24-.34-12.56,1.05-19.15Zm39,7.91a4.79,4.79,0,0,0,0-1.07,4.67,4.67,0,0,0-4.79-3.54c-1.59,0-.8,2.38-.82,3.67-.11,7-.31,14,.71,21s2,14.34,5.47,20.86c.49.93.51,3.1,2.44,2.06,1.29-.68,2.4-1.77,1.73-3.79a95.35,95.35,0,0,1-4.76-39.16Zm4.49,1.62c-.56,11,.1,21.48,3.29,31.68.33,1.08.37,2.84,1.71,2.75,1.7-.11,2.29-1.9,2.65-3.4a4.86,4.86,0,0,0-.31-2.07,130.69,130.69,0,0,1-3.1-23.87c-.12-2.67-1.56-4-4.26-5.06Zm9.15,12.22c.6,3.61,1.19,7.44,1.91,11.25.13.65,0,1.86,1.3,1.72s4-6.69,3.27-7.83c-1.38-2-2.84-4-4.25-6.07-.4-.56-.68-1.39-1.55-1.13s-.53,1.22-.71,2.09Zm37.07,25.47a2.39,2.39,0,0,0-1.84,2.52,8.88,8.88,0,0,0,3.4,5.88,1.86,1.86,0,0,0,2.52-.62,1.78,1.78,0,0,0,.06-2c-1.13-2.12-2-4.47-4.16-5.75Zm-10.44,13.63.37.61c1.94-.67,3.88-1.32,5.81-2,.78-.3,1.58-.79,1.31-1.8a3.29,3.29,0,0,0-1.54-2.27,1.66,1.66,0,0,0-2.18.6c-1.31,1.6-2.53,3.26-3.79,4.89Z"/><path class="cls-14" d="M1598,850.12a65,65,0,0,1-23,23.43c-4.91,1.11-9.8,2.37-14.74,3.3-13.52,2.56-27,2-40.57-.1-7-1.09-13.75-3.4-20.73-4.63a64.53,64.53,0,0,1-22.16-24.37c3.1-.19,5.48,2.52,8.63,2.13a61.53,61.53,0,0,0,9.29,5c.06.8.55,1.12,1.24,1.52a62.83,62.83,0,0,0,26.83,8.34c6.36.51,13,1.14,19.22-1.31,3.82-.64,7.76-.7,11.44-2.11a2.07,2.07,0,0,0,2.25.7c5.55-1,11.16-1.85,16.51-3.66,7.51-2.53,14.9-5.38,21.63-9.68C1595.74,847.5,1597.51,847.14,1598,850.12Z"/><path class="cls-18" d="M1340.16,866.42c1.64.26,3-.52,4.41-1.19,15.33-7.28,29.85-15.81,42.79-27,14.83-12.77,26.09-27.94,32.64-46.47a112.89,112.89,0,0,0,4.36-18.31c.62,25-4.13,48.43-20.53,68.34A85.29,85.29,0,0,1,1390,855.15c-1,.73-2,1.31-2.31,2.58a4.14,4.14,0,0,0-2.28.87c-10.42,6.76-21.81,11.24-33.71,14.67-2.73.78-6.37-.09-8.14,3.26-1.39-1.46-3-.83-4.69-.64-2.24.27-4.38,1.62-6.83.91.48-3.32,4.76-4.06,4.53-7.54,1.3-.23,1.78-1.56,2.84-2.12l.76-.73Z"/><path class="cls-14" d="M1559.26,690.42c5.13.06,8.35-3,11.2-6.77,15,8.92,30.13,17.38,46.28,24,3.72,1.52,7.38,3.19,11.07,4.8-1,1.57-2,3.22-3.16,4.71-5.53,7-15.28,9-22.68,4-14.13-9.63-28-19.64-42-29.52A7.7,7.7,0,0,1,1559.26,690.42Z"/><path class="cls-15" d="M1473.23,789.62c.53,3-.61,5.88-.7,8.85-.26,8.51,1.27,16.75,3.44,24.84-.28.23-.46.51-.61.49-1.66-.16-3.74-1.41-4.53,1.13-.69,2.23,1.57,2.73,2.86,3.46,9.54,5.46,19.85,9,30.33,12.22,15,4.56,30.3,5.68,45.78,4.93a95.92,95.92,0,0,0,29.39-6.36c1.51-.57,3-1.4,4.92-1.27-.75,3.15-4.31,4-4.93,6.91L1575,847a15,15,0,0,0-2.09.35A92.44,92.44,0,0,1,1549.6,852a127.89,127.89,0,0,1-42.25-4.37c-11-3.1-21.68-6.88-31.62-12.57a8.26,8.26,0,0,0-4.47-.89C1466.92,819.07,1467.26,804.22,1473.23,789.62Z"/><path class="cls-11" d="M1471.26,834.12a8.26,8.26,0,0,1,4.47.89c9.94,5.69,20.64,9.47,31.62,12.57A127.89,127.89,0,0,0,1549.6,852a92.44,92.44,0,0,0,23.29-4.57A15,15,0,0,1,1575,847c-.14,2.89-3.61,3.11-4.72,5.74,5.91-1,10.88-3.51,16-5.64,6.37-2.65,11.92-6.72,17.84-10.14a46.22,46.22,0,0,1-6.1,13.13c-.5-3-2.27-2.62-4.13-1.43-6.73,4.3-14.12,7.15-21.63,9.68-5.35,1.81-11,2.67-16.51,3.66a2.07,2.07,0,0,1-2.25-.7c3.77-2.48,8.42-3.42,11.86-6.78-29.78,5.91-57.94.17-85.28-11.75-.09.28-.19.55-.28.82l5.68,6.26c-3.15.39-5.53-2.32-8.63-2.13C1474.37,843.42,1472.13,839.07,1471.26,834.12Z"/><path class="cls-15" d="M1568.53,751.87c.35,2.09.55,4.23,1.06,6.28a67.28,67.28,0,0,1-3.53,43.22,86.77,86.77,0,0,1-13.62,22,174.91,174.91,0,0,1-14.51,14.69c-3.59,3.38-7.2,2.91-11.88,2.09,5.08-4.13,10-7.6,14.33-11.72A88.82,88.82,0,0,0,1557,807.77c8.07-14.13,10.35-29.45,9.28-45.4-.28-4.11-1.3-8.16-2-12.24Z"/><path class="cls-15" d="M1578.63,758.1c.47,4.59.87,9.18,1.41,13.76,1.09,9.34-.43,18.39-3,27.3-4.11,14-12.18,25.73-21.93,36.28-3.1,3.34-6.5,7.7-13.08,5.25,2.45-2.34,4.76-4.5,7-6.71a100.9,100.9,0,0,0,19.65-27.37,72.64,72.64,0,0,0,7.64-34c-.12-5.76-1.3-11.5-2-17.25A9.26,9.26,0,0,1,1578.63,758.1Z"/><path class="cls-15" d="M1492.42,762.22c5.82.61,11.57-.8,17.4-.43,20.73,1.31,38.36,10.48,46.56,31.59.41,1.06,1.41,2.44,0,3.09s-1.54-1.17-2.11-2c-6.91-9.44-15.08-17.44-25.91-22.27-10-4.46-20.47-5.59-31.33-4.21-4.25.54-8.33,1.79-12.56,2.32,1.9-3.11,4.61-5.49,7.33-7.84l.47.34.13-.55Z"/><path class="cls-15" d="M1590.13,768.18c-3.2,1.76-1.62,4.76-1.34,7,2.09,16.51-2.09,31.57-10.27,45.7a80.26,80.26,0,0,1-10.32,14c-2.68,2.93-5.5,5.16-9.88,4.58,1.29-3.74,4.82-5.85,7.15-8.85,9.27-11.94,15.67-25.12,18.35-40,1.22-6.78,1.86-13.61.62-20.53-.44-2.43-.15-5-.2-7.49C1586.58,764.06,1588.28,766.2,1590.13,768.18Z"/><path class="cls-10" d="M1343.51,876.53c1.77-3.35,5.41-2.48,8.14-3.26,11.9-3.43,23.29-7.91,33.71-14.67a4.14,4.14,0,0,1,2.28-.87A136.85,136.85,0,0,1,1393,875.1c-5.58-2.37-11.19-4.48-17.41-4.46-14.23.06-24.35,7.17-29.17,20.59-.55,1.53-.68,3.28-2,4.47l-.3-2.06-.27-.93-.21-2.71Q1343.56,883.27,1343.51,876.53Z"/><path class="cls-11" d="M1499,872.12c7,1.23,13.71,3.54,20.73,4.63,13.53,2.09,27,2.66,40.57.1,4.94-.93,9.83-2.19,14.74-3.3a63,63,0,0,1-30.74,10.53,69.11,69.11,0,0,1-43.36-10.42A20.81,20.81,0,0,1,1499,872.12Z"/><path class="cls-15" d="M1480.12,775.82c.16.18.34.52.47.51,4.41-.57,4,1.8,3.51,5-1.82,12.23-.28,24.39,1.45,36.5.36,2.57,1.36,5,1.88,7.59.28,1.36,2,3.43.1,4-1.63.51-3.83-.7-4.89-2.64a41.55,41.55,0,0,1-4.3-13.87,78.44,78.44,0,0,1,.58-27.29c.38-1.89,1.06-4.09-1.45-5.29Z"/><path class="cls-15" d="M1504,753.9a5.43,5.43,0,0,0,2.36.63c17.37-1.14,32.92,3,45.35,15.91,3.76,3.89,6.26,8.65,8.55,13.5.54,1.14.83,2.55-.46,3.17-1.48.71-1.57-1-2-1.81-8.69-15.43-21.88-24.3-39.3-27.1-6.69-1.07-13.42-.9-20.15-.73A21.51,21.51,0,0,1,1504,753.9Z"/><path class="cls-15" d="M1526.1,745.89c.6,2.39,2.86,2,4.37,2.21,14,1.58,23,10.24,30.58,21.1a4.19,4.19,0,0,1,.87,1.93c.07,1.33.92,3.24-.59,3.82-1.26.49-1.49-1.49-2.12-2.41-8.21-11.87-19.85-18.39-33.66-21.4a62.2,62.2,0,0,0-12.31-1.57C1517.31,747.6,1521.71,746.73,1526.1,745.89Z"/><path class="cls-19" d="M1626.61,885.81c0,4.51-2.82,7.54-7.11,7.64-4,.08-7.84-3.52-7.81-7.24a7.59,7.59,0,0,1,7.48-7.7h.14a6.88,6.88,0,0,1,7.3,6.43A6.31,6.31,0,0,1,1626.61,885.81Z"/><path class="cls-14" d="M1604.08,837c-5.92,3.42-11.47,7.49-17.84,10.14-5.1,2.13-10.07,4.63-16,5.64,1.11-2.63,4.58-2.85,4.72-5.74l4.2-2.21c6.78-2.18,12.76-5.89,18.72-9.64a54.8,54.8,0,0,0,4.64-3.22c2.47-2,2.57-.26,2.63,1.61A5.08,5.08,0,0,1,1604.08,837Z"/><path class="cls-19" d="M1516.91,717.3c.85,6.76,4.72,9.83,11.21,10.67-6.88.53-10.49,4-11.2,10.94-.82-6.81-4.16-10.57-11.35-11C1512.39,727.32,1515.9,723.89,1516.91,717.3Z"/><path class="cls-19" d="M1453.71,876.68c-.82-6.7-4.12-10.41-11.82-10.43,3.22-2.13,6.22-1.68,8.33-3.48,2.3-2,1.83-5.07,3.72-8.22.9,6.59,3.67,10.81,10.8,11C1457.73,866.28,1454.44,870,1453.71,876.68Z"/><path class="cls-15" d="M1559.21,748.2c.66,4.06,1.31,8.11,2.16,13.36-6.91-7.56-13.63-13.9-22.84-16.58A56.21,56.21,0,0,1,1559.21,748.2Z"/><path class="cls-14" d="M1607.71,810.5c-2.35,0-2.54-2-3.49-3.46-1.84-2.79-1.45-6.83-4.91-8.69a13.18,13.18,0,0,0-.77-4.94v-6.82c3.43,2.64,3.8,7,6.68,9.46h0a1.3,1.3,0,0,0,.47,1.54,26.83,26.83,0,0,1,1.68,9l.38,1Z"/><path class="cls-15" d="M1597.3,777.89c-.58,1.89.74,3.67.48,5.89-4.81-3.16-4.13-8.09-4.94-12.42A32,32,0,0,1,1597.3,777.89Z"/><path class="cls-11" d="M1605.66,797.61a1.3,1.3,0,0,1-.47-1.54A1.5,1.5,0,0,1,1605.66,797.61Z"/><path class="cls-11" d="M1607.72,807.62l-.38-1Z"/><path class="cls-15" d="M1574.32,755.36l-.74-.75Z"/><path class="cls-15" d="M1584.23,762.57l-.64-.75Z"/><path class="cls-11" d="M1492.44,762.3l-.13.55-.47-.34Z"/><path class="cls-12" d="M351.76,854.88c-18.07-11.09-35.91-22.48-49.93-38.79a27.71,27.71,0,0,1-5.5-9.12c-1.28-3.81.59-6.83,4.59-7a4.74,4.74,0,0,0,4.05-2.26q14-18,28.12-36c2.44,3.5,4.83,7,8.11,9.87a268.31,268.31,0,0,0,32.87,23.79c13.39,8.4,27.11,16.29,41.19,23.51,17.36,8.91,34.83,17.61,53.36,24a9.24,9.24,0,0,1,2.05,1.33c-2.31,3.23-5.89,4.84-9.19,6.55-11.79,6.11-24.75,7.43-37.67,7.47-7.25,0-14.7-.2-21.91-1.9,1.23-5.31-1.89-9.89-2.53-14.9-.59-4.71-4.25-6.35-8.77-4.65-2.22.83-4.37,1.86-6.61,2.61-2.9,1-6.3,1.2-7.25,4.87-1,3.87,2.42,5.26,4.48,7.39-2.06,1.14-4,.11-6-.28-4.06-.78-7.76-3.06-12-2.92h0c-.47-.75-1-.78-1.44,0-18.89-11.4-36.49-24.44-51.65-40.68a6,6,0,0,0,1.53,4.51,107.39,107.39,0,0,0,21.44,21.09c8.74,6.51,18.13,12,27.26,17.91a5.57,5.57,0,0,1-4.21,2.86C354.69,854.42,353.06,853.63,351.76,854.88Zm48.79-30c0-2.07.06-4.26-2.22-5.16s-3.7,1-5.05,2.42a10.5,10.5,0,0,0-2.89,6c-.25,2.25.42,4,2.62,4.88a4.42,4.42,0,0,0,5.4-1.5,10.26,10.26,0,0,0,2.14-6.68Zm-12.92,5.47a12.19,12.19,0,0,0-1-4.84c-.69-1.7-1.76-3.27-3.77-3.34-2.18-.08-2.92,1.77-3.55,3.43a13,13,0,0,0-.94,4.85c.09,3.82,1.8,6,4.65,5.89s4.66-2.45,4.61-6Zm24.29,10.74c-2.74.09-5.14.63-7.06,2.41-1.55,1.44-2.64,3.16-1.69,5.35,1,2.35,3.11,2.74,5.37,2.38a10.67,10.67,0,0,0,6-3.55c1.31-1.35,2.23-2.91,1.47-4.78s-2.64-1.75-4.09-1.85Zm.17-11.12c-.08-1.42-.43-3-2.71-3-3.57-.08-8.78,4.65-8.75,8.08,0,2.59,1.66,3.85,4.07,4,3.3.25,7.3-4.51,7.39-9.12Zm-103.73-23.3c.66.08,1-.19.86-.54a1.78,1.78,0,0,0-.78-1,.54.54,0,0,0-.74.19.52.52,0,0,0,0,.47C307.76,806.18,308.19,806.47,308.36,806.67Z"/><path class="cls-14" d="M363.21,848.47c4.27-.14,8,2.14,12,2.92,2,.39,3.92,1.42,6,.28,4.12,2.06,8.19,4.24,12.39,6.15,3,1.36,6,1.59,8.29-1.47,7.21,1.7,14.66,1.92,21.91,1.9,12.92,0,25.88-1.36,37.67-7.47,3.3-1.71,6.88-3.32,9.19-6.55,2.2,0,4.06,1.16,6.12,1.63,5.91,1.35,11.69,3.9,18,2-4.79,14.22-9.55,28.45-14.42,42.64-.77,2.25-1.29,3.78,1.67,4.86,2.24.81,2.74,3.13,2.5,5.44a5.36,5.36,0,0,1-4.14,4.83c-5.57,1.69-11.15.77-16.65-.22-15.84-2.84-30.68-8.78-45.31-15.25a613.63,613.63,0,0,1-64.93-34,21,21,0,0,1-1.71-1.27c1.3-1.25,2.93-.44,4.39-.7a5.57,5.57,0,0,0,4.21-2.86,10.78,10.78,0,0,1,2,.7,572,572,0,0,0,56.41,28.52c14.42,6.3,29.16,11.7,44.75,14.21,3.65.58,7.65,1.78,11.82-.25-14.46-1.27-27.83-5.21-40.89-10.41-21.88-8.68-42.48-20-63.48-30.45C368.25,852.28,365.19,851.09,363.21,848.47Z"/><path class="cls-10" d="M588.71,880c-1.28.13-1.85-.91-2.64-1.59-11.37-9.93-29.38-10.36-41.22-1.1-2,1.58-2.65,4.25-4.86,5.6,2.25-10.73,5.6-21.17,8.79-31.63,3.76-12.29,7.35-24.63,12-36.63a153.67,153.67,0,0,0,20.35,22.82c3.31,3,6.22,6.54,10.55,8.22l.33,1.62A221.35,221.35,0,0,1,588.71,880Z"/><path class="cls-15" d="M494.75,847.83c-6.27,1.93-12.05-.62-18-2-2.06-.47-3.92-1.67-6.12-1.63a9.24,9.24,0,0,0-2.05-1.33c-18.53-6.34-36-15-53.36-24-14.08-7.22-27.8-15.11-41.19-23.51a267.18,267.18,0,0,1-32.87-23.78c-3.28-2.82-5.67-6.37-8.11-9.87.83-2.5,2.8-2.93,5.12-2.93,7.56,0,14.61,2.4,21.47,5,43.72,16.9,84.79,38.71,122.38,66.85a52.12,52.12,0,0,1,11.34,10.85C494.76,843.47,496,845.42,494.75,847.83Zm-147.94-84c-1.07.44-2.63-.52-3.27.77-.74,1.51.57,2.64,1.49,3.71a22.6,22.6,0,0,0,1.75,1.78c10.72,10,23.23,17.37,35.64,24.86a648,648,0,0,0,68.27,35.92c10,4.5,20,8.9,30.77,11.3,1.72.38,3.6,1,4.54-.68s-.74-3-1.84-4.22a58.18,58.18,0,0,0-8.91-7.67c-10.44-7.51-21.3-14.36-32.37-20.91-24.51-14.49-49.69-27.65-76-38.54-6.47-2.66-13-5.29-20.07-6.3Z"/><path class="cls-13" d="M487.26,747.57c2.33,5.57,4.57,11.17,7,16.68,5.77,13,12.53,25.46,22.73,35.56,7.32,7.25,16.12,12.05,26.7,12.81,3.1.23,6.09-1.17,9.22-.66-2.91,7.46-7.24,13.46-15.91,14.61-5.37.73-10.07-1.29-14.39-4.22a51.22,51.22,0,0,1-17-19.84A214,214,0,0,1,487.26,747.57Z"/><path class="cls-14" d="M372.6,701c3.63-1.12,4.84.34,4.27,3.89-.19,1.16.11,2.4-.08,3.55-.25,1.53,0,3.65-2.17,3.89s-2.42-1.64-2.59-3.72c-8.2,7.39-17.55,11.72-27.39,15.14a45.59,45.59,0,0,1-19.36-2.16c-.76-3-3.27-4.8-4.9-7.2-3.76-5.52-6.66-11.36-7.77-18,2.11-.35,3,1.74,4.71,1.79.83,1.36,1.9,2.3,3.64,2l2.79,2.3c-1.35,1.51-4.89,1.84-2.75,5,.49.73,1,1.47,2,1,2.66-1.15,5.92-.89,8-3.35h4.17l3.76,1.45c-3.85,2.65-8.13,3.48-12.06,5.06-1,.4-2.44.37-1.92,1.84.4,1.15,1.43,2.65,2.86,2.18,6.78-2.22,13.94-3.59,19.66-8.33l4.17-.77a34.87,34.87,0,0,0,9.42-1.24C365.13,704.48,369.54,704.52,372.6,701Z"/><path class="cls-13" d="M591.68,845.59c-4.33-1.68-7.24-5.27-10.55-8.22a153.06,153.06,0,0,1-20.39-22.77c.27-2.76,1.44-5.25,2.37-7.81,3.43,2.52,6.87,5,10.27,7.56,5.71,4.29,12.09,7.49,18.11,11.28Q591.58,835.61,591.68,845.59Z"/><path class="cls-19" d="M429.64,764.05c-1.06-8.62-5.37-13.22-14.29-13.67,9-.81,13.54-5.25,14.14-14.2.87,9,5.42,13.51,14.48,14C435.65,751.22,430.12,754.74,429.64,764.05Z"/><path class="cls-14" d="M298.08,681.59c-.88,9.69,1.92,18.56,6,27.15.5,1,1.2,2,1,3.32A20.89,20.89,0,0,1,298,706c-.91-3-1.9-6.06-2.72-9.12-1.79-6.76-1.84-13.62-1.38-20.76,1.84.75,2.24,2.76,4,2.71Z"/><path class="cls-14" d="M308.48,714.11c0-4-2.57-7.14-3.65-10.8-1.3-4.4-2.8-8.73-3.17-13.32-.08-1-.58-2.34.56-2.92s1.49.88,2.29,1.28a12.17,12.17,0,0,0,1.32.47l.21,2c.86,8.4,4,16,8.28,23.17.78,1.29,2.49,2.35,1.47,4.29a15.43,15.43,0,0,1-5.6-3c-.27-.22-.55-.43-.83-.64h.05a.7.7,0,0,0-.75-.65l-.11,0Z"/><path class="cls-14" d="M291.75,671.57c-2,1.84-2.07,4.41-2.23,6.8a40.36,40.36,0,0,0,1.57,15.68c.41,1.24,1,2.46-.4,3.47-2.32-3.13-4.49-6.34-5.53-10.17-.1-6.15-.43-12.33,2.55-18,.57-1.09.3-2.92,1.9-3.08s.95,2,2.1,2.53C291.72,669.7,291.73,670.63,291.75,671.57Z"/><path class="cls-11" d="M308.55,714.1a.69.69,0,0,1,.84.52.36.36,0,0,1,0,.11Z"/><path class="cls-11" d="M309.36,714.68c.28.21.56.42.83.64Z"/><path class="cls-20" d="M591.68,845.59q-.09-10-.19-20c4.41.9,8.12,3.6,12.36,4.94,1,.31,1.9,1.22,2.86,0,2.14,2.06,4.83,2.86,7.63,3.55a163.1,163.1,0,0,0,24.8,4.51,136.9,136.9,0,0,0,34.43-1.38,134.12,134.12,0,0,0,44.67-16.08c3-1.33,5.23-4,8.47-4.92,2.39,9,4.94,18,8.79,26.56a12.33,12.33,0,0,0,.13,1.35c-3.23,1.2-5.24,4-7.75,6.08-14.28,11.9-30.09,20.39-48.81,22.61-26.18,3.1-50.31-2.91-72.69-16.51-4.85-2.95-9.59-6.09-14.37-9.14Z"/><path class="cls-8" d="M1108.6,857c-1.62-.23-2.66,1-3.8,1.73a323.67,323.67,0,0,1-47,26.94c-16.13,7.44-32.92,12.87-50.65,15.15a195.08,195.08,0,0,1-27,2,181.58,181.58,0,0,1-66.94-13.61c-19.27-7.83-37-18.42-54.26-30-1.47-1-2.87-2.16-4.7-2.47-.26-1.27-1.28-1.86-2.17-2.62-2.29-2-4.75-3.73-6.54-6.21,4.29-2.62,9-4.23,13.7-5.9a208.64,208.64,0,0,1,54.94-11.43c5.49-.42,11-1.38,16.6-.35,1,5.41,3,10.27,7.51,13.8a33.9,33.9,0,0,0,15.34,6.48,160.17,160.17,0,0,0,53.77.33c12.06-2,22.33-6.69,24.65-20.6a212.12,212.12,0,0,1,57.79,8.48c9.16,2.61,18.28,5.41,26.71,10-.9.93-1.88,1.79-2.68,2.79C1112.32,853.6,1109.31,854.18,1108.6,857Z"/><path class="cls-18" d="M854,857.74c.09-.28.17-.56.25-.85A8.74,8.74,0,0,1,854,857.74Z"/><path class="cls-9" d="M831.44,854.89a95.82,95.82,0,0,0-20.37,14.32c-4.87,3.44-8.84,7.85-13,12.07-.67.68-1.4,2.11-2.51,1-.87-.9.35-1.69,1-2.31,3.34-3.36,6.72-6.67,10.09-10,7.16-5.72,14.64-11,22.27-16.08,5-2.53,10.17-4.76,14.84-7.9,5.22-2,10.41-4.09,15.67-5.94,23-8.11,46.86-11.43,71.15-12.12,1.93.9,4.34-.3,6.57,1.4-2.24,1.36-4.53-.16-6.33,1-5.55-1-11.11-.07-16.6.35a208.64,208.64,0,0,0-54.94,11.43c-4.68,1.67-9.41,3.28-13.7,5.9C840.37,849.31,836,852.23,831.44,854.89Z"/><path class="cls-10" d="M1158,869.66a189.86,189.86,0,0,1,6.42-22.82c4.18,2.1,7.62,5.25,11.38,8,4.3,3.1,7.61,7.43,12.33,10,1.53.92,1.63,3.29,3.7,3.67l-.36,2a36.56,36.56,0,0,0-19.73,5.11c-2.57.39-3.36-2.34-5.33-3C1163.59,871.68,1160.79,870.66,1158,869.66Z"/><path class="cls-9" d="M1118.57,847.06a202.37,202.37,0,0,1,36.54,22.72c4.1,4,8.23,7.91,12.26,12,.64.65,2.18,1.58,1.07,2.58s-1.78-.66-2.44-1.33c-4.89-4.89-9.64-9.92-15.37-13.87a117.74,117.74,0,0,0-34.06-20.27c-8.42-4.61-17.54-7.41-26.7-10a212.12,212.12,0,0,0-57.79-8.48c-1.81-1-4.11.29-6.56-1.32,2.54-1.13,4.6-.43,6.48-.83a241.83,241.83,0,0,1,43.16,5A227.11,227.11,0,0,1,1118.57,847.06Z"/><path class="cls-20" d="M1191.46,870.55l.36-2q3.56-7.5,7.1-15c5.42,2.87,10.8,5.81,16.27,8.58a26.59,26.59,0,0,0,4.71,1.41c.2.2.39.41.58.61l.8.82a3.44,3.44,0,0,1,1.06.1c13.14,5.42,26.79,8.77,40.81,11.06,11.53,1.89,23.15,2.07,34.72,3.17,10,1,18.75-3.55,27.87-6.43,3.61-1.14,7-3,10.78-3.55.23,3.48-4,4.22-4.53,7.54,2.45.71,4.59-.64,6.83-.91,1.64-.19,3.3-.82,4.69.64q.08,6.74.14,13.47c-3.3.6-5.64,3-8.32,4.67a119.5,119.5,0,0,1-47.1,17.37c-21.15,2.93-41.15-.44-59.54-11.77-2.71-1.68-5.58-3.1-8.38-4.63-2-3.71-3-7.89-5.17-11.59C1209.73,875,1201.35,871.54,1191.46,870.55Z"/><path class="cls-20" d="M1343.86,892.71l.27.93Z"/><path class="cls-4" d="M1336.52,869.26c-3.78.6-7.17,2.41-10.78,3.55-9.12,2.88-17.83,7.4-27.87,6.43-11.57-1.1-23.19-1.28-34.72-3.17-14-2.29-27.67-5.64-40.81-11.06a3.44,3.44,0,0,0-1.06-.1l-.8-.82c-.19-.2-.38-.41-.58-.61.16-2.42-1.41-4.24-2.28-6.28-9.48-22.22-10.76-44.84-3.61-68,6.71-21.72,20.68-38.21,37.54-52.69,7.58-6.5,15.55-12.65,22-20.37,5.17-6.23,7.92-13.79,9.85-21.6a121.35,121.35,0,0,0,3.07-22.92,85.07,85.07,0,0,1,1.54-12c1-5.13,3.88-6.79,10.55-6.64,5.29.11,8.93,3,10,7.4,1.46,5.8-.23,11.33-1.12,16.92-2,12.88-3.43,25.69,1.07,38.42,2.56,7.26,7.31,13.08,12,18.87,10.83,13.35,21.11,27,27.64,43.09a97.19,97.19,0,0,1,6.32,25.52,95.12,95.12,0,0,1-3.6,38.42,104.49,104.49,0,0,1-9.23,21.23c-.63,1.13-1.6,2.1-1.5,3.53h0l-.76.73C1338.3,867.7,1337.82,869,1336.52,869.26ZM1300,826c8.08-3.26,14.24-8.52,17.53-16.78a25.39,25.39,0,0,0,14.88-12.59c.75-1.44,2.75-3.39.5-4.6s-2.41,1.63-3.2,2.89c-3.32,5.29-7.07,10.31-13.86,10.67a38.85,38.85,0,0,1-22.62-5.42c-4.8-2.93-7.29-7.06-6.44-12.88.44-2.82.74-5.67.9-8.52.09-1.87,1-2.26,2.61-2.54,9.46-1.62,15.85-7.34,20-15.69,2.48-5,1.54-9.4-2.32-13.43-8.49-8.86-27.09-10.79-37.25-3.88-4.73,3.23-6.49,7.45-5.11,13,1.76,7.12,5.33,13.87,11.9,16.65,7,3,6.8,7,6.17,13.07-.7,6.6-3.65,10.62-9.69,12.68s-12.37,2-18.74,1.47c-6.09-.55-10.22-3.63-13-8.78a58.29,58.29,0,0,1-2.74-6.59c-.43-1.1-.61-2.59-2.24-2.16s-1.25,1.89-.92,3c2.41,8,6.23,14.75,15,17.25.55,1.44,1,2.92,1.69,4.3,2.46,5,4.48,10.22,9,13.87a46.29,46.29,0,0,0,2.41,24.16c4.45,11.44,18.6,14,25.88,4.69C1295.73,842.79,1298.48,834.61,1300,826Z"/><path class="cls-4" d="M1372.84,642.68c5-4.16,10.17-7.69,14.93-11.82,5.36-4.64,9.29-10.46,13.9-15.72,4.9-5.58,9-12,16.47-14.92,6.36-2.51,11.78-.43,14.1,6,3,8.29,2.94,16.9,2.1,25.44-1.42,14.4-5.65,28.18-10.72,41.67a265.82,265.82,0,0,1-13.42,29.22c-.35.67-.51,1.93-1.53,1.62-.6-.18-1-1.21-1.38-1.94-5.18-10.74-10.63-21.35-17.7-31-1.67-2.28-2.32-3.9-.13-6.3a10.81,10.81,0,0,0,2.9-6.78c.12-2.48-.57-4.23-3.37-4.49-1-.09-2.38,0-2.73-1.22s1-1.41,1.7-2a1.55,1.55,0,0,0,.27-.24c1.73-2.22,4.64-4.5,3.7-7.29s-4.42-1.17-6.77-1.35C1381,641.21,1377,642.69,1372.84,642.68Z"/><path class="cls-4" d="M1223.34,634.42c-5-.67-9.29-3.58-14.34-4-1.3-.1-2.68-.7-3.69.45s-.64,2.73,0,4c1.32,2.5,2.75,4.94,4.11,7.38-.28.62-.73.45-1.2.38-4.69-.78-7.56,1.81-6.07,6.26,1.37,4.11-.07,6.34-2.72,9.22a168.14,168.14,0,0,0-20.07,26.31c-.72,1.19-1.52,2.34-2.72,4.18-1.45-4.31-2.84-7.91-3.88-11.62-4.09-14.65-7.64-29.48-8.64-44.66-.85-13.12-1.44-26.43,3.39-39.16.3-.78.64-1.54,1-2.3,5.06-11.33,12.61-10.63,20.42-3.31,4.13,3.87,7,8.82,9.5,13.75,6.14,11.85,13.53,22.65,23.82,31.32a6.64,6.64,0,0,1,1.1,1.8Z"/><path class="cls-13" d="M1168.26,835.55q1.4-3.81,2.81-7.62c7.88,10.06,17.44,18.27,27.85,25.56q-3.54,7.5-7.1,15c-2.07-.38-2.17-2.75-3.7-3.67.4-1.59-.73-2.43-1.67-3.31-2.25-2.11-4.55-4.18-6.83-6.27,0-3.11-2.45-5-3.87-7.41C1173.32,843.71,1170.76,839.64,1168.26,835.55Z"/><path class="cls-4" d="M1339.38,662.42c3.85.54,8.41,1.15,12.36,3.92,3.7,2.59,5.37,6.14,4.42,9.63s-3.48,5.59-8.17,5.5c-5.17-.1-10.43-.59-15.08-3.39-4-2.4-5.58-6.3-4.34-10.57C1329.45,664.47,1333.59,662.42,1339.38,662.42Z"/><path class="cls-4" d="M1267.07,662.42c.63,3.77-2.12,6.16-5,7.53-5.5,2.61-11.45,3.9-17.6,2.29a7.27,7.27,0,0,1-3.83-11.8c4.46-5.66,16.62-8.16,23-4.73C1266.34,657.21,1267.07,658.54,1267.07,662.42Z"/><path class="cls-9" d="M1255.63,717a2.89,2.89,0,0,1-1.49,2.66c-1.48.91-2.74.34-3.93-.58a37.43,37.43,0,0,0-15-7.16,31.11,31.11,0,0,0-22.12,3.17c-.94.51-1.86,1-2.79,1.58-1.84,1.07-3.72,1.39-5-.66s-.15-3.6,1.66-4.74c8.48-5.34,17.65-7.61,27.61-5.84a44.08,44.08,0,0,1,18.82,8.18C1255.28,715,1255.65,715.65,1255.63,717Z"/><path class="cls-9" d="M1378,730.73a2.9,2.9,0,0,1-2.56,3.22,2.86,2.86,0,0,1-1.5-.22,8.34,8.34,0,0,1-2.29-1.66c-11.26-10.12-23.86-11.35-37.51-5.67-.66.27-1.27.68-1.94.92-1.74.64-3.4.51-4.32-1.28-1-2-.09-3.47,1.7-4.43a40.59,40.59,0,0,1,11.1-3.83c13.11-2.69,24.78.25,34.82,9.23C1376.64,728,1378,729,1378,730.73Z"/><path class="cls-4" d="M1223.33,634.42l.31.29h-.2a.77.77,0,0,1-.1-.25Z"/><path class="cls-19" d="M1032,828.19c-1.88.4-3.94-.3-6.48.83,2.45,1.61,4.75.36,6.56,1.32-2.32,13.91-12.59,18.65-24.65,20.6a160.17,160.17,0,0,1-53.77-.33,33.9,33.9,0,0,1-15.34-6.48c-4.48-3.53-6.5-8.39-7.51-13.8,1.8-1.21,4.09.31,6.33-1-2.23-1.7-4.64-.5-6.57-1.4l.84-8c1-.51,2.36.52,3.13-.9-.46-1.08-1.64-.74-2.34-1.26.48-3.19,2.44-5.79,3.49-8.75.91.06,1.82.14,2.72.16s2.26,1.32,2.62-.17c.31-1.29-1.41-1.09-2.29-1.47-.42-.18-.83-.38-1.24-.58a42.38,42.38,0,0,1,20.77-15.87c1.39,4.23,4.33,7,8.17,9a31.13,31.13,0,0,0,11.62,3.33c1.16.11,2.3-.13,2.28,1.82-.07,8.42-7.72,19.75-15.63,22.89-4.91,2-8.8.81-11.88-3.54a23.27,23.27,0,0,1-3.25-6.73c-.18-.59-.5-1.18-1.21-1.06-1,.16-.79,1-.7,1.68,1.26,10.64,11.8,15.7,20.81,10,6.82-4.34,10.95-10.66,13.21-19.06,2.35,5.44,4.18,10.35,7.52,14.45,4,5,9,7.7,15.64,6.41s10.59-5.6,12.46-11.92c.45-1.53,1.6-4.17.17-4.5-2.08-.49-1.45,2.36-1.89,3.73-1.78,5.52-5,9.43-10.92,10.66s-10.23-1.18-13.75-5.6c-3.71-4.65-5.73-10.11-7.59-15.68-.84-2.51-.62-3.34,2.37-3.7,8.21-1,15.61-3.67,19.08-12.24a50.62,50.62,0,0,1,20.6,15.34c-.47,2-3.1.78-3.84,2.72,1.87,1.35,3.69-.71,5.48-.17,1.33,2.9,3,5.69,3.72,8.83-.58.75-2.53,0-2.11,1.57.33,1.18,1.84.16,2.73.59A28.43,28.43,0,0,1,1032,828.19Z"/><path class="cls-21" d="M1106.6,663.65a273.64,273.64,0,0,1-3.28,31.81c-1.34,7.58-2.59,15.17-3.92,22.76-.2,1.13-.19,2.75-1.3,3.1-1.48.46-1.76-1.37-2.3-2.26-7.12-11.68-16.13-21.79-26.18-30.95A104.44,104.44,0,0,0,1049.11,674c-3.62-2-3.59-2-.32-4.44,10.53-7.78,21.32-15.17,33.09-21a52.73,52.73,0,0,1,11.36-4.2c7.62-1.8,11.42.59,12.52,8.29C1106.28,656.27,1107.07,659.92,1106.6,663.65Z"/><path class="cls-21" d="M856.6,664.29c.2-4.62-.38-9.27,1-13.83,1.76-5.86,5-7.89,11-6.47,8.58,2,16.15,6.34,23.61,10.76a260.2,260.2,0,0,1,22.16,14.93c2.08,1.54,2.76,2.46-.19,4.06a115.42,115.42,0,0,0-29.84,22.86,157.94,157.94,0,0,0-17.74,23.12c-.48.77-.67,2.06-1.87,1.85s-.83-1.52-1-2.39c-2.69-13.71-5-27.47-6.5-41.38C856.77,673.28,856.8,668.79,856.6,664.29Z"/><path class="cls-9" d="M1004.78,791c-3.47,8.57-10.87,11.24-19.08,12.24-3,.36-3.21,1.19-2.37,3.7,1.86,5.57,3.88,11,7.59,15.68,3.52,4.42,7.93,6.82,13.75,5.6s9.14-5.14,10.92-10.66c.44-1.37-.19-4.22,1.89-3.73,1.43.33.28,3-.17,4.5-1.87,6.32-5.77,10.61-12.46,11.92s-11.59-1.42-15.64-6.41c-3.34-4.1-5.17-9-7.52-14.45-2.26,8.4-6.39,14.72-13.21,19.06-9,5.73-19.55.67-20.81-10-.09-.69-.32-1.52.7-1.68.71-.12,1,.47,1.21,1.06a23.27,23.27,0,0,0,3.25,6.73c3.08,4.35,7,5.49,11.88,3.54,7.91-3.14,15.56-14.47,15.63-22.89,0-2-1.12-1.71-2.28-1.82a30.89,30.89,0,0,1-11.62-3.29c-3.84-2-6.78-4.81-8.17-9-.87-6.23,2.31-10.43,7.39-13,11.35-5.82,22.76-5.58,33.62,1.27A11.77,11.77,0,0,1,1004.78,791Z"/><path class="cls-9" d="M1041.15,738.08a9.79,9.79,0,0,1,7.08,3.15c9.74,9.44,9.52,31.18-.41,40.42-4.24,3.94-9.47,4.21-13.82.38-6.85-6-8.34-14.16-8-22.71a27.88,27.88,0,0,1,4.67-15.15C1033,740.7,1036,738.12,1041.15,738.08Zm-4.46,15.4c0-3.57-1.58-6.7-3.35-6.28-3.2.76-3.35,3.62-3.36,6.25s0,5.5,3.15,6.38c2,.59,3.59-2.53,3.56-6.35Z"/><path class="cls-9" d="M936.91,760.42c0,7.46-1.34,13.3-5,18.46-5.47,7.78-14,7.78-19.47,0-6.53-9.3-6.7-25.18-.36-34.61,5.69-8.47,15.22-8.2,20.55.63A28.42,28.42,0,0,1,936.91,760.42Zm-15.23-6.8c-.6-2.46-.2-6.12-3.46-6.21s-3.18,3.43-3.53,6a1,1,0,0,0,0,.35c.34,2.53.16,6,3.48,6s2.83-3.78,3.51-6.18Z"/><path class="cls-4" d="M718.24,821.18a134.12,134.12,0,0,1-44.67,16.08,136.9,136.9,0,0,1-34.43,1.38,163.1,163.1,0,0,1-24.8-4.51c-2.8-.69-5.49-1.49-7.63-3.55-7.09-7.68-13-16.12-16.55-26-4.63-12.88-5.76-26.11-4.46-39.71,2.36-24.55,14.3-44.45,29.16-63.24,6.19-7.79,13-15.19,16.81-24.68a45.19,45.19,0,0,0,2.87-14.26,168.15,168.15,0,0,0-1.68-33.1c-.84-5.91-2.64-11.83-1.2-18,1.34-5.78,3.84-8,9.92-8.06,4-.06,8.15-.51,10,4.19a28.88,28.88,0,0,1,1.62,6.93c1.12,9.2,1,18.51,2.2,27.72,1.72,12.8,3.82,25.49,12.36,35.88,4.71,5.73,10.72,10.11,16.33,14.9,16.79,14.35,32.22,29.82,40.2,51.07,8.64,23,9.69,45.91-1.54,68.53C721.3,815.6,718.68,817.81,718.24,821.18Zm-62.28-65c4.5,5.23,10.13,7.17,16.32,8a71.65,71.65,0,0,0,11.06.17c10.61-.25,16.55-6.29,19.82-15.67.57-1.64,2.33-4.16.06-5-2.81-1.11-2.34,2.21-3,3.71-2.35,5.81-5.17,11.37-11.8,12.92a40.52,40.52,0,0,1-21.92-.69c-6.62-2.14-9.35-5.86-9.8-12.89-.16-2.38-.32-4.76-.69-7.11-.3-1.91.45-2.66,2.19-3.33,8.67-3.35,13.73-10,16.31-18.68,1.66-5.56,0-9.88-4.61-13.19-10-7.28-29.39-5.36-37.78,3.75-3.84,4.17-4.57,8.31-2.11,13.47,3.21,6.74,8.18,12.7,15.33,14,7.56,1.42,7.8,5.85,8,11.36a17.07,17.07,0,0,0,.13,2.14,10.16,10.16,0,0,1-3.81,9.87c-7.41,6.1-16.31,7.94-25.51,7.36-7.35-.46-11.11-6.26-14.36-12.15-.06-.11-.1-.22-.16-.32-.49-.91-1.17-1.64-2.27-1.16s-1,1.45-.7,2.45c2.23,7.93,11.8,15,20.1,14.57a53.46,53.46,0,0,0,8.17-.9c8.35-1.7,16.2-4.33,21.07-12.66Z"/><path class="cls-9" d="M711.94,665.71a38.09,38.09,0,0,1,21,6.16c1.82,1.14,3.46,2.52,2.13,4.89s-3.35,1.8-5.24.65c-13.63-8.33-26.71-6.82-39.34,2.22-1.87,1.34-3.74,2.1-5.27,0s-.2-3.74,1.56-5.11A44.52,44.52,0,0,1,711.94,665.71Z"/><path class="cls-9" d="M612.75,685.42c.09,2.54-2.38,3.83-5.2,2.5A41.75,41.75,0,0,0,596,684.29a31.2,31.2,0,0,0-26.2,7.6,22,22,0,0,0-1.89,1.63c-1.48,1.45-3.17,2-4.72.41s-1.21-3.47.39-5a38.53,38.53,0,0,1,17.45-10c10-2.52,19.62-1.07,28.88,3.21C611.93,683,612.7,684,612.75,685.42Z"/><path class="cls-15" d="M287.33,656.57v-1.35a65.43,65.43,0,0,1,21.37-9.31c11.65-2.55,23.08-1.57,34.48,1.45a139.7,139.7,0,0,1,18.07,6.55c3.43,1.44,4.65,4.45,5.37,8.57-4.18-2.08-7.74-4.28-11.49-6.08a74.19,74.19,0,0,0-38.84-6.89A61.73,61.73,0,0,0,291,657.62C289.16,658.69,288.16,658.42,287.33,656.57Z"/><path class="cls-15" d="M286.56,648c0-.44.07-.88.11-1.32,4.27-1.79,8.09-4.45,12.46-6.12C318.75,633,338,635,357,642.75a4.79,4.79,0,0,1,2.21,1.69c.74,1.15,2.24,2.59,1.42,3.75s-2.33-.3-3.46-.73c-10.69-4.13-21.74-6.94-33.17-7.22a66.8,66.8,0,0,0-34.13,8.56C288.76,649.42,286.75,651.64,286.56,648Z"/><path class="cls-15" d="M355,637.35c-6.34-1.85-11.7-3.62-17.32-4.57-16.32-2.74-31.86-.77-46.6,6.86a15.91,15.91,0,0,1-1.6.8c-.81.3-1.72,1.36-2.49.18a2.13,2.13,0,0,1,.66-2.94l.26-.14c5-2.57,9.7-5.6,15-7.31,11.18-3.57,22.62-4,34.14-2.24,3.49.52,6.85,1.84,10.31,2.66S352.87,633.64,355,637.35Z"/><path class="cls-15" d="M321,700.14c-1.74.28-2.81-.66-3.64-2,.07-1.68,1.33-2,2.63-2.42a100.3,100.3,0,0,0,28-13.82,62.89,62.89,0,0,0,14.35-13.66c1.89-2.53,3.11-1.12,4.65-.12,2.4,1.56.37,2.56-.56,3.57-11.77,12.83-26.55,20.94-42.59,27A7.11,7.11,0,0,0,321,700.14Z"/><path class="cls-15" d="M316.91,692.14a1.42,1.42,0,0,1-1.52-1.22,2.28,2.28,0,0,1,1.41-2.9h0c2.72-1.18,5.47-2.3,8.16-3.54,11.15-5.16,21.65-11.29,29.69-20.85,1.29-1.55,2.5-1.61,4-.7,1.87,1.14.55,2.22-.18,3.21-4.6,6.18-10.54,10.94-16.9,15.08a85.67,85.67,0,0,1-23,10.4Z"/><path class="cls-15" d="M335.17,705.15H331l-4.53-2.82c5.41-2.11,10.12-4.53,14.88-6.83a104.59,104.59,0,0,0,26.32-18.69c.59-.55,1.1-1.56,2-1.26,1.18.39.66,1.62.72,2.5.19,2.9-1.86,4.55-3.72,6.18a108.75,108.75,0,0,1-19.15,13.49c-3.23,1.78-6.5,3.49-9.74,5.24C336.76,703.5,335.45,703.72,335.17,705.15Z"/><path class="cls-15" d="M315.28,681.27a2.81,2.81,0,0,1,2.06-3.35c10.89-4.09,21-9.54,29.24-17.94a3.24,3.24,0,0,1,2.1-1.24c1,0,2-.12,2.62.77s-.22,1.48-.58,2.18c-1.62,3.08-4.54,4.88-7.14,6.89a112.5,112.5,0,0,1-25.36,14.34C316.58,683.62,314.73,684.21,315.28,681.27Z"/><path class="cls-15" d="M306,690.82l-.21-2c-1.21-14.29,3.77-26.07,14.46-36.12.67,1.82-.24,2.64-.79,3.58A59.7,59.7,0,0,0,311,686.07a15.11,15.11,0,0,0,.54,4.23c.28,1,.62,2.38-.28,3s-2-.37-2.78-1A5.4,5.4,0,0,0,306,690.82Z"/><path class="cls-15" d="M351.64,706.58l-4.17.77c-1.76-1.41-4-.07-6.29-1.14,4.29-2.49,8.3-4.85,12.34-7.18a90.24,90.24,0,0,0,15.73-11.61c.58-.53,1.05-1.56,2-1.09s.45,1.48.56,2.26c.24,1.61-.64,2.68-1.72,3.7a112.41,112.41,0,0,1-16.51,12.36C352.81,705.18,351.83,705.47,351.64,706.58Z"/><path class="cls-15" d="M340.33,655.79c1.4.14,2.42-.11,2.68,1s-.64,1.75-1.35,2.35a84.14,84.14,0,0,1-12.53,8.74c-3,1.73-6.18,3.11-9.27,4.65-.65.32-1.36.73-2,.19s-.47-1.52-.18-2.32a5.77,5.77,0,0,1,3.36-3c5.85-2.94,11.6-6,16.57-10.39A4.06,4.06,0,0,1,340.33,655.79Z"/><path class="cls-15" d="M298.08,681.59l-.09-2.8c1.06-10.8,8.59-23.92,14.19-24.07-6.5,8.81-10.89,18.23-10.61,29.92Z"/><path class="cls-15" d="M324.36,609.51c0,.7-9.93,13.88-10.6,14s-1.8.42-2.36-.29.27-1.25.69-1.79c3.11-4,6.2-8.07,9.33-12.08.49-.64,1-1.43,2-1.18A1.23,1.23,0,0,1,324.36,609.51Z"/><path class="cls-15" d="M291.75,671.57v-2.81c2.12-3.1,4.25-6.18,6.33-9.31.77-1.15,1.67-1.9,3.95-1.8-4.07,5-6,10.42-7.39,16.39C293.11,673.53,293.22,671.55,291.75,671.57Z"/><path class="cls-14" d="M385.5,705.42c-.57.68-1.14,1.36-1.72,2-1.95,1.11-2.58,0-2.64-1.69-.09-2.57-.05-5.15-.07-7.72l.15-1.33c4.21-1.52,4.21-1.52,4.22,3C385.44,701.61,385.48,703.51,385.5,705.42Z"/><path class="cls-15" d="M334,654.15a48.63,48.63,0,0,1-9.62,6.78c-.67.41-1.53,1.07-2.24.21-.53-.64.21-1.31.44-2a1.53,1.53,0,0,1,.19-.3C326.15,653,326.15,653,334,654.15Z"/><path class="cls-15" d="M330.86,613.8c-2.39,2.53-3.72,6.24-6.6,8.77a2.21,2.21,0,0,1-2.69,0c-.91-.73,0-1.53.32-2.2a27,27,0,0,1,6.42-8c.53-.5,1.11-1,1.88-.44A1.74,1.74,0,0,1,330.86,613.8Z"/><path class="cls-15" d="M372.6,701c-3.06,3.53-7.47,3.49-11.54,4.35,3.19-2.61,6.39-5.21,9.57-7.83,1.4-1.14,1.86-.48,1.9,1C372.56,699.32,372.58,700.16,372.6,701Z"/><path class="cls-15" d="M337.21,617.7c.13,1.51-3.74,5.32-5.23,5.21h-.35c-.85-.08-1.54-.61-1.17-1.37,1.1-2.22,2.33-4.51,4.79-5.46C336.15,615.71,336.82,616.87,337.21,617.7Z"/><path class="cls-15" d="M345.61,624.42c-2.45,1.2-3.81.12-5.26,0-1.2-.13-1.78-.79-1.14-1.88s1.29-2.17,2.73-1.06C343.05,622.25,344.1,623.16,345.61,624.42Z"/><path class="cls-9" d="M932.2,817.76c.7.52,1.88.18,2.34,1.26-.77,1.42-2.17.39-3.13.9-10.73-1.72-21.56-1.77-32.37-1.45-10.09.3-20.18.82-30.1,2.94-1.58-.44-3.05.32-4.51.6-10.19,2-20.4,3.84-30.06,7.8-7.63,1.76-14.62,5.12-21.53,8.66a129.3,129.3,0,0,0-27,17.26,21.86,21.86,0,0,0-2.18,2.33c-2.4,1-3.77,3.22-5.72,4.77-.93.74-1.89,2.8-3,1.59-1.35-1.42.84-2.36,1.72-3.25,2.08-2.12,4.35-4,6.55-6a299.18,299.18,0,0,1,26.36-17.54l24.06-10c7.12-2.09,14.21-4.28,21.5-5.75,4.6-.94,9.19-1.91,13.79-2.86a20.69,20.69,0,0,0,2.49,0,242.55,242.55,0,0,1,39.11-2.48C917.74,816.59,925,817.32,932.2,817.76Z"/><path class="cls-9" d="M1616.59,694.69c2.3.33,4.15,1.49,4.16,4.47s-1.79,4.41-4.48,4.46-4.08-1.85-4.41-4.29S1613.83,694.69,1616.59,694.69Z"/><path class="cls-9" d="M1599.92,691.5c-3.66.06-4.84-1.87-5.14-4.46-.26-2.24,2.21-4.66,4.57-4.45,2.52.23,4.21,1.52,4.22,4.33S1602.08,691.26,1599.92,691.5Z"/><path class="cls-9" d="M1577.83,675.55c1.59.88,3.29,1.76,4.56-.29,1.54-2.47-1.07-3.37-2.12-4.85,4.83-.16,7.2,2.51,5.56,6.24a4.12,4.12,0,0,1-4.56,2.56C1579.21,679,1577.71,678,1577.83,675.55Z"/><path class="cls-6" d="M1571.58,664.7l-3.12,4c-3.06,3-6.93,4.56-10.71,6.31-13.6.29-19.11-3.22-24.44-15.57-.11-2.94-.55-5.83.07-8.82a20.38,20.38,0,0,1,39.62-1.2C1574.46,654.7,1573.32,659.71,1571.58,664.7Zm-20.45-18.44c-.37-2.08-1.14-3.64-3.29-3.85-1.91-.2-3.48.67-3.58,2.61s-1.21,2.23-2.4,3c-1.6,1.08-2.37,2.75-1.25,4.63s3.27,2.59,4.56,1.32c2.55-2.49,3.92-.6,5.65.72s3.43,2.55,5.16,3.82c1.07.78,2,1.31,1,3.07-1.21,2-.38,4.09,2,4.79s4.13-.15,4.5-2.69a2.79,2.79,0,0,1,1.9-2.53c2.1-1,2.39-3,1.47-4.86-1-2.09-3-2.44-4.82-1.19-1.55,1.07-2.53.64-3.74-.39s-2.87-2.11-4.26-3.21C1552.19,650.16,1549.25,649.36,1551.13,646.26Z"/><path class="cls-12" d="M1571.58,664.7c1.74-5,2.88-10,1.44-15.33a20.38,20.38,0,0,0-39.64,1.29c-.62,3-.18,5.88-.07,8.82-3.34-1.3-5.86-4.09-9.33-5.17,6.2-8.87,12.29-17.81,18.65-26.56,2.47-3.4,6.27-3.75,9.82-1.29q14.23,9.88,28.33,20c3.82,2.73,4.46,6.37,2,10.29-1.47,2.3-3.37,4.36-4.66,6.76C1576.3,666.79,1574.31,667.24,1571.58,664.7Z"/><path class="cls-14" d="M1524,654.31c3.47,1.08,6,3.87,9.33,5.17,5.33,12.35,10.84,15.86,24.44,15.57a21.78,21.78,0,0,0,8,5.19c-2.78,5.31-6.87,6.48-11.64,3.16q-13.76-9.58-27.38-19.33C1522.76,661.2,1522.13,658.69,1524,654.31Z"/><path class="cls-12" d="M1565.79,680.24a21.78,21.78,0,0,1-8-5.19c3.78-1.75,7.65-3.34,10.71-6.31,3.78,2.82,3.81,2.83,1,6.79C1568.29,677.15,1567,678.68,1565.79,680.24Z"/><path class="cls-8" d="M1030.74,817.71c-.76-3.14-2.39-5.93-3.72-8.83,9.67-3.07,19.69-4.27,29.7-5.43a224,224,0,0,1,28.83-1.54,67,67,0,0,1,16.78,2.35,29.72,29.72,0,0,0,9.81.74,48,48,0,0,1,16.88,2,80.36,80.36,0,0,1,1.22,14.28c-.21.94-.42,1.88-.64,2.82-8.32-2.54-16.59-5.39-25.22-6.68-3.57-.53-7.67-2.19-10.75,1.59a33.78,33.78,0,0,1-5.32-.13c-12.7-2.32-25.53-2.47-38.36-2.27C1043.54,816.68,1037.14,817.32,1030.74,817.71Z"/><path class="cls-8" d="M833.23,823.49c-1-5.54-.14-11,.53-16.49,6.91-1.84,14-2.06,21.07-2.75,3-.3,6.17-.27,9.21-1,11.81-2.64,23.73-1.31,35.58-.5a205.6,205.6,0,0,1,32.09,4.82c1.37.31,2.83.42,4,1.39-1.05,3-3,5.56-3.49,8.75-7.23-.44-14.46-1.17-21.7-1.25a242.55,242.55,0,0,0-39.11,2.48,20.69,20.69,0,0,1-2.49,0c-.63-2.12-2.4-2-4.07-2.06-5.53-.19-10.81,1.21-16.12,2.5S838.59,822.92,833.23,823.49Z"/><path class="cls-15" d="M1504.75,775.17c-1.35,4.76-1.12,10.09-1.16,15.22a116.92,116.92,0,0,0,2.65,27.54,132.18,132.18,0,0,0,4.41,15.74c.44,1.21,1.8,3.38.49,3.64-1.75.35-4.41.25-5.56-2.08a36.53,36.53,0,0,1-2.08-5.31c-5.23-16.81-5.71-34.12-5-51.51.09-2-.39-5,2.58-6.13C1503.72,771.23,1504.87,772,1504.75,775.17Z"/><path class="cls-15" d="M1508.25,789.61c-.48-3.47.88-8.76.83-14.1,0-2.11.83-3.18,3-2.91s2.15,1.89,1.89,3.5c-2.74,16.61-.93,32.83,4.38,48.71a52.4,52.4,0,0,0,3.64,8.13c1.58,3-.34,4.25-2.45,5.13-2.4,1-2.65-1.31-3.23-2.73a110.47,110.47,0,0,1-7.37-31.74C1508.55,799.55,1508.55,795.54,1508.25,789.61Z"/><path class="cls-15" d="M1517.65,790.64c-.56-3.92.7-8.85.76-13.84,0-1.19,0-2.72,1.72-2.48,1.42.2,3.33.43,3.22,2.61-.09,1.89-.64,3.77-.6,5.64.32,15.45.88,30.9,7.89,45.16,1.37,2.79-.83,3.42-2.14,4.37-1.81,1.3-2.15-.77-2.66-1.76-4.19-8.23-6.33-17-7.53-26.16A117.82,117.82,0,0,1,1517.65,790.64Z"/><path class="cls-15" d="M1494.39,774.75c-1.37,6.59-1.26,12.91-1,19.18.51,12.56,1.79,25,5.67,37.08.27.84,1.2,1.81.31,2.63s-1.78-.18-2.64-.38a4.46,4.46,0,0,1-3.29-3.42,132.23,132.23,0,0,1-5-45.37c.14-2.46.74-4.91.68-7.41s1.62-3.25,3.61-3.65C1494,773.14,1494.84,773.52,1494.39,774.75Z"/><path class="cls-15" d="M1533.37,782.66a95.19,95.19,0,0,0,4.73,39.2c.67,2-.44,3.11-1.73,3.79-1.93,1-1.95-1.13-2.44-2.06-3.44-6.52-4.42-13.72-5.47-20.86s-.82-14-.71-21c0-1.29-.77-3.64.82-3.67a4.16,4.16,0,0,1,4.8,4.6Z"/><path class="cls-14" d="M1607.16,824.81c-2.75,0-4.3,2.29-6.41,3.46-4.29,2.39-8.42,5.06-13,7.16a9.89,9.89,0,0,1,6.24-8.79c2.81-1,1.53-2.57.16-4V819.8c1.33-.68.64-3.31,2.35-3.09,1.27.16,1.82,1.95,2.27,3.34.31,1,.74,2.24,2.22,1.61s.89-1.79.44-2.72c-1.2-2.48-1.49-5.53-4.28-7,0-.94,0-1.89-.08-2.84,1.31-1,.38-3.74,2-3.77s1.87,2.42,2.65,3.8c1.35,2.37,2.41,4.9,3.72,7.28,1.46,2.65,2.66,5.28,1.65,8.39Z"/><path class="cls-15" d="M1537.86,784.28c2.7,1.08,4.09,2.39,4.24,5.09a130.69,130.69,0,0,0,3.1,23.87,4.86,4.86,0,0,1,.31,2.07c-.36,1.5-1,3.29-2.65,3.4-1.34.09-1.38-1.67-1.71-2.75C1538,805.76,1537.3,795.31,1537.86,784.28Z"/><path class="cls-15" d="M1547,796.5c.17-.87-.24-1.79.68-2.06s1.15.57,1.55,1.13c1.41,2,2.87,4,4.25,6.07.77,1.14-2,7.68-3.27,7.83s-1.17-1.07-1.3-1.72C1548.2,803.94,1547.61,800.11,1547,796.5Z"/><path class="cls-15" d="M1594.21,819.84v2.84c-1.69,2.18-2.82,2-3.87-.64a15.15,15.15,0,0,0-2.75-4.09c-1.23-1.4-1.13-2.64-.31-4.17s1.2-1.91,2.64-.35C1591.7,815.42,1592,818.23,1594.21,819.84Z"/><path class="cls-15" d="M1598.54,793.42a13.18,13.18,0,0,1,.77,4.94,6.89,6.89,0,0,0-.74,3.84c-3.08-4-5.54-7.4-5-12,.07-.57-.07-1.3.69-1.47s1,.44,1.35.91C1596.59,790.88,1596.58,792.9,1598.54,793.42Z"/><path class="cls-15" d="M1597.13,809.09c0,1,0,1.9.08,2.84-.24.85-.2,2.17-1.63,1.54-2.95-1.3-5.1-8.9-3.33-12.1Z"/><path class="cls-15" d="M1584.08,822c2.18,1.28,3,3.63,4.14,5.78a1.78,1.78,0,0,1-.06,2,1.86,1.86,0,0,1-2.52.62,8.84,8.84,0,0,1-3.4-5.88A2.39,2.39,0,0,1,1584.08,822Z"/><path class="cls-15" d="M1573.64,835.6c1.26-1.63,2.48-3.29,3.77-4.89a1.66,1.66,0,0,1,2.18-.6,3.29,3.29,0,0,1,1.54,2.27c.27,1-.53,1.5-1.31,1.8-1.93.71-3.87,1.36-5.81,2Z"/><path class="cls-15" d="M1485.47,849.88l-5.68-6.26c.09-.27.19-.54.28-.82,27.34,11.92,55.5,17.66,85.28,11.75-3.44,3.36-8.09,4.3-11.86,6.78-3.68,1.41-7.62,1.47-11.44,2.11-1.23-1.1-2.74-.63-4.11-.62a96.79,96.79,0,0,1-22.55-2.63c-6.91-1.59-13.75-3.52-20.63-5.3A60.7,60.7,0,0,1,1485.47,849.88Z"/><path class="cls-11" d="M1494.76,854.89c6.88,1.78,13.72,3.71,20.63,5.3a96.79,96.79,0,0,0,22.55,2.63c1.37,0,2.88-.48,4.11.62-6.26,2.45-12.86,1.82-19.22,1.31a63,63,0,0,1-26.83-8.33C1495.31,856,1494.82,855.69,1494.76,854.89Z"/><path class="cls-6" d="M1339.36,867.14l.76-.73Z"/><path class="cls-15" d="M363.21,848.47c2,2.62,5,3.81,7.78,5.18,21,10.44,41.61,21.74,63.46,30.44,13.06,5.2,26.43,9.14,40.89,10.41-4.17,2-8.17.83-11.82.25-15.59-2.51-30.33-7.91-44.75-14.21A572,572,0,0,1,362.36,852a10.78,10.78,0,0,0-2-.7c-9.13-5.9-18.52-11.4-27.26-17.9a107.22,107.22,0,0,1-21.43-21.12,6,6,0,0,1-1.53-4.51c15.16,16.23,32.76,29.27,51.65,40.63h1.44Z"/><path class="cls-19" d="M401.9,856.35c-2.3,3.06-5.31,2.83-8.29,1.47-4.2-1.91-8.27-4.09-12.39-6.15-2.06-2.13-5.48-3.52-4.48-7.39.95-3.67,4.35-3.9,7.25-4.87,2.24-.75,4.39-1.78,6.61-2.61,4.52-1.7,8.18-.06,8.77,4.65C400,846.42,403.13,851,401.9,856.35Z"/><path class="cls-19" d="M400.56,824.84a10.33,10.33,0,0,1-2.15,6.62A4.42,4.42,0,0,1,393,833c-2.2-.88-2.87-2.63-2.62-4.88a10.5,10.5,0,0,1,2.89-6c1.35-1.46,2.7-3.34,5.05-2.42S400.59,822.77,400.56,824.84Z"/><path class="cls-19" d="M387.63,830.3c.05,3.59-1.72,5.87-4.64,6s-4.56-2.07-4.65-5.89a13,13,0,0,1,.94-4.85c.63-1.66,1.37-3.51,3.55-3.43,2,.07,3.08,1.64,3.77,3.34A12.18,12.18,0,0,1,387.63,830.3Z"/><path class="cls-19" d="M411.92,841.05c1.45.1,3.32-.07,4.08,1.81s-.16,3.43-1.47,4.78a10.67,10.67,0,0,1-6,3.55c-2.26.36-4.34,0-5.37-2.38-1-2.19.14-3.91,1.69-5.35C406.78,841.68,409.18,841.14,411.92,841.05Z"/><path class="cls-19" d="M412.09,829.93c-.14,4.61-4.09,9.37-7.39,9.11-2.41-.19-4-1.45-4.07-4,0-3.43,5.18-8.16,8.75-8.08C411.66,827,412,828.51,412.09,829.93Z"/><path class="cls-15" d="M308.36,806.67c-.17-.2-.6-.49-.7-.87a.54.54,0,0,1,.31-.7.52.52,0,0,1,.47,0,1.78,1.78,0,0,1,.78,1C309.32,806.48,309,806.75,308.36,806.67Z"/><path class="cls-14" d="M363.23,848.48h-1.44C362.28,847.7,362.76,847.73,363.23,848.48Z"/><path class="cls-11" d="M346.81,763.85c7.07,1,13.6,3.64,20.06,6.32a594.23,594.23,0,0,1,76,38.54c11.07,6.55,21.93,13.4,32.37,20.91a58.18,58.18,0,0,1,8.91,7.67c1.1,1.2,2.83,2.5,1.84,4.22s-2.82,1.06-4.54.68c-10.77-2.4-20.81-6.8-30.77-11.3A648,648,0,0,1,382.41,795c-12.41-7.49-24.92-14.9-35.64-24.86a22.6,22.6,0,0,1-1.75-1.78c-.92-1.07-2.23-2.2-1.49-3.71C344.18,763.33,345.74,764.29,346.81,763.85Z"/><path class="cls-8" d="M843.75,845.94c-2.2-1.55-3.57-3.79-4.9-6,9.88-2.94,19.06-7.28,27-13.91,1.41-1.17,3.13-2.32,3.07-4.57,9.92-2.12,20-2.64,30.1-2.94,10.81-.32,21.64-.27,32.37,1.45l-.84,8c-24.29.69-48.13,4-71.15,12.12C854.16,841.85,849,844,843.75,845.94Z"/><path class="cls-8" d="M1032,828.19a28.38,28.38,0,0,0-.64-8.32c5-1.16,10.19-1.19,15.28-1.34,15.73-.47,31.44-.12,47,2.84-.13,1.64.92,2.63,2,3.6,8.14,7.44,18,11.67,28.3,15a40.31,40.31,0,0,1-5.33,7,227.17,227.17,0,0,0-43.41-13.87A241.31,241.31,0,0,0,1032,828.19Z"/><path class="cls-9" d="M1093.62,821.42c-15.54-3-31.25-3.31-47-2.84-5.09.15-10.25.18-15.28,1.34-.89-.43-2.4.59-2.73-.59-.42-1.53,1.53-.82,2.11-1.57,6.4-.39,12.8-1,19.21-1.12,12.83-.2,25.66,0,38.36,2.27a33.78,33.78,0,0,0,5.32.13c4.3.87,8.58,1.78,12.88,2.59,7.7,1.45,15.11,4,22.7,5.78,5,2.11,10,4.23,15.08,6.31,7.27,3,13.87,7.27,20.88,10.77l14.45,10.81c2.28,2.09,4.58,4.16,6.83,6.27.94.88,2.07,1.72,1.67,3.31-4.72-2.6-8-6.93-12.33-10-3.76-2.71-7.2-5.86-11.38-8-9.35-6.83-19.87-11.36-30.59-15.49-1.72-.66-3.4-1.75-5.41-1.45C1117.26,825.23,1105.47,823.17,1093.62,821.42Z"/><path class="cls-5" d="M1093.62,821.42c11.85,1.8,23.64,3.86,34.79,8.53a26.07,26.07,0,0,1-4.51,10.11c-10.31-3.37-20.16-7.6-28.3-15C1094.54,824,1093.49,823,1093.62,821.42Z"/><path class="cls-6" d="M1220.48,864.09l.8.82Z"/><path class="cls-9" d="M1251.3,802.75c-8.73-2.51-12.55-9.29-15-17.26-.33-1.1-.71-2.57.92-3s1.81,1.06,2.24,2.16a58.29,58.29,0,0,0,2.74,6.59c2.77,5.15,6.9,8.23,13,8.78,6.37.57,12.62.61,18.74-1.47s9-6.08,9.69-12.68c.63-6,.87-10.11-6.17-13.07-6.57-2.78-10.14-9.53-11.9-16.65-1.38-5.52.38-9.74,5.11-13,10.16-6.91,28.76-5,37.25,3.88,3.86,4,4.8,8.44,2.32,13.43-4.15,8.35-10.54,14.07-20,15.69-1.66.28-2.52.67-2.61,2.54-.16,2.85-.46,5.7-.9,8.52-.85,5.82,1.64,9.95,6.44,12.88a38.85,38.85,0,0,0,22.62,5.42c6.79-.36,10.54-5.38,13.86-10.67.79-1.26,1-4,3.2-2.89s.25,3.16-.5,4.6a25.44,25.44,0,0,1-14.88,12.6c-5,.23-9.87-1-14.81-1.44-6.41-2.2-12.91-4.26-17-10.25-.92-2-1.87-2.91-3-.1-5.34,4.27-11.57,6-18.27,6.29C1260.07,803.1,1255.62,803.8,1251.3,802.75Z"/><path class="cls-22" d="M1285.65,797.5c4.13,6,10.63,8,17,10.25a113.21,113.21,0,0,1-2.72,18.21c-1.49,8.65-4.24,16.83-9.72,23.8-7.28,9.27-21.43,6.75-25.88-4.69a46.29,46.29,0,0,1-2.41-24.16,106.32,106.32,0,0,1,2.47-17.22c6.7-.33,12.93-2,18.27-6.28-.64,3.61-1.33,7.22-1.91,10.84-1.1,6.9-2.6,13.75-3,20.75,0,.75-.36,1.86.78,2.07s1.25-.83,1.27-1.64c.25-7.15,1.79-14.11,3-21.1C1283.49,804.67,1283.28,800.73,1285.65,797.5Z"/><path class="cls-13" d="M1300,826a113.21,113.21,0,0,0,2.72-18.21c4.94.45,9.8,1.67,14.81,1.44C1314.21,817.42,1308.05,822.7,1300,826Z"/><path class="cls-13" d="M1264.43,803.69a106.32,106.32,0,0,0-2.47,17.22c-4.49-3.65-6.51-8.91-9-13.87-.69-1.38-1.14-2.86-1.69-4.29C1255.62,803.8,1260.07,803.1,1264.43,803.69Z"/><path class="cls-5" d="M1129.21,827.36c-7.59-1.83-15-4.33-22.7-5.78-4.3-.81-8.58-1.72-12.88-2.59,3.08-3.78,7.18-2.12,10.75-1.59,8.63,1.29,16.9,4.14,25.22,6.68Z"/><path class="cls-10" d="M1179.62,855.25l-14.45-10.83a51.69,51.69,0,0,1,3.09-8.89c2.5,4.09,5.06,8.16,7.49,12.29C1177.17,850.24,1179.57,852.14,1179.62,855.25Z"/><path class="cls-19" d="M1036.69,753.48c0,3.82-1.6,6.9-3.56,6.35-3.17-.88-3.16-3.78-3.15-6.38s.16-5.49,3.36-6.25C1035.11,746.78,1036.66,749.91,1036.69,753.48Z"/><path class="cls-19" d="M921.68,753.58c-.68,2.4-.13,6.09-3.51,6.12s-3.14-3.48-3.48-6a1,1,0,0,1,0-.35c.35-2.54.25-6.07,3.53-6S921.08,751.12,921.68,753.58Z"/><path class="cls-9" d="M656,756.15c-4.83,8.33-12.68,11-21,12.65a53.46,53.46,0,0,1-8.17.9c-8.3.38-17.87-6.64-20.1-14.57-.28-1-.41-2,.7-2.45s1.78.25,2.27,1.16c.06.1.1.21.16.32,3.25,5.89,7,11.69,14.36,12.15,9.2.58,18.1-1.26,25.51-7.36a10.16,10.16,0,0,0,3.81-9.87,17.07,17.07,0,0,1-.13-2.14c-.16-5.51-.4-9.94-8-11.36-7.15-1.35-12.12-7.31-15.33-14-2.46-5.16-1.73-9.3,2.11-13.47,8.39-9.11,27.74-11,37.78-3.75,4.57,3.31,6.27,7.63,4.61,13.19-2.58,8.64-7.64,15.33-16.31,18.68-1.74.67-2.49,1.42-2.19,3.33.37,2.35.53,4.73.69,7.11.45,7,3.18,10.75,9.8,12.89a40.52,40.52,0,0,0,21.92.69c6.63-1.55,9.45-7.11,11.8-12.92.61-1.5.14-4.82,3-3.71,2.27.89.51,3.41-.06,5-3.27,9.38-9.21,15.42-19.82,15.67a71.65,71.65,0,0,1-11.06-.17C666.09,763.32,660.46,761.42,656,756.15Z"/><path class="cls-5" d="M868.94,821.42c.06,2.25-1.66,3.4-3.07,4.57a74.72,74.72,0,0,1-27,13.91,28,28,0,0,1-4.48-10.08c9.66-4,19.87-5.84,30.06-7.8C865.89,821.73,867.36,821,868.94,821.42Z"/><path class="cls-5" d="M833.23,823.49c5.36-.57,10.3-2.76,15.48-4s10.59-2.69,16.12-2.5c1.67,0,3.44-.06,4.07,2.06-4.6,1-9.19,1.92-13.79,2.86-7.29,1.47-14.38,3.66-21.5,5.75C833.57,826.24,832.78,824.92,833.23,823.49Z"/><path class="cls-19" d="M1551.13,646.26c-1.88,3.1,1.06,3.9,2.81,5.28,1.39,1.1,2.9,2.07,4.26,3.21,1.21,1,2.19,1.46,3.74.39,1.83-1.25,3.79-.9,4.82,1.19.92,1.89.63,3.9-1.47,4.86a2.79,2.79,0,0,0-1.9,2.53c-.37,2.54-2.28,3.36-4.5,2.69a3.14,3.14,0,0,1-2-4.79c1-1.76.12-2.29-1-3.07-1.73-1.27-3.45-2.53-5.16-3.82s-3.1-3.21-5.65-.72c-1.29,1.27-3.48.49-4.56-1.32s-.35-3.55,1.25-4.63c1.19-.81,2.31-1.21,2.4-3s1.67-2.81,3.58-2.61C1550,642.62,1550.76,644.18,1551.13,646.26Z"/><path class="cls-11" d="M1285.65,797.5c-2.37,3.23-2.16,7.17-2.8,10.83-1.24,7-2.78,14-3,21.1,0,.81,0,1.87-1.27,1.64s-.82-1.32-.78-2.07c.42-7,1.92-13.85,3-20.75.58-3.62,1.27-7.23,1.91-10.84C1283.78,794.59,1284.73,795.47,1285.65,797.5Z"/><path class="cls-3" d="M92.32-.28c1.43-.07,2.85-.2,4.28-.2Q282-.49,467.51-.59c3.69,0,4.28,1,3.77,4.29a142.82,142.82,0,0,1-18.77,52.85C435.72,84.22,411.3,102.24,381,112.8A241.64,241.64,0,0,1,322.81,125c-18.23,1.63-36.45,1.27-54.69,1.29-15.74,0-31.49-.28-47.21.8-22.09,1.54-43.71,5.34-64.1,14.54-13.14,5.9-22.36,15.9-29.56,28.06-9,15.21-14.21,32-19.75,48.59-4.84,14.47-9.58,29-16.66,42.55-12.43,23.86-31,39.35-58.4,43.18-10.84,1.52-21.61,1.07-32.43.57V175.63c4.93,2,12.19-2.88,12.24-9,0-6.88-4-10.48-12.24-10.31V74.69c.42.22.86.41,1.27.65,6.35,3.79,9.78,3.11,13.73-3.09a33.91,33.91,0,0,0,5-21.82c-.67-7-5.18-12-11.43-13.37C5.37,36.34,2.92,38.63,0,38.89V29.63a190.66,190.66,0,0,1,32.42,7.62c10.14,3.21,19.81-2,22-12.54C56.2,16.44,55.71,8,56.55-.37h10.8c-4.52,8.72-2,16.18,6.67,20.88A41.78,41.78,0,0,0,90.3,25.15c4.82.44,9.78-.59,12.48-5.2,2.55-4.38-.18-8-2.57-11.71C98,4.86,94.34,3.1,92.32-.28Zm142,83.64a16.73,16.73,0,0,0,13.14-5.47C258.66,65.41,251,48.54,237,46.63c-2.63-.36-2.57-1.47-1.46-3.46A17.33,17.33,0,0,0,237,29.71a18.74,18.74,0,0,0-16.3-13.59c-7.23-.84-14.7,3.51-18.33,10.65a17.81,17.81,0,0,0,2.8,20c2,2.1,1.47,2.78-.8,3.91Q153.94,75.76,103.57,101c-2,1-2.9,1.25-3.45-1.6A18.08,18.08,0,0,0,83,84.8c-9.66-.24-18,6.56-19.23,15.69C62.4,110.56,68.06,119,78,121.31c3,.69,4.21,1.17,2.43,4.63-3.81,7.41-1.18,17.65,5.2,22.25,7.63,5.5,17.48,5.11,24-1s8.12-15.52,3.45-23.06c-1.23-2-1.22-2.8,1-3.91q49.68-24.66,99.21-49.59c2.15-1.08,2.93-.68,3.91,1.43,3.35,7.28,9.06,11.16,17.14,11.3Zm80-28.71a9.71,9.71,0,0,0,.13,2.22c2.37,9.61,7.09,18.15,12.13,26.55.74,1.23,1.67,1,2.78.68,4.36-1.19,8.77-2.2,13.11-3.48,5.25-1.56,10.51-3.15,15.07-6.37,7.35-5.19,7.38-14.94,0-20.15-4.27-3-9-3-13.66-1.46-2.35.77-3.84.7-4.84-1.69a13.71,13.71,0,0,0-1.21-2.19c-3.42-5.17-10.6-8.24-15.83-6.8-4.47,1.26-7.6,6.15-7.62,12.67ZM63.7,207.34c0-2.5.2-5.73,0-8.93-.52-7-5.25-12.11-11.41-12.64s-12.8,3.91-13.46,10.74c-.58,6.05-2.93,8.27-8.65,9.55-6.05,1.36-9.84,7.79-9.39,13.24.4,4.82,4.75,9.38,10.85,10.32,10,1.54,19.87-.46,29.67-2.43,1.5-.3,1.62-1.52,1.69-2.76C63.29,219,64.14,213.54,63.7,207.34ZM82.35,64.71c6.8,0,10.64-4.41,9.15-10.83-2-8.52-5.77-16-12.65-21.77-4.85-4-10.07-4.81-15-1.85A13.29,13.29,0,0,0,58,45c1.68,6.64,6.33,11,11.68,14.68C73.48,62.38,77.45,64.76,82.35,64.71Zm-25,8c0-10.09-2.48-16.59-7.91-22C46,47.16,42,46.57,37.65,48.08c-4.88,1.7-8.42,6.49-8.23,11,.49,11.15,6.52,19.32,15.37,25.12,4.68,3.07,10.55,2,12.06-5.46a48.21,48.21,0,0,0,.48-6.11ZM411.16,33.53a9.41,9.41,0,0,0-9.12-9.7,8.62,8.62,0,0,0-.88,0c-5.39.12-9.93,4.64-9.85,9.82s4.94,10.13,10.14,10.14S411.22,39,411.16,33.53Z"/><path class="cls-10" d="M56.55.63c-.84,8.32-.35,16.81-2.09,25-2.22,10.52-11.89,15.75-22,12.54A190.06,190.06,0,0,0,0,30.63V.51Z"/><path class="cls-10" d="M0,39.89c2.91-.3,5.36-2.55,8.56-1.83C14.82,39.47,19.33,44.47,20,51.43a33.91,33.91,0,0,1-5,21.82c-3.9,6.2-7.33,6.88-13.68,3.09-.41-.24-.85-.43-1.27-.65Z"/><path class="cls-3" d="M517.29,60.36a19.65,19.65,0,0,1,.46-39.3c10.46,0,19.44,9.28,19.32,19.9A19.77,19.77,0,0,1,517.29,60.36Z"/><path class="cls-3" d="M211.88,179.76c0-11,8.43-19.24,19.6-19.21s19.32,8.39,19.3,19.5c0,11.75-8.33,19.62-20.68,19.63C220.09,199.68,211.84,190.63,211.88,179.76Z"/><path class="cls-10" d="M92.32.72c2,3.38,5.73,5.14,7.89,8.49,2.39,3.7,5.12,7.33,2.57,11.71-2.7,4.61-7.66,5.64-12.48,5.2A41.87,41.87,0,0,1,74,21.48C65.36,16.78,62.83,9.32,67.35.63Z"/><path class="cls-10" d="M82.35,64.71c-4.9,0-8.87-2.33-12.7-5C64.3,56,59.65,51.71,58,45a13.29,13.29,0,0,1,5.86-14.78c5-3,10.17-2.19,15,1.85,6.88,5.75,10.67,13.25,12.65,21.77C93,60.3,89.15,64.71,82.35,64.71Z"/><path class="cls-10" d="M57.33,72.63a48.21,48.21,0,0,1-.48,6.11c-1.51,7.45-7.38,8.53-12.06,5.46-8.85-5.8-14.88-14-15.37-25.12-.19-4.55,3.35-9.34,8.23-11C42,46.57,46,47.16,49.42,50.63,54.85,56.08,57.32,62.63,57.33,72.63Z"/><path class="cls-3" d="M1919.83,81.74q.06,39.92.15,79.82c0,1.94-.47,2.26-2.47,2a10.3,10.3,0,0,0-11.69,8.71,9.17,9.17,0,0,0-.11,1.38c-.14,6.15,4.85,10.92,11.47,10.4,2.72-.21,2.81.74,2.81,2.84q-.06,56.91,0,113.84c0,2.68-.6,3.59-3.49,3.81a122,122,0,0,1-36.22-2.09c-17.93-4-32-13.61-42.82-28.32-11-15.05-17-32.41-22.92-49.82-5.54-16.36-10.47-32.95-18.34-48.43-5.84-11.52-13.2-21.84-24-29.29-9.77-6.74-21-10.14-32.28-13.17-15.94-4.27-32.23-6-48.71-6.71-24.7-1.09-49.4.07-74.08-.6-28.27-.77-56-4.79-82.54-14.94-31.76-12.12-56.28-32.6-71.86-63.1A138.82,138.82,0,0,1,1448.5,1.85c-.25-2,.16-2.63,2.08-2.45.83.08,1.67,0,2.5,0H1843c1.55,0,3.09.13,4.64.2-.28.36-.54,1-.84,1-4,.32-7.29,2.21-10.38,4.4-4.94,3.53-9.7,7.28-11.39,13.61-1.54,5.76.52,9.82,6.38,10.79,11.16,1.85,21-1,28.41-9.89,5.74-7,2.78-16-5.79-18.69-.75-.24-1.33-.44-1.52-1.24l13-.13c.17,3.28,2.27,5.92,3,9.06,1.61,7.26,3.52,14.46,5.24,21.7,2.55,10.8,14.28,15.43,24.53,10.52,7-3.36,13.94-7.12,21.55-9.19V41.66a13.9,13.9,0,0,0-12.07,13,36.83,36.83,0,0,0,2.32,15.69C1912,75.17,1914.15,80,1919.83,81.74ZM1712.1,33.44c-6.64-.66-12.15,1.15-16.58,6-5,5.45-6.08,11.86-3.84,18.62,2.32,7,7.55,11.25,14.93,12.22s13.7-1.48,17.61-7.79c2.12-3.41,3.41-2.32,5.6-.72q24.89,18.32,49.83,36.56,19,13.92,38.09,27.8c1.92,1.4,3,2.27.74,4.75-4.78,5.33-5.55,11.83-2.93,18.37,3.86,9.66,13.63,14,23.4,10.74,9.09-3,14.13-12.58,11.57-22.43-.7-2.71-.48-3.49,2.65-3.7,14.44-1,22.7-15.75,15.69-27.63-4-6.84-10.11-9.91-17.94-9.32-7.51.57-12.55,4.81-15.42,11.55-1,2.31-1.58,2.62-3.61,1-5.14-4.06-10.45-7.9-15.74-11.77l-73.79-54c-3.45-2.53-3.42-2.56-.27-5.69a19.12,19.12,0,0,0,3-22.78A18.76,18.76,0,0,0,1724,6.88c-8.13,2.23-13.21,9.12-13.36,17.73C1710.63,27.63,1711.57,30.4,1712.1,33.44Zm182,228.08c1.67,0,3.35.09,5,0,10.36-.71,15.59-10.8,9.89-19.39-2.82-4.26-7.33-6-12.28-6.32-1.89-.13-2.7-.57-2.79-2.65a18.85,18.85,0,0,0-2.32-8.19c-2.61-4.88-7.78-8.23-11.93-7.75-4.94.58-9.35,5-10.75,10.64-2.2,8.87-.76,17.72-.11,26.61.24,3.21,1.53,4.31,4.38,4.76,7,1.07,13.9,2.28,21,2.29Zm-323-209.21a20.11,20.11,0,0,0,.16,3c2.23,9.53,7,17.93,11.92,26.23a2.28,2.28,0,0,0,2.78,1c9.18-2.11,18.47-4,26.74-8.7,9.3-5.26,9.58-16.27.8-21.76-4.31-2.69-8.93-2.19-13.46-.83-1.94.58-3,.53-3.89-1.5a15.35,15.35,0,0,0-4.63-5.84c-4.28-3.38-9.15-5.19-14.29-2.8C1572.57,43.25,1571.21,47.84,1571.1,52.31Zm300.15,23.16c0,1.9-.06,3.81,0,5.71.25,6,6.94,13.27,13.69,8.26,8.88-6.58,15-15.2,14.92-26.92,0-4.84-2.3-8.45-6.88-10.25-4.81-1.9-9.43-1.84-13.67,1.71-6.73,5.65-8.23,13.25-8.06,21.49Zm-26.39-5.11c8.8.07,22-10.52,24.29-19.48.75-2.92,1.24-5.81-.13-8.7a12.54,12.54,0,0,0-18.62-4.55,30.81,30.81,0,0,0-12.7,25.21C1837.63,67.85,1840.41,70.32,1844.86,70.36ZM1513.18,42.48a10.48,10.48,0,0,0,10.63-9.91,10.61,10.61,0,1,0-21.22-.09A10.47,10.47,0,0,0,1513.18,42.48Z"/><path class="cls-10" d="M1919.85,32.63c-7.61,2.07-14.52,5.83-21.55,9.19-10.25,4.91-22,.28-24.53-10.52-1.72-7.24-3.63-14.44-5.24-21.7-.69-3.14-2.79-5.78-3-9.06,17.25,0,34.51,0,51.77-.12,2,0,2.69.52,2.66,2.59C1919.87,12.88,1919.88,22.76,1919.85,32.63Z"/><path class="cls-3" d="M1499.67,128.85a19.11,19.11,0,0,1-18.71,19.5h-.7c-11.14,0-19.48-8.49-19.45-19.84,0-11.2,8.5-19.44,19.79-19.51C1490.86,108.93,1500.6,118.48,1499.67,128.85Z"/><path class="cls-3" d="M1869.06,375.46a19.48,19.48,0,0,1-19.91-19v-.79c.11-10.13,9.21-19.56,19.22-19.37,12.56.22,20.21,9.43,20.15,19.73a19.22,19.22,0,0,1-19,19.47Z"/><path class="cls-3" d="M1392.49,26.55a5.59,5.59,0,0,1,2.75.24c3.77,2.13,5.18-.15,7-2.92A10.67,10.67,0,0,1,1413.67,19a9.71,9.71,0,0,1,8.25,8.29c.56,4.08-1.2,7.72-3,11.21a118.18,118.18,0,0,1-8.74,14.31c-.82,1.16-1.55,2.13-3.15,1.59-7.54-2.55-15.23-4.82-21.86-9.46a10.28,10.28,0,0,1-4.58-7.36C1379.84,30.77,1384,26.63,1392.49,26.55Z"/><path class="cls-10" d="M1852.57.63c.19.8.77,1,1.52,1.24,8.57,2.76,11.53,11.76,5.79,18.76-7.37,8.93-17.25,11.74-28.41,9.89-5.86-1-7.92-5-6.38-10.79,1.69-6.33,6.45-10.08,11.39-13.61,3.09-2.19,6.42-4.08,10.38-4.4.3,0,.56-.67.84-1Z"/><path class="cls-10" d="M1919.83,82.74c-5.68-1.73-7.88-6.57-9.74-11.44a36.89,36.89,0,0,1-2.32-15.67,13.89,13.89,0,0,1,12.07-12.86Q1919.82,62.75,1919.83,82.74Z"/><path class="cls-10" d="M1871.25,75.47c-.17-8.24,1.33-15.82,8.08-21.49,4.24-3.55,8.86-3.61,13.67-1.71,4.58,1.8,6.86,5.41,6.88,10.25.07,11.72-6,20.34-14.92,26.92-6.75,5-13.44-2.26-13.69-8.26C1871.19,79.28,1871.25,77.37,1871.25,75.47Z"/><path class="cls-10" d="M1844.86,70.36c-4.45,0-7.23-2.51-7.16-7.55a30.82,30.82,0,0,1,12.7-25.18,12.54,12.54,0,0,1,17.53,2.77,12.41,12.41,0,0,1,1.08,1.78c1.37,2.89.88,5.78.13,8.7C1866.85,59.84,1853.66,70.43,1844.86,70.36Z"/></g></svg>