<svg xmlns="http://www.w3.org/2000/svg" xmlns:xlink="http://www.w3.org/1999/xlink" viewBox="0 0 1929.71 926.78"><defs><style>.cls-1{fill:none;}.cls-2{fill:#f4e0c6;}.cls-2,.cls-3,.cls-4,.cls-5,.cls-6,.cls-7,.cls-8{opacity:0.78;}.cls-3{fill:#f3a17d;}.cls-3,.cls-4,.cls-5,.cls-6,.cls-8{fill-rule:evenodd;}.cls-4{fill:#fff;}.cls-5{fill:#f4c5ab;}.cls-6,.cls-7{fill:#333;}.cls-8{fill:#f5aecd;}.cls-9{clip-path:url(#clip-path);}.cls-10{fill:#f9bc7a;}.cls-11{fill:#b56e35;}</style><clipPath id="clip-path"><rect class="cls-1" x="-1.68" y="-5.98" width="1933.06" height="929.11"/></clipPath></defs><g id="Layer_2" data-name="Layer 2"><rect class="cls-2" x="-210.81" y="-20.71" width="2242.61" height="1000.68"/><path class="cls-3" d="M1920.26,34.29l6.87,11.92,6.92,12a3.81,3.81,0,0,1-1.42,5.18,3.94,3.94,0,0,1-1.88.52h-27.58a3.81,3.81,0,0,1-3.1-6l6.73-11.65,6.86-11.92a3.83,3.83,0,0,1,5.18-1.42,3.72,3.72,0,0,1,1.42,1.42Z"/><path class="cls-4" d="M1827,220.16a13,13,0,1,0-13-13,13,13,0,0,0,13,13Z"/><path class="cls-4" d="M1908.35,471.45A13.34,13.34,0,1,0,1895,458.12a13.34,13.34,0,0,0,13.33,13.33Z"/><path class="cls-5" d="M868.33,547C691.36,594.44,709,364.79,733.11,358.35c13.7-3.72,32.9,4.61,48.06,13.33a176.91,176.91,0,0,1,75-20.09c8.78-15.15,21.22-31.89,34.93-35.62,24.19-6.44,154.23,183.6-22.74,231Z"/><path class="cls-3" d="M766.27,536.46a93.1,93.1,0,0,1-19-18.32c6.12-6,18.94-17.56,23.55-13.32,3.6,3.34-.57,19.26-4.54,31.64ZM742.9,512.08a124,124,0,0,1-10.49-19.14c6-2.65,12.38-4.23,15.73-1.2,4.61,4.11-.63,13.77-5.24,20.34Zm-12.38-23.69a165.12,165.12,0,0,1-7.14-22.92c10.11-7,25.77-16.55,32.28-14.65,6.69,1.95-12,23.49-25.14,37.57ZM953.09,404a166.24,166.24,0,0,1,5.24,23.43c-18.38-5.62-45.35-15-40.55-20S940.84,403,953.09,404ZM959,432.18a121.83,121.83,0,0,1,.51,21.92c-7.27-3.47-16.61-9.16-14.72-15,1.39-4.3,7.77-6.13,14.21-6.89Zm-.25,29.31a92.25,92.25,0,0,1-7.26,25.33c-9.67-8.72-21.23-20.4-19.77-25.14,1.89-5.94,18.76-2.34,27-.19Z"/><path class="cls-5" d="M814.64,371.87s-13.83-9.92-16.54-20.4,10.17-21.29,13.32-8.28,4.42,15,4.42,15-2.58-19.45,2.72-26,19.2-1.14,11.94,11.56-5.31,23.94-5.31,23.94Z"/><path class="cls-4" d="M865.55,536.71c-69.41,18.57-80.15-74.08-23.87-89.18s93.28,70.55,23.87,89.18Z"/><path class="cls-6" d="M779.59,408.69c-8.08,2.21-11.81,14.65-8.33,27.85,2,7.39,5.87,13.45,10.29,17,4.23-.76,10.55.06,14.78.82,5.3-4.54,7.33-14.9,4.42-25.7-3.54-13.2-13-22.11-21.16-20Z"/><path class="cls-4" d="M787.61,422.08c-2.46.63-3.6,4.36-2.59,8.27s3.92,6.51,6.38,5.88,3.67-4.36,2.59-8.28-3.91-6.57-6.38-5.87Zm-4,18.06c-2.46.63-4.23,1.83-4,2.65s2.4,1,4.8.32,4.23-1.83,4-2.65-2.4-1-4.8-.32Z"/><path class="cls-6" d="M808.52,456.75s-15.85-13.64-41-.88c0,0,16.61-5.18,41,.88Z"/><path class="cls-6" d="M876,382.86c8.15-2.15,17.62,6.76,21.16,20,2,7.39,1.7,14.59-.44,19.83-4,1.45-9,5.37-12.32,8.14-6.88-1.26-13.83-9.22-16.74-20.08-3.53-13.2.19-25.64,8.34-27.85Z"/><path class="cls-4" d="M875.72,398.46c2.53-.7,5.37,2,6.38,5.87s-.07,7.64-2.53,8.28-5.37-2-6.38-5.88.07-7.64,2.53-8.27ZM888.29,412c2.46-.63,4.61-.51,4.8.31s-1.58,2.09-4,2.72-4.61.5-4.8-.32,1.58-2,4-2.71Z"/><path class="cls-6" d="M875,438.94s6.95-19.7,35.12-21.22c0,0-17,3.79-35.12,21.22Z"/><path class="cls-6" d="M845,459.85c-6.69,1.83-10.67-1.2-17.43-4.74s-3.6-9-3.6-9,1.39-3.35,15.47-7.07,16.87-1.65,16.87-1.65,5.55,3.22,1.45,9.67-6,11.05-12.76,12.82Z"/><path class="cls-7" d="M835.74,485.17a2.41,2.41,0,1,1,4.1-2.52c2.47,4,6.51,4.92,10.43,4.1l-9.35-34.86a2.43,2.43,0,0,1,1.7-3,2.34,2.34,0,0,1,3,1.71L854.81,485c.19-.06.38-.19.64-.31a19,19,0,0,0,4.23-3.48c2.65-3,3.91-6.56,2.21-9.53a2.41,2.41,0,1,1,4.17-2.4c2.9,5.05,1.2,10.73-2.78,15.16a23,23,0,0,1-5.37,4.42,24,24,0,0,1-6.51,2.59c-5.87,1.26-11.93-.13-15.66-6.26Z"/><path class="cls-8" d="M914.12,423.34c9.66-2.59,18.38-1.39,19.45,2.72s-5.81,9.47-15.47,12.06-18.38,1.39-19.52-2.71,5.88-9.48,15.54-12.07Z"/><path class="cls-8" d="M766.83,462.82c9.67-2.59,18.38-1.39,19.46,2.71s-5.81,9.48-15.48,12.06-18.38,1.39-19.51-2.71,5.87-9.47,15.53-12.06Z"/><path class="cls-4" d="M877.05,350.46s31.45-.13,48.88,13.13c0,0-24.32-37.32-33.22-34.73s-15.66,21.6-15.66,21.6Z"/><path class="cls-4" d="M762.54,381.15s-27.35,15.6-35.81,35.81c0,0,2.4-44.52,11.43-46.67s24.38,10.86,24.38,10.86Z"/><path class="cls-6" d="M878.94,465a1,1,0,0,1-1.39-.57,1.09,1.09,0,0,1,.57-1.39l44.71-19.33a1.16,1.16,0,0,1,1.39.57,1,1,0,0,1-.56,1.39Zm5.94,14a1.1,1.1,0,0,1-1.33-.75,1.13,1.13,0,0,1,.76-1.33l57.28-15.66a1.1,1.1,0,0,1,1.33.75,1,1,0,0,1-.76,1.27Zm1.45,13.58a1,1,0,1,1-.19-2.08l44.21-4.3a1.11,1.11,0,0,1,1.14.95,1.08,1.08,0,0,1-1,1.2Z"/><path class="cls-6" d="M818.12,481.32a1,1,0,1,0-.25-2.08l-48.38,5.62a1,1,0,0,0,.25,2.08Zm1.89,15a1.09,1.09,0,0,0,.76-1.32,1,1,0,0,0-1.33-.7l-57.47,15a1.14,1.14,0,0,0-.76,1.33,1.07,1.07,0,0,0,1.27.76Zm5.5,12.51a1.09,1.09,0,0,0,.57-1.39,1.13,1.13,0,0,0-1.46-.51L784.2,525.34a1.12,1.12,0,0,0-.5,1.46,1.07,1.07,0,0,0,1.39.5Z"/><path class="cls-5" d="M1889.56,1008.38c13.79-67.52,90.18-125.65,104.16-117.56,12.63,7.25,20.53,27.19,25.19,44.48a176.22,176.22,0,0,1,36.64,16.12,173.85,173.85,0,0,1,32.24,23.69c17.34-4.66,38.51-7.77,51.14-.45,4.79,2.78,6.54,15.86,4.59,33.72Z"/><path class="cls-3" d="M114,300.93s-39.73,20.59-27.35,37.51,45.35,6.7,50.08-12.19-.82-30.82-22.73-25.32ZM68.73,312.3s5.18-9.79,12.89-5.75.13,22.86-6.57,19.39-8.15-8.59-6.32-13.64Zm48.7-35.44s-10.48,3.6-7.71,11.81,22.62,3.73,20.15-3.41-7.2-9.41-12.44-8.4Zm-26,6.45S78.59,293,85,300.74s23.24-6.82,18.25-12.13-8.53-7.89-11.81-5.3Z"/><path class="cls-3" d="M320.8,880.72s39.73,20.59,27.35,37.52-45.35,6.69-50.09-12.19.82-30.83,22.74-25.33ZM366,892.09s-5.18-9.79-12.88-5.75-.13,22.86,6.56,19.39,8.15-8.59,6.32-13.64Zm-48.69-35.43s10.48,3.6,7.7,11.81-22.61,3.72-20.15-3.41,7.2-9.41,12.45-8.4Zm26,6.44s12.82,9.66,6.44,17.43-23.24-6.82-18.25-12.13,8.52-7.89,11.81-5.3Z"/><path class="cls-3" d="M254.23,337.5l-3.16,6.18-.19-.12-.38-.19-.31-.19-.32-.13-.38-.19-.31-.19-.32-.12-.31-.19-.32-.13-.32-.19-.31-.12-.32-.19-.31-.13-.26-.19-.31-.13-.25-.12-.32-.19-.25-.13-.32-.12-.25-.13-.25-.13-.26-.12-.25-.13-.25-.13-.25-.12-.26-.13-.25-.12-.19-.13-.25-.13-.19-.06-.25-.13-.19-.12-.19-.07-.19-.12-.19-.07-.19-.12-.19-.06-.19-.13-.13-.06-.19-.07-.12-.06-.19-.13-.13-.06-.12-.06-.13-.07-.13-.06-.12-.06-.13-.07h-.13l-.06-.06-.12-.06-.07-.07h-.06l-.13-.06H239l-.06-.06h0l-.07-.06h-.12v-.07h0l3-6.19h.06l.06.07H242l.06.06h.06l.07.06h.06l.13.07.06.06h.06l.13.06.13.06.06.07.13.06.12.06.19.07.13.06.12.06.13.07.19.12.13.07.19.06.18.13.19.06.19.13.19.06.19.12.19.07.25.12.19.13.19.06.26.13.25.13.19.12.25.13.25.13.26.12.25.13.25.12.25.13.32.13.25.12.32.19.25.13.32.13.25.18.32.13.31.13.32.19.31.12.32.19.31.13.32.19.32.19.31.12.38.19.32.19.31.19.38.13ZM386.67,453.07l-1,6.89-.12-.06h-.38l-.19-.07h-.19l-.19-.06h-.19l-.25-.06H384l-.19-.07h-.25l-.19-.06h-.26l-.25-.06h-.19l-.25-.07-.25-.06h-.26l-.25-.06-.25-.07h-.25l-.26-.06-.25-.06h-.32l-.25-.06-.25-.07h-.32l-.25-.06-.32-.06-.25-.07h-.31l-.32-.06-.25-.06-.32-.07-.31-.06h-.32l-.32-.06-.31-.07-.32-.06-.31-.06-.32-.07-.31-.06-.32-.06-.38-.07-.31-.06-.32-.06-.38-.06-.32-.07-.37-.06-.32-.06-.38-.07,1.33-6.76.31.07.32.06.38.06.31.07.32.06.38.06h.31l.32.07.32.06.31.06.32.07.31.06.32.06.31.07.32.06h.32l.25.06.31.06.32.07h.25l.32.06.25.06.32.07h.25l.25.06.32.06.25.07h.25l.26.06.25.06h.25l.25.07H383l.25.06.25.06h.19l.25.07h.26l.19.06h.19l.25.06H385l.19.07h.25l.19.06h.19l.19.06h.38l.19.06Zm-27-5.05-1.57,6.76h0l-.38-.13-.45-.06-.44-.13-.38-.06-.44-.12-.44-.13-.44-.06-.44-.13-.45-.13-.38-.06-.44-.13-.44-.12-.44-.07-.44-.12-.45-.13-.44-.13-.44-.12-.44-.06-.44-.13-.45-.13-.44-.12-.44-.13-.44-.13-.45-.12-.44-.13-.44-.13-.44-.06-.44-.12-.45-.13-.5-.13-.44-.12,1.95-6.7.38.13.45.12.44.13.44.13.44.12.44.13.45.13.44.06.44.13.38.12.44.13.44.12.45.13.44.06.38.13.44.13.44.12.44.07.45.12.37.13.45.06.44.13.38.12.44.07.44.12.38.07.44.12.44.13.38.06.45.13.37.06Zm-26.14-7.58-2.4,6.51h-.07l-.44-.19-.44-.13-.44-.19-.44-.19-.45-.12-.44-.19-.44-.19-.38-.13-.44-.19-.44-.19-.45-.19-.44-.12-.44-.19-.44-.19-.38-.19-.44-.19-.45-.13-.44-.19-.44-.19-.38-.19-.44-.18-.44-.19-.38-.19-.44-.19-.38-.19-.44-.19-.45-.19-.38-.19-.44-.19-.38-.19-.19-.13,3-6.25.18.13.38.19.38.19.38.19.38.19.38.12.44.19.38.19.38.19.38.19.44.13.38.19.38.18.44.19.38.13.44.19.38.19.44.13.38.19.44.18.38.13.44.19.38.19.45.13.44.19.38.12.44.19.44.13.38.19.44.12.44.19Zm-23.81-11.93-4.11,5.55h-.06l-.32-.25-.31-.25-.32-.25-.32-.26-.37-.25-.32-.25-.25-.25-.32-.26-.31-.25-.32-.32-.32-.25-.25-.25-.31-.25-.32-.26-.25-.25-.26-.25-.31-.32-.25-.25-.26-.25-.25-.25-.25-.26-.25-.31-.26-.26-.19-.25-.25-.25-.25-.25L298,427l-.25-.25-.19-.25-.19-.26-.26-.25-.18-.32-.19-.25-.19-.25-.19-.25-.19-.32-.13-.25-.19-.25-.19-.26-.12-.31-.19-.26-.13-.25,6-3.41.13.19.12.19.13.19.13.19.06.19.19.25.12.19.13.19.13.19.12.19.19.19.13.25.19.19.19.19.12.19.19.25.19.19.19.19.19.25.19.19.19.19.19.26.19.18.25.26.19.19.25.25.19.19.26.25.25.19.25.25.25.19.26.26.25.19.25.25.26.19.31.25.25.19.26.25.31.19.25.25.32.19.25.26Zm-9.48-19.39-6.57-2.34.07-.06.06-.26.13-.25L294,406l.13-.25.06-.25.13-.19.06-.26.13-.25.06-.19.12-.25.13-.19.13-.25.06-.25.13-.19.12-.26.13-.19.13-.25.12-.19.13-.19.12-.25L296,402l.13-.25.12-.19.13-.19.13-.25.12-.19.13-.19.13-.19.12-.26.19-.18.13-.19.12-.19.13-.26.19-.19.13-.19.12-.18.19-.19.13-.19.12-.26.19-.19.13-.19.13-.18.19-.19.12-.19.19-.19.13-.19.19-.19.12-.19.19-.19.13-.19.19-.19.13-.19.18-.19.13-.19.19-.12.13-.19.19-.19.12-.19.19-.19.13-.19.19-.13.06-.06,5,4.67v.07l-.19.12-.12.19-.13.13-.12.19-.19.19-.13.12-.13.19-.19.13-.12.19-.13.12-.13.19-.18.19-.13.13-.13.19-.12.19-.13.12-.13.19-.12.13-.13.19-.13.19-.18.13-.13.19-.13.18-.12.13-.07.19-.12.19-.13.13-.13.19-.12.12-.13.19-.12.19-.13.13-.06.19-.13.19-.13.12-.12.19-.07.19-.12.13-.07.19-.12.19-.13.12-.06.19-.13.19-.06.13-.13.19-.06.19-.06.12-.13.19-.06.19-.07.13-.12.19-.07.19-.06.12-.06.19-.13.19-.06.13-.06.19-.07.19-.06.12-.06.19-.07.19ZM316.88,389l-5.11-4.67.06-.07.06-.12L312,384l.06-.12.13-.13.06-.13.13-.06.06-.13.13-.12.06-.06.13-.13.06-.13.06-.06.07-.13.06-.06.13-.13.06-.06.06-.13.07-.06.06-.06.06-.13v-.06l.07-.06.06-.07.06-.06-.06-.13-.06-.06-.13-.13-.06-.12-.07-.13-.12-.13-.13-.12-.13-.13-.06-.12-.19-.13-.12-.13-.13-.19-.13-.12-.19-.19L312,380l-.19-.19-.19-.19-.19-.12-.19-.19-.19-.19-.19-.19-.19-.19-.25-.19-.19-.19-.13-.06,4.42-5.31.19.13.26.19.25.25.19.19.25.19.25.25.26.19.19.19.25.25.19.19.25.19.19.25.19.19.19.19.19.26.19.18.19.19.19.26.19.19.12.19.19.25.19.19.13.19.12.25.19.19.13.25.13.19.12.25.13.26.12.25.13.25.06.25.13.26.06.25.07.32.06.25.06.31.07.32v1l-.07.38-.06.32-.13.37-.12.32-.07.19-.06.13-.06.19-.13.12-.06.19-.06.13-.13.19-.06.12-.07.13-.12.19-.07.13-.12.12-.07.19-.12.13-.07.12-.12.13-.07.19-.12.13-.13.12-.06.13-.13.19-.12.12-.13.13-.06.13-.13.12-.13.19-.12.13-.13.13-.12.12-.07.13-.12.12-.13.19-.13.13-.12.13Zm-14-24.32-3.72,5.88-.07-.07-.38-.25-.38-.25-.37-.25-.45-.26-.38-.25-.37-.25-.38-.25-.45-.19-.37-.26-.45-.25-.38-.25-.44-.25-.38-.26-.44-.25-.38-.25-.44-.25-.44-.26-.38-.31-.44-.26-.44-.25-.45-.25-.44-.25-.38-.26-.44-.25-.44-.25-.44-.25-.45-.26-.44-.25h0l3.48-6h0l.44.25.44.26.44.31.44.25.45.26.44.25.44.25.44.25.44.26.45.25.44.32.44.25.44.25.38.25.44.26.45.25.37.25.45.25.44.26.38.25.44.25.38.32.44.25.38.25.38.26.44.25.38.25.38.25ZM278.8,350.51l-3.35,6.06-.25-.13-.51-.25-.44-.25-.44-.26-.44-.25-.51-.25-.44-.25-.44-.26-.44-.25-.45-.25-.5-.25-.44-.19-.45-.26-.44-.25-.44-.25-.44-.25-.44-.26-.45-.19L267,352l-.44-.25-.45-.25-.44-.19-.44-.26-.44-.25-.38-.25-.44-.19-.45-.25-.18-.07,3.22-6.12.19.06.44.25.44.26.44.19.44.25.45.25.44.25.44.19.44.26.44.25.45.25.5.25.44.19.45.26.44.25.44.25.51.25.44.26.44.25.44.25.51.25.44.26.44.25.51.25.44.25.44.26.51.25Z"/><path class="cls-3" d="M75.18,760.28,72,766.47l-.19-.13-.32-.13-.38-.19-.31-.19-.32-.18-.38-.13-.31-.19-.32-.13-.31-.19-.32-.12-.31-.19-.32-.13-.25-.19-.32-.12-.31-.19-.26-.13-.31-.13-.26-.12-.25-.13-.31-.19-.26-.12-.25-.13L65.2,763l-.25-.12-.26-.13-.25-.13-.19-.12-.25-.07-.19-.12-.25-.13-.19-.12-.19-.07-.26-.12-.19-.07-.18-.12-.19-.07-.19-.12-.13-.07-.19-.06-.19-.13-.13-.06-.12-.06-.19-.07-.13-.06-.12-.06-.13-.06-.13-.07-.12-.06-.07-.06-.12-.07-.07-.06h-.12l-.06-.06h-.07L60,760.4H60l-.07-.06h-.06l-.06-.06H59.7l3-6.26.07.07-.07-.07.07.07h.06l.06.06H63l.06.06h.06l.07.07.12.06h.07l.12.06.07.07.12.06h.13l.12.06.13.07.13.06.12.06.13.13.19.06.13.06.19.07.18.12.13.07.19.12.19.07.19.12.19.07.25.12.19.07.19.12.25.13.19.12.26.07.25.12.25.13.19.13.25.12.26.13.31.13.25.12.26.19.25.13.31.12.26.13.31.19.32.13.25.12.32.19.31.13.32.19.31.12.32.19.32.13.31.19.38.19.32.19.31.12.38.19.32.19ZM207.62,875.92l-1,6.82h-.13l-.19-.06h-.38l-.19-.07h-.18l-.19-.06h-.19l-.26-.06h-.19l-.25-.07h-.19l-.25-.06h-.19l-.25-.06-.26-.06h-.25l-.25-.07h-.25l-.26-.06-.25-.06h-.25l-.25-.07-.26-.06H201l-.25-.06-.26-.07-.31-.06h-.26l-.31-.06-.32-.07-.25-.06h-.32l-.31-.06-.32-.07-.31-.06-.26-.06-.31-.07-.32-.06h-.38l-.31-.06-.32-.06-.31-.07-.32-.06-.38-.06-.31-.07-.32-.06-.38-.06-.31-.07-.38-.06-.32-.06,1.26-6.82.32.06.38.06.31.07.32.06.38.06.31.06.32.07.32.06.31.06.32.07.31.06H198l.32.06.31.07.32.06.31.06.32.07h.25l.32.06.25.06.32.07h.31l.25.06.26.06.31.07h.25l.26.06.25.06h.25l.26.06.25.07h.25l.25.06h.26l.25.06.25.07h.19l.25.06h.19l.26.06h.18l.19.07h.26l.19.06h.19l.19.06h.37l.19.07h.19Zm-26.91-5-1.57,6.69h0l-.45-.06-.44-.13-.38-.06-.44-.13-.44-.06-.44-.13-.45-.12-.38-.07-.44-.12-.44-.13-.44-.13-.44-.06-.45-.12-.44-.13-.44-.13-.44-.06-.44-.13-.45-.12-.44-.13-.44-.13-.44-.06-.44-.13-.45-.12-.44-.13-.44-.12-.44-.13-.45-.13-.44-.12-.44-.13-.44-.13-.44-.12,1.89-6.63.44.06.45.13.44.12.38.13.44.12.44.13.44.13.44.12.45.13.44.13.44.06.38.13.44.12.44.13.45.12.44.07.38.12.44.13.44.06.44.13.38.13.44.06.45.13.38.12.44.07.44.12.38.06.44.13.38.13.44.06.44.13Zm-26.21-7.65-2.4,6.51h0l-.44-.13-.44-.19-.44-.19-.44-.12-.45-.19-.44-.19-.44-.13-.44-.19-.45-.19-.44-.12-.44-.19-.44-.19-.44-.19-.38-.13-.44-.19-.45-.19-.44-.19-.38-.18-.44-.19-.44-.19-.44-.19-.38-.19-.45-.19-.44-.19-.38-.19-.44-.19-.38-.19-.44-.19-.38-.19-.44-.19-.19-.12,3-6.19.19.06.38.19.38.19.38.19.44.19.38.19.38.19.38.12.38.19.44.19.38.19.38.19.44.13.38.19.44.19.38.18.38.13.44.19.44.19.38.13.44.19.38.12.44.19.38.19.44.13.45.19.38.12.44.19.44.13.38.19.44.12Zm-23.81-11.93-4.1,5.56h-.07l-.31-.26-.32-.25-.31-.25-.32-.25-.31-.26-.32-.25-.32-.25-.31-.26-.32-.25-.31-.25-.26-.25-.31-.26-.32-.31-.25-.25-.32-.26-.25-.25-.25-.25-.32-.25-.25-.32-.25-.25-.26-.26-.25-.25-.19-.25-.25-.32-.25-.25-.19-.25-.25-.25-.19-.26-.26-.31-.19-.26-.19-.25-.19-.25-.25-.25-.19-.32-.12-.25-.19-.25-.19-.26-.19-.31-.19-.26-.13-.25-.19-.25-.12-.32,6.06-3.34.06.19.13.18.13.19.12.19.13.19.12.19.13.19.13.19.12.19.19.25.13.19.19.19.13.19.18.25.19.19.13.19.19.26.19.19.19.19.19.25.19.19.25.19.19.25.19.19.25.25.19.19.25.25.26.19.19.26.25.19.25.25.25.19.26.25.25.19.32.25.25.19.25.25.32.19.25.26.31.19.26.25.31.19Zm-9.47-19.39-6.51-2.28v-.12l.13-.25.06-.19.07-.26.12-.25.07-.19.12-.25.13-.25.06-.19.13-.26.06-.19.13-.25.12-.25.13-.19.13-.25.06-.19.13-.26.12-.18.13-.26.12-.19.13-.19.13-.25.12-.19.13-.25.13-.19.12-.19.13-.25.13-.19.18-.19.13-.19.13-.25.12-.19.13-.19.19-.19.13-.19.12-.25.19-.19.13-.19.12-.19.19-.19.13-.19.13-.19.19-.19.12-.19.19-.19.13-.19.12-.19.19-.19.13-.19.19-.19.13-.19.19-.19.12-.19.19-.18.13-.19.19-.19.19-.19.12-.19.19-.19.13-.13.19-.19.12-.19.07-.06,5.11,4.74H128l-.13.19-.19.12-.12.19-.13.13-.12.19-.19.19-.13.12-.13.19-.19.13-.12.19-.13.19-.12.12-.13.19-.19.13-.13.19-.12.19-.13.13-.13.18-.12.19-.13.13-.12.19-.13.13-.13.19-.12.19-.13.12-.13.19-.12.19-.13.13-.13.19-.12.19-.06.12-.13.19-.13.19-.12.13-.13.19-.06.19-.13.12-.13.19-.06.13-.13.19-.06.19-.12.19-.07.12-.12.19-.07.19-.12.13-.07.19-.12.19-.07.12L122,830l-.06.13-.13.19-.06.19-.07.12-.06.19-.06.19-.07.13-.12.19-.06.19v.13l-.07.19Zm16.61-20.15-5.12-4.61.07-.06.12-.13.07-.13.12-.12.07-.07.12-.12.07-.13.12-.12.07-.07.12-.12.06-.13.07-.06.06-.13.13-.06.06-.13.06-.06.07-.13.06-.06.06-.13.07-.06.06-.06.06-.07.07-.12v-.07l.06-.06-.06-.06-.07-.13-.06-.13-.13-.06-.06-.13-.13-.12L134,804l-.13-.12-.12-.13-.13-.19-.12-.13-.19-.12-.13-.19L133,803l-.13-.19-.19-.19-.19-.12-.18-.19-.19-.19L132,802l-.19-.19-.19-.19-.19-.19-.25-.19-.13-.12,4.42-5.31.19.13.25.25.25.19.26.19.25.25.19.19.25.25.25.19.19.19.19.26.26.19.19.18.19.26.18.19.26.19.19.19.12.25.19.19.19.19.19.25.13.19.19.19.12.25.19.19.13.25.13.19.12.26.13.25.12.19.13.25.13.25.12.26.07.25.12.31.07.26.06.31.06.32v1.26l-.06.38-.06.32-.13.38-.13.31-.06.19-.06.19-.07.13-.06.19-.13.12-.06.19-.06.13-.13.12-.06.19-.06.13-.13.19-.06.13-.13.12-.06.13-.13.19-.13.12-.06.13-.13.13-.06.19-.12.12-.13.13-.13.13-.06.12-.13.19-.12.13-.13.12-.13.13-.06.13-.13.19-.12.12-.13.13-.12.12-.13.13-.13.13Zm-14-24.25-3.79,5.81-.06-.06-.38-.26-.38-.19-.38-.25-.38-.25-.38-.25-.44-.26-.38-.25-.38-.25-.44-.26-.38-.25-.44-.25-.38-.25-.44-.26-.38-.25-.44-.25-.44-.25-.38-.26-.44-.25-.45-.25-.44-.25-.38-.26-.44-.25-.44-.25-.44-.25-.45-.32-.44-.25-.44-.26-.44-.25h0l3.47-6h0l.51.32.44.25.44.25.44.26.45.25.44.25.44.32.44.25.44.25.38.25.44.26.45.25.44.25.44.25.38.26.44.31.44.26.38.25.45.25.44.25.38.26.38.25.44.25.38.25.44.26.38.25.38.25.38.25ZM99.75,773.35l-3.35,6.06-.25-.19L95.7,779l-.44-.25-.5-.25-.45-.26-.44-.25-.44-.19-.51-.25-.44-.25L92,777l-.44-.25-.44-.25-.51-.25-.44-.26-.44-.25-.45-.19-.44-.25-.44-.25L88,774.8l-.44-.25-.45-.19-.44-.25-.44-.25-.44-.19-.44-.26-.45-.25-.44-.19-.19-.12,3.22-6.13.19.13.44.18.45.26.44.25.44.19.44.25.44.25.45.26.5.25.44.19.45.25.44.25.44.26.44.25.51.25.44.26.44.18.44.26.45.25.5.25.44.26.45.25.5.25.44.25.45.26.5.25.44.25Z"/><path class="cls-3" d="M599.14,71l-.95,6.89H598l-.13-.07h-.19l-.18-.06h-.45l-.19-.06h-.19l-.19-.07h-.25L596,77.6h-.25l-.25-.06-.19-.07h-.25l-.26-.06h-.25l-.19-.06-.25-.07h-.25l-.32-.06-.25-.06h-.26l-.25-.07-.25-.06h-.32L592,77l-.32-.07-.25-.06h-.31l-.26-.06-.31-.06-.32-.07h-.31l-.26-.06-.31-.06-.32-.07-.31-.06-.32-.06-.32-.07h-.31l-.38-.06-.32-.06-.31-.07-.32-.06-.38-.06-.31-.07-.38-.06-.32-.06-.38-.07-.31-.06,1.26-6.82.32.06.38.07.31.06.38.06.32.07.31.06.32.06.31.07.38.06.32.06h.31l.32.07.32.06.25.06.31.06.32.07h.32l.31.06.25.06L592,70l.25.06h.32l.25.06.32.07h.25l.25.06.26.06.31.07h.25l.26.06H595l.25.06.25.07h.19l.26.06h.25l.19.06.25.06h.19l.25.07h.19l.26.06h.18l.19.06h.38l.19.07h.19l.19.06h.32Zm-26.91-5-1.58,6.7h0l-.44-.07-.38-.12-.44-.07-.44-.12-.44-.13-.45-.06-.38-.13-.44-.13-.44-.06-.44-.12-.44-.13-.45-.06-.44-.13-.44-.13-.38-.12-.44-.07-.44-.12-.45-.13-.44-.13-.44-.12-.44-.13-.44-.06-.51-.13-.44-.12-.44-.13-.45-.13-.44-.12-.44-.13-.44-.12-.44-.13-.45-.13,1.9-6.69.44.12.44.13.45.13.44.12.44.13.38.13.44.12.44.13.44.12.45.07.44.12.44.13.38.13.44.12.44.07.45.12.44.13.38.12.44.07.44.12L568,65l.44.06.44.13.45.13.38.06.44.13.38.06.44.13.44.06.38.13.44.12ZM546,58.4l-2.34,6.5h-.06l-.44-.19-.44-.12-.44-.19-.45-.13-.44-.19-.44-.19-.44-.12-.45-.19-.44-.19-.44-.13-.44-.19-.44-.19-.38-.19-.44-.19-.45-.12-.44-.19-.44-.19-.38-.19-.44-.19-.44-.19-.38-.19-.45-.19-.44-.19-.38-.19-.44-.19-.38-.19L532,60.1l-.44-.19-.38-.18-.44-.19-.19-.13,3-6.19.19.06.38.19.38.19.44.19.38.19.38.19.38.19.37.13.45.19.38.19.37.18.45.19.38.13.37.19.45.19.38.13.44.19.38.18.44.13.38.19.44.19.38.13.44.19.44.12.38.19.44.19.38.13.45.19.44.12.44.19.38.13ZM522.21,46.46,518.11,52h0l-.38-.25-.32-.26-.31-.25-.32-.25-.32-.25-.31-.26-.32-.25-.31-.25-.32-.25-.32-.26-.25-.25-.31-.31-.32-.26-.25-.25-.25-.25-.32-.26-.25-.25-.26-.31-.25-.26-.25-.25-.25-.25-.26-.25-.25-.26-.25-.31-.25-.26-.19-.25-.26-.25-.19-.25-.25-.32-.19-.25-.19-.25-.19-.26-.19-.31-.19-.26-.19-.25-.19-.25-.18-.32-.19-.25-.13-.25-.19-.25-.13-.32-.19-.25,6.07-3.41.06.19.13.19.12.25.13.19.13.19.12.19.13.19.13.19.18.19.13.25.13.19.19.19.12.19.19.25.19.19.13.19.19.19.19.25.19.19.19.19.19.25.25.19.19.25.19.19.25.26.19.19.25.18.25.26.26.19.19.25.25.19.25.25.32.25.25.19.25.26.26.19.31.25.25.19.26.25.31.19.26.25.31.19Zm-9.47-19.39-6.51-2.27v-.13l.13-.25.06-.19.13-.25.06-.25.13-.19.06-.26.13-.25.06-.19.13-.25.12-.25.07-.19.12-.26.13-.19.12-.25.13-.19.06-.25.13-.19.13-.25.12-.19.13-.25.13-.19.12-.19.13-.26.12-.19.13-.19.13-.25.19-.19.12-.19.13-.19.13-.25.12-.19.19-.19.13-.19.12-.25.13-.19.19-.19.13-.19.12-.19.19-.19.13-.19.19-.19.12-.25.13-.19.19-.19.13-.19.19-.19.12-.19.19-.19.13-.19.19-.18.12-.13.19-.19.13-.19.19-.19.13-.19.18-.19.13-.19.19-.19.13-.19.19-.12.19-.19V12.1l5.11,4.68-.06.06-.13.19-.12.13-.19.19-.13.12-.13.19-.19.13-.12.19-.13.19-.12.12-.19.19-.13.13-.13.19-.12.19-.13.12-.13.19-.19.13-.12.19-.13.19-.12.13-.13.19-.13.18-.12.13-.13.19-.13.19-.12.13-.13.19-.12.19-.13.12-.13.19-.06.13-.13.19-.12.19-.13.12-.13.19-.06.19-.13.13-.12.19-.06.19-.13.12-.13.19-.06.19-.13.13-.06.19-.13.19-.06.12-.13.19-.06.19-.06.13-.13.19-.06.19-.06.12-.07.19-.12.19-.07.13-.06.19-.06.19-.07.12-.06.19-.06.19-.07.13-.06.19ZM529.41,6.93l-5.18-4.68h.07l.12-.12.06-.13.13-.13.13-.12.06-.07.13-.12.06-.13.06-.06.13-.13.06-.13.07-.06.12-.12.07-.07.06-.12.06-.07.06-.12.07-.07.06-.12.06-.07.07-.06L526,.1l.06-.06.07-.06V-.09l-.07-.06L526-.27l-.06-.13-.13-.06-.06-.13-.13-.13-.06-.12L525.43-1l-.12-.19-.13-.13-.13-.12-.12-.19-.19-.13-.13-.19L524.42-2l-.19-.19-.12-.13-.19-.19-.19-.19-.19-.19L523.28-3l-.18-.19-.19-.19-.26-.19-.12-.13L527-9l.13.12.25.26.25.18.26.19.25.26.19.19.25.19.25.25.19.19.25.19.19.25.19.19.26.19.19.25.19.19.18.19.19.25.19.19.13.19.19.19.19.25.13.19.18.26.13.19.13.25.12.19.19.25.13.19.13.25.06.26.13.25.12.25.06.25.13.32.06.25.07.32.06.25v.32l.06.37-.06.32V.55l-.06.38-.07.31-.06.38-.13.32-.12.19-.06.12-.07.19-.06.19-.06.13-.13.12-.06.19-.07.13-.12.19-.07.12-.12.13-.07.19-.12.13-.07.12-.12.13-.06.19-.13.13-.13.12-.06.13-.13.19-.12.12-.07.13-.12.13-.13.19-.13.12-.06.13-.12.12-.13.13-.13.13-.12.19-.13.12-.13.13-.12.13-.13.12ZM513.87-15l-2.27,3.53-.06-.06-.38-.25-.38-.26-.38-.18-.38-.26-.38-.25L509.2-13l-.38-.26-.38-.25-.44-.25-.38-.25-.38-.26-.44-.25-.44-.25L506-15Z"/><path class="cls-3" d="M341.83,3.39,348.59,15l6.69,11.68A3.7,3.7,0,0,1,354,31.75a3.8,3.8,0,0,1-1.83.44v.06h-27a3.72,3.72,0,0,1-3.67-3.72,4.06,4.06,0,0,1,.64-2.15L328.69,15l6.76-11.68A3.75,3.75,0,0,1,340.5,2a3.42,3.42,0,0,1,1.33,1.39Z"/><path class="cls-3" d="M762.28,635.35,769,647l6.76,11.62a3.72,3.72,0,0,1-1.39,5.05,3.78,3.78,0,0,1-1.84.51h-26.9a3.7,3.7,0,0,1-3.73-3.73,3.8,3.8,0,0,1,.7-2.15l6.57-11.3,6.69-11.69a3.72,3.72,0,0,1,5-1.39,4.1,4.1,0,0,1,1.39,1.39Z"/><path class="cls-3" d="M660.34,3.45,667,15.07l6.76,11.69a3.71,3.71,0,0,1-1.39,5,3.76,3.76,0,0,1-1.83.5H643.66a3.69,3.69,0,0,1-3.72-3.72,3.79,3.79,0,0,1,.69-2.15l6.57-11.37,6.7-11.62a3.7,3.7,0,0,1,6.44,0Z"/><path class="cls-3" d="M739.29,902.13,746,913.75l6.7,11.69a3.7,3.7,0,0,1-1.33,5,3.8,3.8,0,0,1-1.83.44V931h-27a3.77,3.77,0,0,1-3.72-3.72,3.65,3.65,0,0,1,.69-2.15l6.57-11.37,6.76-11.62a3.64,3.64,0,0,1,5-1.39,3.33,3.33,0,0,1,1.39,1.39Z"/><path class="cls-3" d="M14.73,797.29l6.7,11.62,6.76,11.68a3.73,3.73,0,0,1-1.39,5.06,3.87,3.87,0,0,1-1.83.5H-1.94a3.7,3.7,0,0,1-3.73-3.73,3.63,3.63,0,0,1,.7-2.14L1.6,808.91l6.69-11.62a3.73,3.73,0,0,1,5.05-1.39,3.57,3.57,0,0,1,1.39,1.39Z"/><path class="cls-4" d="M213.43,106.34a13,13,0,1,0-13-13,13,13,0,0,0,13,13Z"/><path class="cls-4" d="M617,193.05a13,13,0,1,0-13-13,13,13,0,0,0,13,13Z"/><path class="cls-4" d="M603.5,671a13,13,0,1,0-13-13,13,13,0,0,0,13,13Z"/><path class="cls-4" d="M409.79,408.61a13,13,0,1,0-13-12.95,13,13,0,0,0,13,12.95Z"/><path class="cls-4" d="M648.72,430a13,13,0,1,0-13-13,13,13,0,0,0,13,13Z"/><path class="cls-4" d="M768.21,271.5a13,13,0,1,0-13-12.95,13,13,0,0,0,13,12.95Z"/><path class="cls-4" d="M754.13,23.22a13,13,0,1,0-13-13,13,13,0,0,0,13,13Z"/><path class="cls-4" d="M408.72,100.08a13,13,0,1,0-13-13,13,13,0,0,0,13,13Z"/><path class="cls-4" d="M194.67,281.85a13,13,0,1,0-12.95-12.94,13,13,0,0,0,12.95,12.94Z"/><path class="cls-4" d="M-12.55,336.93A13,13,0,0,0,.4,324a13,13,0,0,0-12.95-13,13,13,0,0,0-13,13,13,13,0,0,0,13,12.95Z"/><path class="cls-4" d="M38.36,520.84a13,13,0,1,0-13-13,13,13,0,0,0,13,13Z"/><path class="cls-4" d="M241.16,492.61a13,13,0,1,0-12.95-13,13,13,0,0,0,12.95,13Z"/><path class="cls-4" d="M467.39,579a13,13,0,1,0-12.95-13,13,13,0,0,0,12.95,13Z"/><path class="cls-4" d="M382.25,737.48a13,13,0,1,0-13-13,13,13,0,0,0,13,13Z"/><path class="cls-4" d="M159.87,768.61a13,13,0,1,0-13-13,13,13,0,0,0,13,13Z"/><path class="cls-4" d="M16.5,687.58a13,13,0,1,0-12.94-13,13,13,0,0,0,12.94,13Z"/><path class="cls-4" d="M777,768.61a13,13,0,1,0-13-13,13,13,0,0,0,13,13Z"/><path class="cls-4" d="M441.43,910.4a13,13,0,1,0-12.95-12.94,13,13,0,0,0,12.95,12.94Z"/><path class="cls-4" d="M100.88,891a13,13,0,1,0-13-13,13,13,0,0,0,13,13Z"/><path class="cls-5" d="M198.78,725.92C15.56,725.92,92,508.65,117,508.65c14.21,0,30.57,13,43,25.33a166.74,166.74,0,0,1,38.78-4.29A167.18,167.18,0,0,1,237.56,534c12.38-12.38,28.8-25.33,43-25.33,25,0,101.43,217.27-81.79,217.27Z"/><path class="cls-3" d="M102.9,689.29a91.85,91.85,0,0,1-13.58-22.55c7.46-4.3,22.8-12.13,26.15-6.82,2.65,4.17-5.49,18.44-12.57,29.37ZM86.67,659.73a116.34,116.34,0,0,1-5.18-21.22c6.44-1,13-.89,15.48,2.9,3.41,5.18-4.17,13.14-10.3,18.32Zm-5.81-26.09a160.2,160.2,0,0,1-1-24c11.56-4.1,29.18-9.34,35-5.81s-17.68,19.58-34,29.81Zm236.78-24a160.18,160.18,0,0,1-.95,24c-16.35-10.23-40-26.21-34-29.81,5.82-3.53,23.37,1.71,34.93,5.81Zm-1.58,28.87a126.14,126.14,0,0,1-5.18,21.22c-6.19-5.18-13.77-13.14-10.35-18.32,2.46-3.79,9.09-3.91,15.53-2.9Zm-7.83,28.23a92.08,92.08,0,0,1-13.64,22.55c-7-10.93-15.22-25.2-12.57-29.37,3.35-5.31,18.76,2.52,26.21,6.82Z"/><path class="cls-5" d="M192.21,542.82s-10.74-13.13-10.67-24,15.34-17.87,15-4.48.38,15.6.38,15.6,2.52-19.45,9.34-24.44,18.89,3.85,8.53,14.21-11.31,21.79-11.31,21.79Z"/><path class="cls-4" d="M198.78,715.24c-71.88,0-58.23-92.33,0-92.33s71.81,92.33,0,92.33Z"/><path class="cls-6" d="M148.88,569.35c-8.4,0-15.28,11-15.28,24.76,0,7.64,2.21,14.46,5.56,19,4.23.38,10.16,2.84,14,4.67,6.38-3,11-12.5,11-23.68,0-13.71-6.89-24.76-15.29-24.76Z"/><path class="cls-4" d="M153.11,584.32c-2.52,0-4.61,3.28-4.61,7.32s2.09,7.33,4.61,7.33,4.68-3.28,4.68-7.33-2.09-7.32-4.68-7.32Zm-8.59,16.42c-2.52,0-4.54.69-4.54,1.51s2,1.58,4.54,1.58,4.62-.69,4.62-1.58-2.09-1.51-4.62-1.51Z"/><path class="cls-6" d="M164.36,623.22S152.55,606,125,611.79c0,0,17.43-.69,39.41,11.43Z"/><path class="cls-6" d="M248.67,569.35c8.4,0,15.22,11,15.22,24.76,0,7.64-2.14,14.46-5.49,19-4.3.38-10.17,2.84-14.09,4.67-6.31-3-10.92-12.5-10.92-23.68,0-13.71,6.82-24.76,15.28-24.76Z"/><path class="cls-4" d="M244.38,584.32c2.59,0,4.67,3.28,4.67,7.32S247,599,244.38,599s-4.61-3.28-4.61-7.33,2.08-7.32,4.61-7.32ZM253,600.74c2.52,0,4.61.69,4.61,1.51s-2.09,1.58-4.61,1.58-4.55-.69-4.55-1.58,2-1.51,4.55-1.51Z"/><path class="cls-6" d="M233.14,623.22S245,606,272.55,611.79c0,0-17.44-.69-39.41,11.43Z"/><path class="cls-6" d="M198.78,635.67c-6.95,0-10-3.92-15.67-9.1s-1.07-9.66-1.07-9.66,2.21-2.84,16.74-2.84,16.73,2.84,16.73,2.84,4.55,4.54-1.13,9.66-8.66,9.1-15.6,9.1Z"/><path class="cls-7" d="M183.3,657.71a2.4,2.4,0,1,1,4.61-1.33c1.33,4.49,5,6.44,9,6.63V626.89a2.4,2.4,0,0,1,4.8,0v35.62l.69-.19a18.76,18.76,0,0,0,5-2.21c3.35-2.21,5.49-5.37,4.61-8.65a2.44,2.44,0,0,1,1.71-3,2.48,2.48,0,0,1,3,1.7c1.52,5.69-1.64,10.68-6.63,14A24.05,24.05,0,0,1,203.7,667a21.32,21.32,0,0,1-6.94.82c-6-.25-11.44-3.22-13.46-10.1Z"/><path class="cls-8" d="M275,633.58c10,0,18.13-3.41,18.13-7.64S285,618.3,275,618.3s-18.13,3.41-18.13,7.64,8.15,7.64,18.13,7.64Z"/><path class="cls-8" d="M122.55,633.58c10,0,18.06-3.41,18.06-7.64s-8.09-7.64-18.06-7.64-18.13,3.41-18.13,7.64,8.15,7.64,18.13,7.64Z"/><path class="cls-4" d="M258,538.34s30.44,8,43.83,25.33c0,0-13.83-42.38-23.11-42.19S258,538.34,258,538.34Z"/><path class="cls-4" d="M139.47,538.34s-30.44,8-43.77,25.33c0,0,13.77-42.38,23.06-42.19s20.71,16.86,20.71,16.86Z"/><path class="cls-6" d="M230.23,649.5a1.09,1.09,0,0,1-.32-2.15l48.19-7.07a1.06,1.06,0,0,1,1.2.88,1,1,0,0,1-.88,1.2Zm2.08,15a1.16,1.16,0,0,1-1.07-1.08,1.11,1.11,0,0,1,1.07-1.07l59.44-.32a1.11,1.11,0,0,1,1.07,1.08,1.06,1.06,0,0,1-1.07,1.07ZM230.23,678a1.06,1.06,0,0,1-.88-1.2,1.15,1.15,0,0,1,1.26-.88l43.83,7.32a1,1,0,0,1,.82,1.2,1,1,0,0,1-1.2.89Z"/><path class="cls-6" d="M167.26,649.5a1.07,1.07,0,0,0,1.2-1,1,1,0,0,0-.88-1.2l-48.19-7.07a1.09,1.09,0,0,0-1.2.88,1.06,1.06,0,0,0,.88,1.2Zm-2.08,15a1.08,1.08,0,0,0,0-2.15L105.75,662a1.08,1.08,0,0,0,0,2.15ZM167.26,678a1,1,0,0,0,.89-1.2,1.07,1.07,0,0,0-1.2-.88l-43.84,7.32a1.12,1.12,0,0,0-.88,1.2,1,1,0,0,0,1.26.89Z"/><path class="cls-5" d="M448.13,335.35c-177,47.43-159.35-182.21-135.23-188.66C326.61,143,345.81,151.3,361,160a176.7,176.7,0,0,1,75-20.08c8.78-15.16,21.22-31.9,34.92-35.62,24.19-6.45,154.24,183.6-22.73,231Z"/><path class="cls-3" d="M346.06,324.8a93.36,93.36,0,0,1-19-18.32c6.13-6,18.95-17.55,23.56-13.32,3.6,3.35-.57,19.26-4.55,31.64Zm-23.37-24.38a124.75,124.75,0,0,1-10.48-19.14c6-2.65,12.38-4.23,15.73-1.2,4.61,4.11-.64,13.77-5.25,20.34Zm-12.38-23.68a167,167,0,0,1-7.13-22.93c10.1-6.95,25.77-16.55,32.27-14.65,6.7,2-12,23.49-25.14,37.58Zm222.57-84.45a165,165,0,0,1,5.25,23.44c-18.38-5.62-45.35-15-40.55-20s23.05-4.36,35.3-3.42Zm5.88,28.24a120.78,120.78,0,0,1,.5,21.91c-7.26-3.47-16.61-9.16-14.71-15,1.39-4.29,7.77-6.13,14.21-6.88Zm-.25,29.3a91.92,91.92,0,0,1-7.27,25.33c-9.66-8.72-21.22-20.4-19.77-25.14,1.9-5.94,18.76-2.34,27-.19Z"/><path class="cls-5" d="M394.44,160.21s-13.83-9.92-16.55-20.4,10.17-21.28,13.33-8.27,4.42,15,4.42,15-2.59-19.45,2.72-26,19.2-1.13,11.93,11.56S405,156,405,156Z"/><path class="cls-4" d="M445.35,325.05c-69.41,18.57-80.15-74.08-23.88-89.18s93.29,70.55,23.88,89.18Z"/><path class="cls-6" d="M359.39,197c-8.09,2.21-11.81,14.65-8.34,27.85,2,7.39,5.88,13.46,10.3,17,4.23-.75,10.54.07,14.78.82,5.3-4.54,7.32-14.9,4.42-25.7-3.54-13.2-13-22.11-21.16-20Z"/><path class="cls-4" d="M367.41,210.42c-2.46.63-3.6,4.36-2.59,8.27s3.92,6.51,6.38,5.88,3.66-4.36,2.59-8.28-3.92-6.56-6.38-5.87Zm-4,18.06c-2.47.64-4.23,1.84-4,2.66s2.4,1,4.8.31,4.23-1.83,4-2.65-2.4-1-4.8-.32Z"/><path class="cls-6" d="M388.32,245.09s-15.86-13.64-41-.88c0,0,16.61-5.18,41,.88Z"/><path class="cls-6" d="M455.77,171.2c8.15-2.15,17.62,6.76,21.16,20,1.95,7.39,1.7,14.59-.45,19.83-4,1.45-9,5.37-12.31,8.15-6.89-1.27-13.83-9.22-16.74-20.09-3.54-13.2.19-25.64,8.34-27.85Z"/><path class="cls-4" d="M455.52,186.8c2.52-.69,5.36,2,6.37,5.87s-.06,7.65-2.52,8.28-5.37-2-6.38-5.88.06-7.64,2.53-8.27Zm12.56,13.58c2.47-.63,4.61-.51,4.8.31s-1.57,2.09-4,2.72-4.62.51-4.8-.32,1.57-2,4-2.71Z"/><path class="cls-6" d="M454.76,227.28s6.95-19.7,35.11-21.22c0,0-17,3.79-35.11,21.22Z"/><path class="cls-6" d="M424.76,248.19c-6.7,1.83-10.68-1.2-17.43-4.74s-3.6-9-3.6-9,1.39-3.35,15.47-7.07,16.86-1.64,16.86-1.64,5.56,3.22,1.46,9.66-6,11-12.76,12.82Z"/><path class="cls-7" d="M415.54,273.52a2.41,2.41,0,1,1,4.1-2.53c2.47,4,6.51,4.93,10.42,4.11l-9.34-34.87a2.44,2.44,0,0,1,1.7-3,2.34,2.34,0,0,1,3,1.71l9.22,34.36a6.28,6.28,0,0,0,.63-.32,19,19,0,0,0,4.23-3.47c2.66-3,3.92-6.57,2.21-9.54a2.41,2.41,0,0,1,4.17-2.4c2.91,5,1.2,10.74-2.78,15.16a22.78,22.78,0,0,1-5.36,4.42,24,24,0,0,1-6.51,2.59c-5.87,1.26-11.94-.13-15.66-6.25Z"/><path class="cls-8" d="M493.92,211.68c9.66-2.59,18.38-1.39,19.45,2.72s-5.81,9.47-15.48,12.06-18.37,1.39-19.51-2.71,5.87-9.48,15.54-12.07Z"/><path class="cls-8" d="M346.63,251.16c9.66-2.59,18.38-1.39,19.45,2.71s-5.81,9.48-15.47,12.07-18.38,1.39-19.52-2.72,5.88-9.47,15.54-12.06Z"/><path class="cls-4" d="M456.84,138.8s31.45-.13,48.89,13.14c0,0-24.32-37.33-33.22-34.74s-15.67,21.6-15.67,21.6Z"/><path class="cls-4" d="M342.34,169.49s-27.35,15.6-35.81,35.82c0,0,2.4-44.53,11.43-46.68s24.38,10.86,24.38,10.86Z"/><path class="cls-6" d="M458.74,253.37a1,1,0,0,1-1.39-.57,1.09,1.09,0,0,1,.57-1.39l44.71-19.33a1.16,1.16,0,0,1,1.39.57,1,1,0,0,1-.57,1.39Zm5.93,14a1.1,1.1,0,0,1-1.32-.76,1.13,1.13,0,0,1,.76-1.33l57.28-15.66a1.1,1.1,0,0,1,1.33.76,1,1,0,0,1-.76,1.26Zm1.46,13.58a1,1,0,0,1-.19-2.09l44.21-4.29a1.09,1.09,0,0,1,1.13.94,1.06,1.06,0,0,1-.94,1.2Z"/><path class="cls-6" d="M397.92,269.66a1,1,0,0,0,.94-1.13,1.07,1.07,0,0,0-1.2-.95l-48.38,5.62a1,1,0,0,0,.26,2.08Zm1.89,15a1.11,1.11,0,0,0,.76-1.33,1,1,0,0,0-1.33-.7l-57.47,15A1.12,1.12,0,0,0,341,299a1.06,1.06,0,0,0,1.26.76Zm5.49,12.5a1.09,1.09,0,0,0,.57-1.39,1.11,1.11,0,0,0-1.45-.5L364,313.68a1.13,1.13,0,0,0-.51,1.46,1.06,1.06,0,0,0,1.39.5Z"/><path class="cls-5" d="M560.11,913.69c177,47.43,159.34-182.21,135.22-188.66-13.71-3.66-32.91,4.61-48.07,13.33a179,179,0,0,0-75-20.08c-8.78-15.1-21.23-31.9-35-35.56-24.13-6.51-154.24,183.54,22.8,231Z"/><path class="cls-3" d="M662.17,903.14a91.47,91.47,0,0,0,19-18.25c-6.07-6.07-18.89-17.56-23.5-13.39-3.66,3.35.57,19.26,4.55,31.64Zm23.37-24.32A125.37,125.37,0,0,0,696,859.62c-6-2.58-12.38-4.16-15.79-1.2-4.61,4.17.7,13.77,5.31,20.4Zm12.31-23.68A162.66,162.66,0,0,0,705,832.21c-10-6.94-25.7-16.61-32.21-14.71-6.69,2,11.94,23.49,25.07,37.64Zm-222.5-84.51A167.09,167.09,0,0,0,470,794.07c18.44-5.62,45.41-15,40.61-20s-23.11-4.36-35.3-3.42Zm-5.94,28.3a125.64,125.64,0,0,0-.5,21.85c7.32-3.47,16.67-9.16,14.77-15-1.45-4.29-7.76-6.13-14.27-6.82Zm.25,29.31A93,93,0,0,0,477,853.56c9.66-8.71,21.22-20.46,19.77-25.14-1.9-6-18.76-2.4-27.1-.18Z"/><path class="cls-5" d="M613.79,738.55s13.83-9.85,16.55-20.4-10.23-21.22-13.39-8.27-4.36,15-4.36,15,2.59-19.45-2.72-26.09-19.2-1.13-11.93,11.56,5.3,23.94,5.3,23.94Z"/><path class="cls-4" d="M562.88,903.39C632.23,922,643,829.31,586.76,814.28s-93.29,70.54-23.88,89.11Z"/><path class="cls-6" d="M648.78,775.43c8.15,2.15,11.87,14.59,8.34,27.79-2,7.46-5.81,13.46-10.23,17-4.24-.75-10.55.13-14.78.89-5.37-4.55-7.33-14.91-4.42-25.77,3.53-13.2,12.94-22.11,21.09-19.9Z"/><path class="cls-4" d="M640.82,788.76c2.47.7,3.6,4.36,2.59,8.27s-3.91,6.57-6.38,5.88-3.66-4.36-2.59-8.28,3.92-6.5,6.38-5.87Zm4,18.06c2.47.64,4.24,1.84,4,2.72s-2.33,1-4.8.32-4.23-1.9-4-2.72,2.4-.95,4.8-.32Z"/><path class="cls-6" d="M619.85,823.43s15.92-13.57,41.06-.82c0,0-16.68-5.24-41.06.82Z"/><path class="cls-6" d="M552.4,749.6c-8.08-2.21-17.56,6.7-21.09,19.9-2,7.45-1.71,14.59.37,19.83,4.05,1.52,9.1,5.37,12.38,8.15,6.89-1.27,13.77-9.22,16.68-20.09,3.53-13.13-.19-25.64-8.34-27.79Z"/><path class="cls-4" d="M552.65,765.14c-2.46-.63-5.3,2-6.38,5.87s.13,7.65,2.59,8.28,5.37-2,6.38-5.88-.12-7.58-2.59-8.27Zm-12.5,13.64c-2.47-.69-4.61-.5-4.87.32s1.58,2,4.05,2.65,4.54.51,4.8-.32-1.58-2-4-2.65Z"/><path class="cls-6" d="M553.47,805.69s-7-19.77-35.11-21.29c0,0,17,3.79,35.11,21.29Z"/><path class="cls-6" d="M583.47,826.53c6.7,1.83,10.61-1.2,17.44-4.67s3.6-9.1,3.6-9.1-1.46-3.28-15.48-7.07-16.92-1.58-16.92-1.58-5.56,3.22-1.39,9.6,6,11,12.75,12.82Z"/><path class="cls-7" d="M592.7,851.86a2.39,2.39,0,0,0-.83-3.29,2.36,2.36,0,0,0-3.28.76c-2.46,4-6.51,4.93-10.42,4.11l9.35-34.87a2.45,2.45,0,0,0-4.74-1.26l-9.16,34.42a5.81,5.81,0,0,1-.63-.38,19,19,0,0,1-4.23-3.47c-2.65-2.91-3.92-6.57-2.21-9.54a2.4,2.4,0,0,0-.89-3.28,2.43,2.43,0,0,0-3.28.88c-3,5-1.2,10.74,2.78,15.16a22.84,22.84,0,0,0,5.37,4.42,20.59,20.59,0,0,0,6.5,2.59c5.88,1.33,11.88-.13,15.67-6.25Z"/><path class="cls-8" d="M514.32,790c-9.67-2.59-18.38-1.39-19.52,2.72s5.87,9.47,15.54,12.06,18.38,1.39,19.45-2.71S524,792.61,514.32,790Z"/><path class="cls-8" d="M661.6,829.5c-9.66-2.59-18.38-1.39-19.45,2.71s5.81,9.48,15.47,12.07,18.38,1.39,19.45-2.72-5.81-9.47-15.47-12.06Z"/><path class="cls-4" d="M551.39,717.2s-31.45-.19-48.88,13.14c0,0,24.31-37.39,33.22-34.8s15.66,21.66,15.66,21.66Z"/><path class="cls-4" d="M665.9,747.9s27.34,15.53,35.74,35.81c0,0-2.33-44.53-11.37-46.74S665.9,747.9,665.9,747.9Z"/><path class="cls-6" d="M549.43,831.71a1.05,1.05,0,1,0,.89-1.9L505.6,810.49a1,1,0,0,0-1.39.5,1.1,1.1,0,0,0,.57,1.46Zm-5.87,14a1.07,1.07,0,0,0,1.32-.76,1,1,0,0,0-.75-1.26l-57.35-15.73a1,1,0,0,0-1.26.76,1.07,1.07,0,0,0,.75,1.32Zm-1.45,13.64a1.05,1.05,0,0,0,1.13-.95,1.07,1.07,0,0,0-.94-1.2l-44.22-4.23a1.13,1.13,0,0,0-1.2,1,1.1,1.1,0,0,0,1,1.13Z"/><path class="cls-6" d="M610.32,848.07a1.11,1.11,0,0,1-1-1.2,1.06,1.06,0,0,1,1.14-1l48.38,5.62a1.06,1.06,0,0,1,.94,1.2,1,1,0,0,1-1.2.88Zm-1.9,15a1.05,1.05,0,1,1,.57-2l57.47,15.1a1,1,0,0,1,.76,1.26,1.13,1.13,0,0,1-1.32.76Zm-5.49,12.56a1.08,1.08,0,0,1-.57-1.45,1.06,1.06,0,0,1,1.39-.5l40.48,18.44a1,1,0,1,1-.88,1.89Z"/><path class="cls-5" d="M-93.39,985.63C-79.94,919.75-5.41,863,8.23,870.93c12.31,7.07,20,26.53,24.57,43.39a171.46,171.46,0,0,1,35.75,15.73A169.71,169.71,0,0,1,100,953.16c16.92-4.55,37.58-7.58,49.89-.44,4.68,2.72,6.38,15.47,4.49,32.91Z"/><path class="cls-5" d="M56.29,938.13S53.51,921.39,59.07,912s22.23-7.77,15.29,3.67-7.52,13.7-7.52,13.7,11.94-15.6,20.34-16.48,14.4,12.75.25,16.54-20.65,13.2-20.65,13.2Z"/><path class="cls-4" d="M12.9,907.88s-30.38-8.34-50.65.06c0,0,33.22-29.81,41.12-25s9.53,25,9.53,25Z"/><path class="cls-5" d="M-29.54,99.26C-88.21,65.41-101.29,23.6-93.39-15H154.38C147.62,47.79,94.69,171-29.54,99.26Z"/><path class="cls-3" d="M-94.28,19.62a92,92,0,0,1-.5-26.34c8.59.07,25.83,1,26.08,7.2.26,4.93-14,13.2-25.58,19.14ZM-93.39-15h4.29c-1.51.38-3,.69-4.48.94ZM131.51,58a162.82,162.82,0,0,1-12.82,20.34c-9-17.06-21.47-42.7-14.52-42.89S123.56,48.74,131.51,58ZM115.72,82.21A123.44,123.44,0,0,1,100.63,98c-2.72-7.58-5.37-18.19.19-21,4-2,9.79,1.13,14.9,5.24Zm-20.9,20.53a92.24,92.24,0,0,1-23,12.75c-.7-13-.57-29.43,3.79-31.76,5.55-2.85,14.9,11.62,19.26,19Z"/><path class="cls-4" d="M-24.23,90C-86.45,54.1-28.53-19,21.93,10.08S38,125.92-24.23,90Z"/><path class="cls-6" d="M91.91-11.39c7.33,4.23,7.71,17.24.82,29.05C89,24.29,83.64,29.16,78.46,31.43c-3.85-1.83-10.23-2.65-14.53-3-4-5.75-3.22-16.23,2.4-26,6.83-11.87,18.26-18,25.58-13.83Z"/><path class="cls-4" d="M80.73-.53c2.22,1.27,2.4,5.18.38,8.66s-5.49,5.3-7.7,4S71,7,73,3.51s5.49-5.3,7.7-4ZM80,18c2.21,1.26,3.6,2.9,3.15,3.6s-2.52.31-4.67-.89S74.8,17.79,75.24,17s2.59-.32,4.74.95Z"/><path class="cls-6" d="M51.56,27.58s18.88-9,39.85,9.79c0,0-14.72-9.35-39.85-9.79Z"/><path class="cls-6" d="M15.56,21.14c-6.07-3.48-6.7-8.4-9-15.67s3.92-9,3.92-9,3.35-1.32,15.92,5.94,13.07,10.8,13.07,10.8,1.64,6.19-5.81,7.83-12.06,3.54-18.06.07Z"/><path class="cls-7" d="M-8.89,32.5A2.5,2.5,0,0,1-6,30.67a2.44,2.44,0,0,1,1.77,3C-5.29,38.19-3.08,41.73.27,43.87L18.33,12.61a2.45,2.45,0,0,1,4.24,2.46L4.76,45.89c.18.07.44.13.63.19a18.13,18.13,0,0,0,5.49.51c3.92-.19,7.39-1.83,8.28-5.18a2.44,2.44,0,0,1,3-1.71,2.5,2.5,0,0,1,1.71,3c-1.52,5.69-6.76,8.4-12.7,8.78a23.41,23.41,0,0,1-6.94-.69A21.77,21.77,0,0,1-2.26,48c-5-3.22-8.27-8.53-6.63-15.48Z"/><path class="cls-8" d="M90.27,44.19c8.65,5,14,12,11.88,15.66s-10.87,2.59-19.52-2.4-14-12-11.87-15.66,10.86-2.59,19.51,2.4Z"/><path class="cls-4" d="M130.31-15c4.87,7.51,9.35,16.48,10.55,25.39A251.77,251.77,0,0,0,144.71-15Z"/><path class="cls-6" d="M35.89,48.8a1.06,1.06,0,0,1-.57-1.33,1.08,1.08,0,0,1,1.39-.63L82,64.78a1.13,1.13,0,0,1,.57,1.39,1.07,1.07,0,0,1-1.39.63Zm-5.68,14a1.07,1.07,0,0,1-.38-1.45A1.11,1.11,0,0,1,31.28,61l51.6,29.43a1.08,1.08,0,0,1-1,1.9ZM21.68,73.49A1,1,0,0,1,21.49,72,1.18,1.18,0,0,1,23,71.85l34.29,28.3a1,1,0,0,1,.13,1.45,1,1,0,0,1-1.52.19Z"/><path class="cls-3" d="M1029.31,232.75s-39.73,20.59-27.35,37.52,45.35,6.69,50.09-12.19-.83-30.82-22.74-25.33Zm-45.22,11.37s5.18-9.79,12.88-5.75.13,22.86-6.57,19.39-8.14-8.59-6.31-13.64Zm48.69-35.43s-10.48,3.6-7.7,11.81,22.61,3.72,20.14-3.41-7.2-9.41-12.44-8.4Zm-26,6.44s-12.82,9.66-6.44,17.43,23.24-6.82,18.25-12.13-8.52-7.89-11.81-5.3Z"/><path class="cls-3" d="M1347.74,877.12s39.73,20.59,27.35,37.52-45.35,6.7-50.09-12.19.82-30.82,22.74-25.33ZM1393,888.49s-5.18-9.79-12.88-5.74-.13,22.86,6.57,19.39,8.14-8.59,6.31-13.65Zm-48.69-35.43s10.48,3.6,7.7,11.81-22.61,3.73-20.15-3.41,7.2-9.41,12.45-8.4Zm26,6.44s12.82,9.67,6.44,17.43-23.24-6.82-18.25-12.12,8.52-7.9,11.81-5.31Z"/><path class="cls-3" d="M1281.17,333.9l-3.16,6.19-.19-.13-.37-.19-.32-.19-.32-.12-.38-.19-.31-.19-.32-.13-.31-.19-.32-.12-.31-.19-.32-.13-.32-.19-.31-.12-.25-.19-.32-.13-.25-.13-.32-.19-.25-.12-.32-.13L1272,337l-.25-.13-.25-.13-.26-.12-.25-.13-.25-.13-.26-.12-.25-.13L1270,336l-.25-.12-.19-.06-.25-.13-.19-.13-.19-.06-.19-.13-.19-.06-.19-.13-.19-.06L1268,335l-.12-.06-.19-.06-.13-.07-.19-.12-.13-.07-.12-.06-.13-.06-.13-.06-.12-.07-.13-.06h-.12l-.07-.06-.12-.07-.07-.06h-.06L1266,334H1266l-.06-.07h0l-.07-.06h-.12v-.06h0l3-6.19h.06l.07.06h.06l.06.06h.07l.06.07h.06l.13.06.06.06h.06l.13.07.13.06.06.06.13.07.12.06.19.06.13.07.12.06.13.06.19.13.13.06.19.06.19.13.19.06.18.13.19.06.19.13.19.06.26.13.19.13.18.06.26.13.25.12.19.13.25.12.25.13.26.13.25.12.25.13.26.13.31.12.25.13.32.19.25.12.32.13.25.19.32.13.31.12.32.19.31.13.32.19.32.12.31.19.32.19.31.13.38.19.32.19.31.19.38.12Zm132.44,115.58-1,6.88-.12-.06h-.38l-.19-.06h-.19l-.19-.07h-.19l-.25-.06h-.19l-.19-.06h-.25l-.19-.06H1410l-.25-.07h-.19l-.25-.06-.25-.06h-.26l-.25-.07-.25-.06h-.25l-.26-.06-.25-.07h-.31l-.26-.06-.25-.06h-.32l-.25-.07-.31-.06-.26-.06h-.31l-.32-.07-.25-.06-.32-.06-.31-.07h-.32l-.31-.06-.32-.06-.32-.06-.31-.07-.32-.06-.31-.06-.32-.07-.38-.06-.31-.06-.32-.07-.38-.06-.31-.06-.38-.07-.32-.06-.38-.06,1.33-6.76.31.06.32.07.38.06.32.06.31.07.38.06h.32l.31.06.32.06.31.07.32.06.31.06.32.07.32.06.31.06h.32l.25.07.32.06.31.06h.25l.32.07.25.06.32.06h.25l.25.07.32.06.25.06h.26l.25.07.25.06h.25l.26.06h.25l.25.06.25.07h.19l.26.06h.25l.19.06h.19l.25.07h.19l.19.06h.25l.19.06h.19l.19.07h.38l.19.06Zm-27-5.05-1.58,6.76h0l-.38-.13-.44-.06-.45-.13-.37-.06-.45-.13-.44-.13-.44-.06-.44-.13-.45-.12-.37-.07-.45-.12-.44-.13-.44-.06-.44-.13-.45-.12-.44-.13-.44-.13-.44-.06-.44-.13-.45-.12-.44-.13-.44-.12-.44-.13-.44-.13-.45-.12-.44-.13-.44-.06-.44-.13-.44-.13-.51-.12-.44-.13,2-6.69.37.12.45.13.44.13.44.12.44.13.45.12.44.13.44.06.44.13.38.13.44.12.44.13.45.13.44.06.38.13.44.12.44.13.44.06.45.13.38.12.44.07.44.12.38.13.44.06.44.13.38.06.44.13.45.12.38.07.44.12.38.07Zm-26.15-7.58-2.4,6.5H1358l-.45-.19-.44-.12-.44-.19-.44-.19-.45-.13-.44-.19-.44-.19-.38-.12-.44-.19-.44-.19-.44-.19-.45-.13-.44-.19-.44-.19-.38-.19-.44-.19-.44-.12-.45-.19-.44-.19-.38-.19-.44-.19-.44-.19-.38-.19-.44-.19-.38-.19-.44-.19-.45-.19-.37-.19-.45-.19-.38-.18-.19-.13,3-6.25.19.12.37.19.38.19.38.19.38.19.38.13.44.19.38.19.38.19.38.18.44.13.38.19.38.19.44.19.38.13.44.19.38.18.44.13.38.19.44.19.38.13.45.19.37.19.45.12.44.19.38.13.44.19.44.12.38.19.44.13.45.19Zm-23.81-11.94-4.11,5.56h-.06l-.32-.25-.31-.26-.32-.25-.31-.25-.38-.25-.32-.26-.25-.25-.32-.25-.31-.25-.32-.32-.31-.25-.26-.26-.31-.25-.32-.25-.25-.25-.25-.26-.32-.31-.25-.25-.25-.26-.26-.25-.25-.25-.25-.32-.26-.25-.18-.25-.26-.26-.25-.25-.19-.31-.25-.26-.19-.25-.19-.25-.25-.25-.19-.32-.19-.25-.19-.26-.19-.25-.19-.31-.13-.26-.19-.25-.19-.25-.12-.32-.19-.25-.13-.25,6-3.41.13.19.12.18.13.19.13.19.06.19.19.26.13.19.12.18.13.19.12.19.19.19.13.26.19.19.19.18.13.19.19.26.18.19.19.19.19.25.19.19.19.19.19.25.19.19.25.25.19.19.26.25.19.19.25.26.25.19.25.25.26.19.25.25.25.19.25.25.26.19.31.26.26.18.25.26.31.19.26.25.31.19.25.25Zm-9.48-19.39-6.56-2.34.06-.06.06-.25.13-.25.06-.19.13-.26.06-.25.13-.19.06-.25.13-.25.06-.19.13-.26.12-.18.13-.26.06-.25.13-.19.12-.25.13-.19.13-.25.12-.19.13-.19.13-.26.12-.19.13-.25.13-.19.12-.19.13-.25.12-.19.13-.19.13-.19.12-.25.19-.19.13-.19.13-.19.12-.25.19-.19.13-.19.12-.19.19-.19.13-.19.13-.25.19-.19.12-.19.13-.19.19-.19.12-.19.19-.19.13-.19.19-.19.13-.19.18-.19.13-.19.19-.19.13-.18.19-.19.12-.19.19-.13.13-.19.19-.19.12-.19.19-.19.13-.19.19-.12.06-.07,5.06,4.68v.06l-.19.13-.13.19-.13.12-.12.19-.19.19-.13.13-.13.19-.18.12-.13.19-.13.13-.12.19-.19.19-.13.12-.13.19-.12.19-.13.13-.12.19-.13.13-.13.18-.12.19-.19.13-.13.19-.13.19-.12.13-.07.19-.12.18-.13.13-.12.19-.13.13-.13.19-.12.19-.13.12-.06.19-.13.19-.13.13-.12.19-.06.19-.13.12-.06.19-.13.19-.13.13-.06.19-.13.19-.06.12-.13.19-.06.19-.06.13-.13.19-.06.19-.06.12-.13.19-.06.19-.07.13-.06.19-.13.19-.06.12-.06.19-.07.19-.06.13-.06.19-.07.19Zm16.61-20.15-5.11-4.67.06-.06.07-.13.12-.06.06-.13.13-.12.06-.13.13-.06.06-.13.13-.13.06-.06.13-.13.06-.12.07-.07.06-.12.06-.07.13-.12.06-.06.06-.13.07-.06.06-.07.06-.12v-.07l.07-.06.06-.06.06-.07-.06-.12-.06-.07-.13-.12-.06-.13-.07-.12-.12-.13-.13-.13-.12-.12-.07-.13-.19-.13-.12-.12-.13-.19-.13-.13-.19-.19-.12-.12-.19-.19-.19-.19-.19-.13-.19-.19-.19-.19-.19-.19-.19-.19-.25-.19-.19-.19-.13-.06,4.42-5.3.19.12.26.19.25.25.19.19.25.19.25.26.26.18.19.19.25.26.19.19.25.19.19.25.19.19.19.19.19.25.19.19.19.19.19.25.19.19.12.19.19.25.19.19.13.19.12.25.19.19.13.26.13.19.12.25.13.25.13.25.12.26.07.25.12.25.06.25.07.32.06.25.06.32.07.31v1l-.07.37-.06.32-.13.38-.12.31-.06.19-.07.13-.06.19-.13.13-.06.19-.06.12-.13.19-.06.13-.07.12-.12.19-.07.13-.12.13-.07.19-.12.12-.06.13-.13.12-.06.19-.13.13-.13.13-.06.12-.13.19-.12.13-.13.13-.06.12-.13.13-.12.19-.13.12-.13.13-.12.13-.07.12-.12.13-.13.19-.13.12-.12.13Zm-14-24.31-3.72,5.87-.07-.06-.37-.25-.38-.26-.38-.25-.44-.25-.38-.25-.38-.26-.38-.25-.44-.19-.38-.25-.44-.25-.38-.26-.45-.25-.37-.25-.45-.25-.38-.26-.44-.25-.44-.25-.38-.32-.44-.25-.44-.25-.45-.26-.44-.25-.38-.25-.44-.25-.44-.26-.44-.25-.44-.25-.45-.25h0l3.48-6h0l.44.25.44.25.44.32.45.25.44.25.44.25.44.26.44.25.45.25.44.25.44.32.44.25.44.26.38.25.45.25.44.25.38.26.44.25.44.25.38.25.44.26.38.31.44.26.38.25.38.25.44.25.38.26.38.25Zm-24.06-14.15-3.35,6.06-.25-.12-.5-.25-.45-.26-.44-.25-.44-.25-.51-.26-.44-.25-.44-.25-.44-.25-.44-.26-.51-.25-.44-.19-.44-.25-.45-.25-.44-.26-.44-.25-.44-.25-.44-.19-.51-.25-.44-.26-.44-.25-.45-.19-.44-.25-.44-.25-.38-.26-.44-.19-.44-.25-.19-.06,3.22-6.13.19.07.44.25.44.25.44.19.45.25.44.26.44.25.44.19.44.25.45.25.44.26.5.25.45.19.44.25.44.25.44.26.51.25.44.25.44.25.44.26.51.25.44.25.44.25.51.26.44.25.44.25.51.25Z"/><path class="cls-3" d="M1102.12,756.68l-3.16,6.19-.19-.13-.31-.12-.38-.19-.32-.19-.32-.19-.37-.13-.32-.19-.32-.12-.31-.19-.32-.13-.31-.19-.32-.12-.25-.19-.32-.13-.31-.19-.26-.13-.31-.12-.25-.13-.26-.12-.31-.19-.26-.13-.25-.13-.25-.12-.25-.13-.26-.13-.25-.12-.19-.13-.25-.06-.19-.13-.25-.12-.19-.13-.19-.06-.25-.13-.19-.06-.19-.13-.19-.06-.19-.13-.13-.06-.19-.06-.19-.13-.12-.06-.13-.07-.19-.06-.13-.06-.12-.07-.13-.06-.12-.06-.13-.07-.06-.06-.13-.06-.06-.07h-.13l-.06-.06H1087l-.06-.06h-.06l-.07-.07h-.06l-.06-.06h-.07l3-6.25.06.06-.06-.06.06.06h.06l.07.07h.06l.06.06h.07l.06.06.12.06h.07l.12.07.07.06.12.06h.13l.13.07.12.06.13.06.13.07.12.12.19.07.13.06.19.06.19.13.12.06.19.13.19.06.19.13.19.06.25.13.19.06.19.13.25.12.19.13.26.06.25.13.25.13.19.12.25.13.26.12.31.13.26.13.25.19.25.12.32.13.25.13.31.18.32.13.25.13.32.19.31.12.32.19.32.13.31.19.32.12.31.19.38.19.32.19.31.13.38.19.32.19Zm132.44,115.64-1,6.83h-.13l-.19-.07h-.37l-.19-.06h-.19l-.19-.06h-.19l-.25-.07h-.19l-.26-.06h-.19l-.25-.06h-.19l-.25-.07-.25-.06H1230l-.25-.06h-.25l-.25-.07-.26-.06h-.25l-.25-.06-.25-.07h-.32l-.25-.06-.26-.06-.31-.07h-.25l-.32-.06-.32-.06L1226,878h-.31l-.32-.07-.32-.06-.31-.06-.25-.07-.32-.06-.32-.06h-.37l-.32-.07-.32-.06-.31-.06-.32-.07-.38-.06-.31-.06-.32-.07-.38-.06-.31-.06-.38-.07-.32-.06,1.27-6.82.31.06.38.07.32.06.31.06.38.07.32.06.31.06.32.07.31.06.32.06.32.07h.31l.32.06.31.06.32.06.31.07.32.06h.25l.32.06.25.07.32.06h.31l.26.06.25.07.31.06h.26l.25.06.25.07h.25l.26.06.25.06h.25l.25.07h.26l.25.06.25.06h.19l.25.07h.19l.26.06h.19l.19.06h.25l.19.06h.19l.19.07h.38l.19.06h.18Zm-26.9-5.05-1.58,6.7h0l-.45-.07-.44-.12-.38-.07-.44-.12-.44-.07-.44-.12-.44-.13-.38-.06-.45-.13-.44-.12-.44-.13-.44-.06-.44-.13-.45-.13-.44-.12-.44-.07-.44-.12-.44-.13-.45-.12-.44-.13-.44-.06-.44-.13-.45-.13-.44-.12-.44-.13-.44-.13-.44-.12-.45-.13-.44-.12-.44-.13-.44-.13,1.89-6.63.44.06.45.13.44.13.38.12.44.13.44.13.44.12.45.13.44.12.44.13.44.06.38.13.44.13.45.12.44.13.44.06.38.13.44.13.44.06.45.12.37.13.45.06.44.13.38.13.44.06.44.13.38.06.44.13.38.12.44.07.45.12Zm-26.22-7.64-2.4,6.5h0l-.44-.12-.44-.19-.44-.19-.44-.13-.45-.19-.44-.19L1176,865l-.44-.19-.44-.19-.45-.13-.44-.19-.44-.19-.44-.19-.38-.12-.44-.19-.45-.19-.44-.19-.38-.19-.44-.19-.44-.19-.44-.19-.38-.19-.44-.19-.45-.19-.38-.19-.44-.19-.38-.19-.44-.18-.38-.19-.44-.19-.19-.13,3-6.19.19.06.38.19.38.19.38.19.44.19.38.19.38.19.38.13.38.19.44.19.38.19.38.18.44.13.38.19.44.19.38.19.38.13.44.19.44.18.38.13.44.19.38.13.44.19.38.19.45.12.44.19.38.13.44.19.44.12.38.19.44.13Zm-23.81-11.94-4.1,5.56h-.06l-.32-.25-.32-.25-.31-.26-.32-.25-.31-.25-.32-.26-.31-.25-.32-.25-.32-.25-.31-.26-.25-.25-.32-.25-.32-.32-.25-.25-.31-.25-.26-.25-.25-.26-.32-.25-.25-.32-.25-.25-.25-.25-.26-.25-.19-.26-.25-.31-.25-.25-.19-.26-.25-.25-.19-.25-.26-.32-.18-.25-.19-.25-.19-.26-.26-.25-.19-.31-.12-.26-.19-.25-.19-.25-.19-.32-.19-.25-.13-.25-.19-.26-.12-.31,6.06-3.35.06.19.13.19.13.19.12.19.13.19.13.19.12.19.13.19.12.19.19.25.13.19.19.19.13.19.19.25.19.19.12.19.19.25.19.19.19.19.19.25.19.19.25.19.19.25.19.19.25.26.19.19.26.25.25.19.19.25.25.19.25.25.26.19.25.25.25.19.32.26.25.19.25.25.32.19.25.25.32.19.25.25.31.19Zm-9.47-19.39-6.5-2.27v-.13l.12-.25.06-.19.07-.25.12-.25.07-.19.12-.26.13-.25.06-.19.13-.25.06-.19.13-.25.13-.26.12-.19.13-.25.06-.19.13-.25.12-.19.13-.25.13-.19.12-.19.13-.25.13-.19.12-.26.13-.19.12-.18.13-.26.13-.19.19-.19.12-.19.13-.25.13-.19.12-.19.19-.19.13-.19.12-.25.19-.19.13-.19.13-.19.19-.19.12-.19.13-.19.19-.19.12-.18.19-.19.13-.19.13-.19.19-.19.12-.19.19-.19.13-.19.19-.19.12-.19.19-.19.13-.19.19-.19.19-.19.12-.19.19-.19.13-.12.19-.19.13-.19.06-.07,5.11,4.74H1155l-.12.19-.19.13-.13.19-.13.12-.12.19-.19.19-.13.13-.13.19-.18.12-.13.19-.13.19-.12.13-.13.19-.19.13-.13.18-.12.19-.13.13-.12.19-.13.19-.13.13-.12.19-.13.12-.13.19-.12.19-.13.13-.13.19-.12.19-.13.12-.12.19-.13.19-.06.13-.13.19-.13.19-.12.12-.13.19-.06.19-.13.13-.12.19-.07.12-.12.19-.07.19-.12.19-.07.13-.12.19-.07.19-.12.12-.07.19-.12.19-.07.13-.06.19-.06.12-.13.19-.06.19-.06.13-.07.19-.06.19-.06.13-.13.18-.06.19v.13l-.07.19Zm16.61-20.14-5.11-4.61.06-.07.12-.12.07-.13.12-.13.07-.06.12-.13.07-.12.12-.13.07-.06.12-.13.07-.13.06-.06.06-.12.13-.07.06-.12.06-.07.07-.12.06-.07.06-.12.07-.07.06-.06.06-.06.07-.13v-.06l.06-.07-.06-.06-.07-.12-.06-.13-.13-.06-.06-.13-.13-.13-.06-.12-.12-.13-.13-.13-.13-.19-.12-.12-.19-.13-.13-.19-.19-.12-.13-.19-.18-.19-.19-.13-.19-.19-.19-.19-.19-.12-.19-.19-.19-.19-.19-.19-.25-.19-.13-.13,4.42-5.3.19.12.25.26.26.18.25.19.25.26.19.19.25.25.26.19.19.19.18.25.26.19.19.19.19.25.19.19.25.19.19.19.12.25.19.19.19.19.19.25.13.19.19.19.12.26.19.19.13.25.13.19.12.25.13.25.13.19.12.26.13.25.12.25.07.25.12.32.07.25.06.32.06.31v1.27l-.06.38-.06.31-.13.38-.13.32-.06.19-.06.19-.06.12-.07.19-.12.13-.07.19-.06.12-.13.13-.06.19-.06.13-.13.18-.06.13-.13.13-.06.12-.13.19-.12.13-.07.13-.12.12-.07.19-.12.13-.13.12-.13.13-.06.13-.13.19-.12.12-.13.13-.12.12-.07.13-.12.19-.13.13-.13.12-.12.13-.13.13-.13.12Zm-14-24.26-3.79,5.81-.06-.06-.38-.25-.38-.19-.38-.25-.38-.26-.37-.25-.45-.25-.38-.26-.37-.25-.45-.25-.38-.25-.44-.26-.38-.25-.44-.25-.38-.25-.44-.26-.44-.25-.38-.25-.44-.25-.44-.26-.45-.25-.38-.25-.44-.25-.44-.26-.44-.25-.44-.32-.45-.25-.44-.25-.44-.25h0l3.47-6h0l.51.31.44.25.44.26.44.25.45.25.44.26.44.31.44.25.45.26.37.25.45.25.44.25.44.26.44.25.38.25.44.32.45.25.37.25.45.26.44.25.38.25.38.25.44.26.38.25.44.25.38.25.38.26.38.25Zm-24.12-14.14-3.35,6.06-.25-.19-.45-.25-.44-.26-.5-.25-.44-.25-.45-.25-.44-.19-.5-.26-.45-.25-.44-.25-.44-.25-.44-.26-.51-.25-.44-.25-.44-.25-.44-.19-.45-.26-.44-.25-.44-.25-.44-.25-.44-.19-.45-.26-.44-.25-.44-.19-.44-.25-.45-.25-.44-.19-.19-.13,3.22-6.13.19.13.45.19.44.25.44.25.44.19.44.26.45.25.44.25.5.25.45.19.44.26.44.25.44.25.44.25.51.26.44.25.44.19.45.25.44.25.5.26.45.25.44.25.5.26.44.25.45.25.5.25.44.26Z"/><path class="cls-3" d="M1626.08,67.44l-.95,6.88h-.19l-.12-.06h-.19l-.19-.07H1624l-.18-.06h-.19l-.19-.06h-.26L1623,74h-.25l-.25-.06-.19-.06H1622l-.26-.07h-.25l-.19-.06-.25-.06h-.25l-.32-.06-.25-.07H1620l-.26-.06-.25-.06h-.32l-.25-.07-.31-.06-.26-.06h-.31l-.25-.07-.32-.06-.32-.06h-.31l-.25-.07-.32-.06-.32-.06-.31-.07-.32-.06-.31-.06h-.32l-.38-.07-.31-.06-.32-.06-.32-.06-.37-.07-.32-.06-.38-.06-.32-.07-.37-.06-.32-.06,1.26-6.82.32.06.38.06.31.06.38.07.32.06.31.06.32.07.32.06.37.06.32.07h.32l.31.06.32.06.25.07.32.06.31.06h.32l.31.07.26.06.31.06.25.07h.32l.25.06.32.06h.25l.25.06.26.07.31.06h.26l.25.06h.25l.25.07.26.06h.19l.25.06h.25l.19.07.25.06h.19l.25.06h.19l.26.07h.19l.19.06h.37l.19.06h.19l.19.07h.32Zm-26.91-5-1.58,6.69h0l-.44-.06-.38-.13-.44-.06-.44-.13-.44-.12-.44-.07-.38-.12-.45-.13-.44-.06-.44-.13-.44-.13-.44-.06-.45-.13-.44-.12-.38-.13-.44-.06-.44-.13-.44-.12-.45-.13-.44-.13-.44-.12-.44-.07-.51-.12-.44-.13-.44-.12-.44-.13-.45-.13-.44-.12-.44-.13-.44-.13-.44-.12,1.89-6.7.44.13.44.13.45.12.44.13.44.12.38.13.44.13.44.12.45.13.44.06.44.13.44.13.38.12.44.13.45.06.44.13.44.12.38.13.44.06.44.13.38.13.44.06.45.13.44.12.38.06.44.13.38.06.44.13.44.06.38.13.44.13ZM1573,54.8l-2.33,6.51h-.07l-.44-.19-.44-.13-.44-.19-.45-.12-.44-.19-.44-.19-.44-.13L1567,60l-.45-.19-.44-.12-.44-.19-.44-.19-.38-.19-.44-.19-.45-.13-.44-.19-.44-.19-.38-.19-.44-.18-.44-.19-.38-.19-.44-.19-.45-.19-.38-.19-.44-.19-.38-.19-.44-.19-.44-.19-.38-.19-.44-.19-.19-.13,3-6.19.19.07.38.19.38.19.44.19.38.19.38.19.38.19.38.12.44.19.38.19.38.19.44.19.38.13.38.19.44.18.38.13.44.19.38.19.44.13.38.19.44.19.38.12.44.19.44.13.38.19.45.19.37.12.45.19.44.13.44.19.38.12Zm-23.81-11.93-4.1,5.55h0l-.38-.25-.32-.25-.31-.25-.32-.26-.32-.25-.31-.25-.32-.25-.31-.26-.32-.25-.31-.25-.26-.25-.31-.32-.32-.25-.25-.25-.25-.26-.32-.25-.25-.25-.25-.32-.26-.25-.25-.25-.25-.26-.26-.25-.25-.25-.25-.32-.25-.25-.19-.25-.26-.26-.18-.25-.26-.31-.19-.26-.19-.25-.19-.25-.19-.32-.18-.25-.19-.25-.19-.26-.19-.31-.19-.25-.13-.26-.19-.25-.12-.32-.19-.25,6.06-3.41.06.19.13.19.12.25.13.19.13.19.12.19.13.19.13.19.19.19.12.25.13.19.19.19.12.19.19.25.19.19.13.19.19.19.19.25.19.19.19.19.19.26.25.19.19.25.19.19.25.25.19.19.25.19.26.25.25.19.19.25.25.19.25.26.32.25.25.19.25.25.26.19.31.25.26.19.25.26.31.19.26.25.31.19Zm-9.47-19.39-6.51-2.28v-.12l.13-.26.06-.18.13-.26.06-.25.13-.19.06-.25.13-.25.06-.19.13-.26.12-.25.07-.19.12-.25.13-.19.13-.25.12-.19.07-.26.12-.19.13-.25.12-.19.13-.25.13-.19.12-.19.13-.25.13-.19.12-.19.13-.25.19-.19.12-.19.13-.19.13-.25.12-.19.19-.19.13-.19.13-.26.12-.18.19-.19.13-.19.12-.19.19-.19.13-.19.19-.19.13-.25.12-.19.19-.19.13-.19.19-.19.12-.19.19-.19.13-.19.19-.19.12-.13.19-.19.13-.19.19-.18.13-.19.19-.19.12-.19.19-.19.13-.19.19-.13.19-.19V8.51l5.11,4.67-.06.07-.13.19-.12.12-.19.19-.13.13-.13.19-.18.12-.13.19-.13.19-.12.13-.19.19-.13.12-.13.19-.12.19-.13.13-.12.19-.19.13-.13.18-.13.19-.12.13-.13.19-.13.19-.12.13-.13.19-.12.18-.13.13-.13.19-.12.19-.13.13-.13.19-.06.12-.13.19-.12.19-.13.13-.12.19-.07.19-.12.12-.13.19-.06.19-.13.13-.13.19-.06.19-.13.12-.06.19-.13.19-.06.13-.12.19-.07.19-.06.12-.13.19-.06.19-.06.13-.07.19-.12.19-.07.12-.06.19-.06.19-.07.13-.06.19-.06.19-.07.12-.06.19Zm16.67-20.15-5.18-4.67h.07l.12-.13.07-.13.12-.12.13-.13.06-.06.13-.13.06-.12.06-.07.13-.12.06-.13.07-.06.12-.13.07-.06.06-.13.06-.06.07-.13.06-.06.06-.13.07-.06.06-.06.06-.13.06-.06.07-.07v-.06l-.07-.06-.06-.13-.06-.13-.13-.06-.06-.13-.13-.12-.06-.13-.13-.12-.12-.19-.13-.13L1552-5l-.12-.19-.19-.12-.13-.19-.19-.13-.19-.19-.12-.12-.19-.19-.19-.19-.19-.19-.25-.13-.19-.19-.19-.19-.26-.19-.12-.12,4.48-5.31.13.13.25.25.25.19.26.19.25.25.19.19.25.19.25.25.19.19.26.19.19.25.18.19.26.19.19.26.19.19.19.19.19.25.18.19.13.19.19.19.19.25.13.19.19.25.12.19.13.25.12.19.19.26.13.18.13.26.06.25.13.25.12.26.07.25.12.31.07.26.06.31.06.25v.32l.06.38-.06.32V-3l-.06.38-.06.32L1560-2l-.12.32-.13.19-.06.13-.07.19-.06.19-.06.12-.13.13-.06.19-.07.12-.12.19-.07.13-.12.13-.06.19-.13.12-.06.13-.13.12-.06.19-.13.13-.13.13-.06.12-.13.19-.12.13-.07.12-.12.13-.13.19-.12.13-.07.12-.12.13-.13.13-.13.12-.12.19-.13.13-.13.12-.12.13-.13.13Zm-15.53-22-2.28,3.54-.06-.07-.38-.25-.38-.25-.38-.19-.38-.25-.38-.26-.44-.25-.38-.25-.38-.25-.44-.26-.38-.25-.38-.25-.44-.25-.44-.26-.38-.25Z"/><path class="cls-3" d="M1368.77-.21l6.76,11.62,6.7,11.69a3.6,3.6,0,0,1-3.16,5.49v.07h-27a3.72,3.72,0,0,1-3.66-3.73,4.08,4.08,0,0,1,.63-2.15l6.57-11.37,6.75-11.68a3.76,3.76,0,0,1,5.06-1.33,3.53,3.53,0,0,1,1.32,1.39Z"/><path class="cls-3" d="M1190.6,402.24l6.76,11.62,6.7,11.68a3.62,3.62,0,0,1-1.33,5,3.35,3.35,0,0,1-1.83.51h-27a3.72,3.72,0,0,1-3.73-3.67,3.5,3.5,0,0,1,.7-2.14l6.57-11.37,6.75-11.69a3.63,3.63,0,0,1,5-1.32,3.16,3.16,0,0,1,1.39,1.39Z"/><path class="cls-3" d="M1686.27,256.22l6.69,11.62,6.76,11.68a3.75,3.75,0,0,1-1.32,5.05,4.26,4.26,0,0,1-1.9.51h-26.91a3.73,3.73,0,0,1-3.72-3.73,3.62,3.62,0,0,1,.69-2.14l6.57-11.37,6.76-11.62a3.64,3.64,0,0,1,5-1.39,3.71,3.71,0,0,1,1.39,1.39Z"/><path class="cls-3" d="M1766.23,898.53l6.76,11.63,6.69,11.68a3.61,3.61,0,0,1-3.16,5.5v.06h-27a3.77,3.77,0,0,1-3.72-3.73,3.67,3.67,0,0,1,.69-2.15l6.57-11.36,6.76-11.63a3.64,3.64,0,0,1,5-1.38,3.3,3.3,0,0,1,1.39,1.38Z"/><path class="cls-4" d="M1240.37,102.74a13,13,0,1,0-13-13,13,13,0,0,0,13,13Z"/><path class="cls-4" d="M1644,189.46a13,13,0,1,0-13-13,13,13,0,0,0,13,13Z"/><path class="cls-4" d="M1630.44,667.38a13,13,0,1,0-13-13,13,13,0,0,0,13,13Z"/><path class="cls-4" d="M1436.73,405a13,13,0,1,0-13-12.95,13,13,0,0,0,13,12.95Z"/><path class="cls-4" d="M1675.66,426.36a13,13,0,1,0-13-13,13,13,0,0,0,13,13Z"/><path class="cls-4" d="M1795.15,267.9a13,13,0,1,0-13-12.95,13,13,0,0,0,13,12.95Z"/><path class="cls-4" d="M945.8,138.05a13,13,0,1,0-13-13,13.07,13.07,0,0,0,13,13Z"/><path class="cls-4" d="M1781.07,19.62a13,13,0,1,0-13-13,13,13,0,0,0,13,13Z"/><path class="cls-4" d="M1435.66,96.49a13,13,0,1,0-13-13,13,13,0,0,0,13,13Z"/><path class="cls-4" d="M1221.61,278.26a13,13,0,1,0-12.94-12.95,13,13,0,0,0,12.94,12.95Z"/><path class="cls-4" d="M1014.39,333.33a13,13,0,1,0-13-12.95,13,13,0,0,0,13,12.95Z"/><path class="cls-4" d="M1065.3,517.25a13,13,0,1,0-13-13,13,13,0,0,0,13,13Z"/><path class="cls-4" d="M1268.1,489a13,13,0,1,0-12.95-13,13,13,0,0,0,12.95,13Z"/><path class="cls-4" d="M1494.33,575.42a13,13,0,1,0-12.95-13,13,13,0,0,0,12.95,13Z"/><path class="cls-4" d="M1409.19,733.88a13,13,0,1,0-13-13,13,13,0,0,0,13,13Z"/><path class="cls-4" d="M1186.81,765a13,13,0,1,0-12.94-13,13,13,0,0,0,12.94,13Z"/><path class="cls-4" d="M1043.44,684a13,13,0,1,0-12.94-13,13,13,0,0,0,12.94,13Z"/><path class="cls-4" d="M861.67,610.72a13,13,0,1,0-13-12.94,13,13,0,0,0,13,12.94Z"/><path class="cls-4" d="M1803.93,765A13,13,0,1,0,1791,752a13,13,0,0,0,12.94,13Z"/><path class="cls-4" d="M1468.37,906.81a13,13,0,1,0-12.94-12.95,13,13,0,0,0,12.94,12.95Z"/><path class="cls-4" d="M1127.82,887.36a13,13,0,1,0-13-13,13,13,0,0,0,13,13Z"/><path class="cls-4" d="M895.84,912.75a13,13,0,1,0-12.94-13,13,13,0,0,0,12.94,13Z"/><path class="cls-5" d="M1225.72,722.32c-183.22,0-106.8-217.26-81.79-217.26,14.21,0,30.57,12.95,43,25.33a177,177,0,0,1,77.56,0c12.38-12.38,28.8-25.33,43-25.33,25,0,101.43,217.26-81.79,217.26Z"/><path class="cls-3" d="M1129.84,685.69a91.45,91.45,0,0,1-13.57-22.55c7.45-4.29,22.8-12.12,26.14-6.82,2.66,4.17-5.49,18.45-12.57,29.37Zm-16.23-29.56a115.94,115.94,0,0,1-5.18-21.22c6.45-1,13-.88,15.48,2.91,3.41,5.18-4.17,13.13-10.3,18.31Zm-5.81-26.08a161.65,161.65,0,0,1-1-24c11.56-4.11,29.18-9.35,35-5.81s-17.68,19.58-34,29.81Zm236.78-24a160.28,160.28,0,0,1-.94,24c-16.36-10.23-40-26.21-34-29.81,5.81-3.54,23.36,1.7,34.92,5.81ZM1343,634.91a125.67,125.67,0,0,1-5.18,21.22c-6.18-5.18-13.76-13.13-10.35-18.31,2.46-3.79,9.09-3.92,15.53-2.91Zm-7.83,28.23a91.71,91.71,0,0,1-13.64,22.55c-7-10.92-15.22-25.2-12.57-29.37,3.35-5.3,18.76,2.53,26.21,6.82Z"/><path class="cls-5" d="M1219.15,539.23s-10.74-13.14-10.67-24,15.34-17.88,15-4.49.38,15.6.38,15.6,2.52-19.45,9.34-24.44,18.89,3.85,8.53,14.21-11.3,21.79-11.3,21.79Z"/><path class="cls-4" d="M1225.72,711.65c-71.88,0-58.23-92.34,0-92.34s71.81,92.34,0,92.34Z"/><path class="cls-6" d="M1175.82,565.75c-8.4,0-15.28,11.06-15.28,24.76,0,7.64,2.21,14.47,5.56,19,4.23.38,10.17,2.84,14,4.68,6.38-3,11-12.51,11-23.69,0-13.7-6.89-24.76-15.29-24.76Z"/><path class="cls-4" d="M1180.06,580.72c-2.53,0-4.62,3.29-4.62,7.33s2.09,7.33,4.62,7.33,4.67-3.29,4.67-7.33-2.09-7.33-4.67-7.33Zm-8.59,16.42c-2.53,0-4.55.7-4.55,1.52s2,1.58,4.55,1.58,4.61-.7,4.61-1.58-2.09-1.52-4.61-1.52Z"/><path class="cls-6" d="M1191.3,619.63s-11.81-17.24-39.41-11.43c0,0,17.43-.7,39.41,11.43Z"/><path class="cls-6" d="M1275.61,565.75c8.4,0,15.23,11.06,15.23,24.76,0,7.64-2.15,14.47-5.5,19-4.29.38-10.17,2.84-14.08,4.68-6.32-3-10.93-12.51-10.93-23.69,0-13.7,6.82-24.76,15.28-24.76Z"/><path class="cls-4" d="M1271.32,580.72c2.59,0,4.67,3.29,4.67,7.33s-2.08,7.33-4.67,7.33-4.61-3.29-4.61-7.33,2.08-7.33,4.61-7.33Zm8.59,16.42c2.53,0,4.61.7,4.61,1.52s-2.08,1.58-4.61,1.58-4.55-.7-4.55-1.58,2-1.52,4.55-1.52Z"/><path class="cls-6" d="M1260.08,619.63s11.81-17.24,39.41-11.43c0,0-17.43-.7-39.41,11.43Z"/><path class="cls-6" d="M1225.72,632.07c-7,0-10-3.92-15.66-9.09s-1.08-9.67-1.08-9.67,2.21-2.84,16.74-2.84,16.74,2.84,16.74,2.84,4.54,4.55-1.14,9.67-8.65,9.09-15.6,9.09Z"/><path class="cls-7" d="M1210.25,654.11a2.37,2.37,0,0,1,1.57-3,2.41,2.41,0,0,1,3,1.65c1.32,4.48,5,6.44,9,6.63V623.29a2.4,2.4,0,0,1,4.8,0v35.62l.69-.19a18.45,18.45,0,0,0,5-2.21c3.35-2.21,5.5-5.37,4.61-8.65a2.44,2.44,0,0,1,1.71-3,2.5,2.5,0,0,1,3,1.71c1.51,5.68-1.65,10.67-6.64,13.95a24.15,24.15,0,0,1-6.37,2.85,21.69,21.69,0,0,1-7,.82c-6-.25-11.43-3.22-13.45-10.11Z"/><path class="cls-8" d="M1302,630c10,0,18.13-3.41,18.13-7.65s-8.15-7.64-18.13-7.64-18.13,3.41-18.13,7.64S1292,630,1302,630Z"/><path class="cls-8" d="M1149.49,630c10,0,18.06-3.41,18.06-7.65s-8.08-7.64-18.06-7.64-18.13,3.41-18.13,7.64,8.15,7.65,18.13,7.65Z"/><path class="cls-4" d="M1285,534.74s30.44,8,43.83,25.33c0,0-13.83-42.38-23.11-42.19S1285,534.74,1285,534.74Z"/><path class="cls-4" d="M1166.41,534.74s-30.44,8-43.77,25.33c0,0,13.77-42.38,23.06-42.19s20.71,16.86,20.71,16.86Z"/><path class="cls-6" d="M1257.17,645.9a1.1,1.1,0,0,1-1.2-.95,1.12,1.12,0,0,1,.89-1.2l48.19-7.07a1.08,1.08,0,0,1,1.2.89,1,1,0,0,1-.89,1.2Zm2.09,15a1.16,1.16,0,0,1-1.08-1.07,1.12,1.12,0,0,1,1.08-1.08l59.43-.31a1.1,1.1,0,0,1,1.07,1.07,1.06,1.06,0,0,1-1.07,1.07Zm-2.09,13.52a1.07,1.07,0,0,1-.88-1.2,1.17,1.17,0,0,1,1.26-.89l43.83,7.33a1,1,0,0,1,.82,1.2,1,1,0,0,1-1.2.88Z"/><path class="cls-6" d="M1194.2,645.9a1.09,1.09,0,0,0,.32-2.15l-48.19-7.07a1.11,1.11,0,0,0-1.2.89,1.07,1.07,0,0,0,.88,1.2Zm-2.08,15a1.08,1.08,0,0,0,0-2.15l-59.43-.31a1.07,1.07,0,0,0,0,2.14Zm2.08,13.52a1,1,0,0,0,.89-1.2,1.08,1.08,0,0,0-1.2-.89l-43.83,7.33a1.11,1.11,0,0,0-.89,1.2,1,1,0,0,0,1.26.88Z"/><path class="cls-5" d="M1475.07,331.75c-177,47.43-159.35-182.21-135.22-188.65,13.7-3.73,32.9,4.61,48.06,13.33a176.91,176.91,0,0,1,75-20.09c8.78-15.16,21.22-31.89,34.92-35.62,24.19-6.44,154.24,183.6-22.73,231Z"/><path class="cls-3" d="M1373,321.21a93.62,93.62,0,0,1-19-18.32c6.13-6,19-17.56,23.56-13.33,3.6,3.35-.57,19.27-4.55,31.65Zm-23.36-24.38a124.42,124.42,0,0,1-10.49-19.14c6-2.65,12.38-4.23,15.73-1.2,4.61,4.1-.63,13.77-5.24,20.34Zm-12.38-23.69a165.54,165.54,0,0,1-7.14-22.92c10.1-6.95,25.77-16.55,32.27-14.66,6.7,2-12,23.5-25.13,37.58Zm222.57-84.44a166.24,166.24,0,0,1,5.24,23.43c-18.38-5.62-45.35-15-40.55-20s23-4.36,35.31-3.41Zm5.87,28.23a120.89,120.89,0,0,1,.5,21.92c-7.26-3.48-16.61-9.16-14.71-15,1.39-4.3,7.77-6.13,14.21-6.89Zm-.25,29.31a91.85,91.85,0,0,1-7.27,25.32c-9.66-8.71-21.22-20.4-19.76-25.13,1.89-5.94,18.75-2.34,27-.19Z"/><path class="cls-5" d="M1421.38,156.62s-13.83-9.92-16.54-20.4,10.16-21.29,13.32-8.28,4.42,15,4.42,15-2.59-19.45,2.72-26,19.2-1.14,11.94,11.56-5.31,23.93-5.31,23.93Z"/><path class="cls-4" d="M1472.29,321.46c-69.41,18.57-80.15-74.09-23.88-89.18s93.29,70.55,23.88,89.18Z"/><path class="cls-6" d="M1386.33,193.44c-8.08,2.21-11.81,14.65-8.34,27.85,2,7.39,5.88,13.45,10.3,17,4.23-.76,10.55.06,14.78.82,5.3-4.55,7.32-14.91,4.42-25.71-3.54-13.2-13-22.1-21.16-19.95Z"/><path class="cls-4" d="M1394.35,206.83c-2.46.63-3.6,4.35-2.59,8.27s3.92,6.5,6.38,5.87,3.66-4.35,2.59-8.27-3.92-6.57-6.38-5.87Zm-4,18.06c-2.46.63-4.23,1.83-4,2.65s2.4,1,4.8.32,4.23-1.83,4-2.66-2.4-1-4.8-.31Z"/><path class="cls-6" d="M1415.26,241.5s-15.86-13.64-41-.88c0,0,16.61-5.18,41,.88Z"/><path class="cls-6" d="M1482.71,167.6c8.15-2.14,17.62,6.76,21.16,20,2,7.39,1.7,14.59-.44,19.83-4,1.46-9,5.37-12.32,8.15-6.88-1.26-13.83-9.22-16.74-20.08-3.53-13.2.19-25.64,8.34-27.86Z"/><path class="cls-4" d="M1482.46,183.2c2.52-.69,5.37,2,6.38,5.88s-.07,7.64-2.53,8.27-5.37-2-6.38-5.87.06-7.64,2.53-8.28ZM1495,196.78c2.46-.63,4.61-.5,4.8.32s-1.58,2.08-4,2.72-4.61.5-4.8-.32,1.58-2,4-2.72Z"/><path class="cls-6" d="M1481.7,223.69s7-19.71,35.12-21.22c0,0-17,3.79-35.12,21.22Z"/><path class="cls-6" d="M1451.7,244.59c-6.7,1.84-10.67-1.2-17.43-4.73s-3.6-9-3.6-9,1.39-3.35,15.47-7.08,16.86-1.64,16.86-1.64,5.56,3.22,1.46,9.66-6,11.06-12.76,12.82Z"/><path class="cls-7" d="M1442.48,269.92a2.41,2.41,0,1,1,4.1-2.53c2.47,4,6.51,4.93,10.42,4.11l-9.34-34.86a2.43,2.43,0,0,1,1.7-3,2.35,2.35,0,0,1,3,1.7l9.22,34.36a6,6,0,0,0,.63-.31,18.8,18.8,0,0,0,4.23-3.48c2.66-3,3.92-6.57,2.22-9.53a2.4,2.4,0,1,1,4.16-2.4c2.91,5.05,1.2,10.73-2.78,15.15a22.54,22.54,0,0,1-5.36,4.42,23.68,23.68,0,0,1-6.51,2.59c-5.87,1.27-11.94-.12-15.66-6.25Z"/><path class="cls-8" d="M1520.86,208.09c9.66-2.59,18.38-1.39,19.45,2.71s-5.81,9.48-15.47,12.07-18.38,1.39-19.52-2.72,5.87-9.47,15.54-12.06Z"/><path class="cls-8" d="M1373.57,247.56c9.67-2.59,18.38-1.39,19.46,2.72s-5.82,9.47-15.48,12.06-18.38,1.39-19.51-2.71,5.87-9.48,15.53-12.07Z"/><path class="cls-4" d="M1483.78,135.2s31.46-.12,48.89,13.14c0,0-24.32-37.33-33.22-34.74s-15.67,21.6-15.67,21.6Z"/><path class="cls-4" d="M1369.28,165.9s-27.35,15.6-35.81,35.81c0,0,2.4-44.53,11.43-46.67s24.38,10.86,24.38,10.86Z"/><path class="cls-6" d="M1485.68,249.77a1,1,0,0,1-1.39-.56,1.09,1.09,0,0,1,.57-1.39l44.71-19.33a1.15,1.15,0,0,1,1.39.57,1,1,0,0,1-.57,1.39Zm5.94,14a1.1,1.1,0,0,1-1.33-.76,1.13,1.13,0,0,1,.76-1.32L1548.33,246a1.11,1.11,0,0,1,1.33.76,1,1,0,0,1-.76,1.27Zm1.45,13.58a1,1,0,1,1-.19-2.08l44.21-4.3a1.11,1.11,0,0,1,1.14.95,1.08,1.08,0,0,1-1,1.2Z"/><path class="cls-6" d="M1424.86,266.07a1,1,0,0,0,.94-1.14,1.07,1.07,0,0,0-1.2-.95l-48.38,5.63a1,1,0,0,0-.88,1.13,1,1,0,0,0,1.14.95Zm1.89,15a1.1,1.1,0,0,0,.76-1.33,1,1,0,0,0-1.33-.69l-57.47,15a1.13,1.13,0,0,0-.76,1.33,1.05,1.05,0,0,0,1.26.75Zm5.5,12.51a1.05,1.05,0,1,0-.89-1.9l-40.42,18.38a1.11,1.11,0,0,0-.5,1.45,1.06,1.06,0,0,0,1.39.51Z"/><path class="cls-5" d="M1587.05,910.09c177,47.43,159.35-182.21,135.22-188.65-13.71-3.66-32.91,4.61-48.06,13.33a169.11,169.11,0,0,0-36.38-14.15,171.19,171.19,0,0,0-38.59-5.94c-8.78-15.09-21.22-31.89-35-35.56-24.13-6.5-154.24,183.54,22.8,231Z"/><path class="cls-3" d="M1689.11,899.55a91.26,91.26,0,0,0,19-18.26c-6.06-6.06-18.89-17.56-23.5-13.39-3.66,3.35.57,19.27,4.55,31.65Zm23.37-24.32A124.52,124.52,0,0,0,1723,856c-6-2.59-12.38-4.17-15.79-1.2-4.61,4.17.7,13.77,5.31,20.4Zm12.32-23.68a164.35,164.35,0,0,0,7.13-22.93c-10-7-25.7-16.61-32.21-14.72-6.69,2,11.94,23.5,25.08,37.65ZM1502.29,767a167,167,0,0,0-5.31,23.43c18.45-5.62,45.41-15,40.61-20s-23.11-4.36-35.3-3.41Zm-5.94,28.29a125.76,125.76,0,0,0-.5,21.86c7.32-3.48,16.67-9.16,14.78-15-1.46-4.3-7.77-6.13-14.28-6.83Zm.25,29.31a93.1,93.1,0,0,0,7.33,25.33c9.66-8.72,21.22-20.47,19.77-25.14-1.9-6-18.76-2.4-27.1-.19Z"/><path class="cls-5" d="M1640.73,735s13.83-9.86,16.55-20.4-10.23-21.23-13.39-8.28-4.36,15-4.36,15,2.59-19.45-2.71-26.08-19.2-1.14-11.94,11.56,5.3,23.93,5.3,23.93Z"/><path class="cls-4" d="M1589.83,899.8c69.34,18.57,80.14-74.09,23.87-89.12s-93.28,70.55-23.87,89.12Z"/><path class="cls-6" d="M1675.72,771.84c8.15,2.15,11.88,14.59,8.34,27.79-2,7.45-5.81,13.45-10.23,17-4.24-.76-10.55.13-14.78.88-5.37-4.54-7.33-14.9-4.42-25.77,3.53-13.2,12.94-22.1,21.09-19.89Z"/><path class="cls-4" d="M1667.76,785.17c2.47.69,3.6,4.35,2.59,8.27s-3.91,6.57-6.38,5.87-3.66-4.35-2.59-8.27,3.92-6.51,6.38-5.87Zm4,18.06c2.46.63,4.23,1.83,4,2.72s-2.33.94-4.8.31-4.23-1.89-4-2.71,2.4-.95,4.8-.32Z"/><path class="cls-6" d="M1646.79,819.84s15.92-13.58,41.06-.82c0,0-16.68-5.24-41.06.82Z"/><path class="cls-6" d="M1579.34,746c-8.08-2.21-17.56,6.69-21.09,19.89-2,7.46-1.71,14.59.38,19.83,4,1.52,9.09,5.37,12.38,8.15,6.88-1.26,13.76-9.22,16.67-20.08,3.54-13.14-.19-25.64-8.34-27.79Z"/><path class="cls-4" d="M1579.59,761.54c-2.46-.63-5.3,2-6.37,5.88s.12,7.64,2.59,8.27,5.36-2,6.37-5.87-.12-7.58-2.59-8.28Zm-12.5,13.65c-2.46-.7-4.61-.51-4.86.31s1.57,2,4,2.66,4.55.5,4.8-.32-1.58-2-4-2.65Z"/><path class="cls-6" d="M1580.42,802.09s-7-19.77-35.12-21.28c0,0,17,3.79,35.12,21.28Z"/><path class="cls-6" d="M1610.42,822.93c6.69,1.84,10.61-1.2,17.43-4.67s3.6-9.09,3.6-9.09-1.46-3.29-15.48-7.08-16.92-1.58-16.92-1.58-5.56,3.22-1.39,9.6,6,11.06,12.76,12.82Z"/><path class="cls-7" d="M1619.64,848.26a2.41,2.41,0,0,0-4.11-2.53c-2.46,4-6.5,4.93-10.42,4.11l9.35-34.86a2.45,2.45,0,0,0-4.74-1.27l-9.16,34.42a5.85,5.85,0,0,1-.63-.37,18.8,18.8,0,0,1-4.23-3.48c-2.65-2.9-3.92-6.57-2.21-9.53a2.42,2.42,0,0,0-.88-3.29,2.45,2.45,0,0,0-3.29.89c-3,5-1.2,10.73,2.78,15.15a22.79,22.79,0,0,0,5.37,4.42,20.59,20.59,0,0,0,6.5,2.59c5.88,1.33,11.88-.12,15.67-6.25Z"/><path class="cls-8" d="M1541.26,786.43c-9.67-2.59-18.38-1.39-19.52,2.71s5.88,9.48,15.54,12.07,18.38,1.39,19.45-2.72-5.81-9.47-15.47-12.06Z"/><path class="cls-8" d="M1688.54,825.9c-9.66-2.59-18.38-1.39-19.45,2.72s5.81,9.47,15.47,12.06,18.38,1.39,19.46-2.71-5.81-9.48-15.48-12.07Z"/><path class="cls-4" d="M1578.33,713.61s-31.45-.19-48.88,13.13c0,0,24.31-37.39,33.22-34.8s15.66,21.67,15.66,21.67Z"/><path class="cls-4" d="M1692.84,744.3s27.34,15.54,35.74,35.81c0,0-2.33-44.52-11.36-46.73s-24.38,10.92-24.38,10.92Z"/><path class="cls-6" d="M1576.37,828.11a1.12,1.12,0,0,0,1.46-.5,1.11,1.11,0,0,0-.57-1.39l-44.72-19.33a1,1,0,0,0-1.39.51,1.08,1.08,0,0,0,.57,1.45Zm-5.87,14a1.08,1.08,0,0,0,1.33-.76,1,1,0,0,0-.76-1.26l-57.35-15.73a1,1,0,0,0-1.26.76,1.08,1.08,0,0,0,.76,1.33Zm-1.45,13.64a1,1,0,0,0,1.13-.94,1.06,1.06,0,0,0-.94-1.2L1525,849.33a1.12,1.12,0,0,0-1.2.95,1.1,1.1,0,0,0,1,1.14Z"/><path class="cls-6" d="M1637.26,844.47a1.1,1.1,0,0,1-1-1.2,1.06,1.06,0,0,1,1.14-.95l48.38,5.63a1.06,1.06,0,0,1,.94,1.2,1,1,0,0,1-1.2.88Zm-1.9,15a1,1,0,0,1-.75-1.26,1,1,0,0,1,1.32-.76l57.48,15.09a1,1,0,0,1,.75,1.27,1.11,1.11,0,0,1-1.32.75ZM1629.87,872a1.09,1.09,0,0,1-.57-1.45,1.06,1.06,0,0,1,1.39-.51l40.48,18.44a1,1,0,1,1-.88,1.9Z"/><path class="cls-5" d="M933.55,982c13.45-65.87,88-122.59,101.62-114.7,12.32,7.08,20,26.53,24.57,43.39a172.52,172.52,0,0,1,35.75,15.73,170.19,170.19,0,0,1,31.45,23.12c16.93-4.55,37.58-7.58,49.89-.45,4.68,2.72,6.38,15.48,4.49,32.91Z"/><path class="cls-5" d="M1083.23,934.54s-2.78-16.74,2.78-26.15,22.23-7.77,15.29,3.66-7.52,13.71-7.52,13.71,11.94-15.6,20.34-16.49,14.4,12.76.25,16.55-20.65,13.2-20.65,13.2Z"/><path class="cls-4" d="M1039.84,904.28s-30.37-8.33-50.65.07c0,0,33.22-29.82,41.12-25s9.53,24.95,9.53,24.95Z"/><path class="cls-5" d="M997.4,95.67C938.73,61.81,925.65,20,933.55-18.65h247.77c-6.76,62.84-59.69,186.07-183.92,114.32Z"/><path class="cls-3" d="M932.66,16a92.26,92.26,0,0,1-.5-26.33c8.59.06,25.83,1,26.08,7.2.26,4.92-14,13.2-25.58,19.13Zm.89-34.67h4.29c-1.51.38-3,.7-4.48.95Zm224.91,73.08a162.06,162.06,0,0,1-12.83,20.33c-9-17.05-21.47-42.69-14.52-42.88s19.39,13.26,27.35,22.55Zm-15.79,24.18a122.86,122.86,0,0,1-15.1,15.79c-2.71-7.57-5.37-18.19.19-21,4-2,9.79,1.14,14.91,5.24Zm-20.91,20.53a92.27,92.27,0,0,1-23,12.76c-.7-13-.57-29.43,3.79-31.77,5.56-2.84,14.9,11.62,19.26,19Z"/><path class="cls-4" d="M1002.71,86.45c-62.21-35.94-4.3-109.08,46.17-80s16,115.83-46.17,80Z"/><path class="cls-6" d="M1118.86-15c7.32,4.24,7.7,17.25.82,29.06-3.79,6.63-9.1,11.49-14.28,13.77-3.85-1.84-10.23-2.66-14.52-3-4-5.74-3.22-16.23,2.4-25.95,6.82-11.88,18.25-18,25.58-13.84Z"/><path class="cls-4" d="M1107.68-4.12c2.21,1.26,2.4,5.18.38,8.65s-5.5,5.31-7.71,4S1098,3.39,1100-.08s5.5-5.31,7.71-4Zm-.76,18.5c2.21,1.27,3.6,2.91,3.16,3.6s-2.53.32-4.68-.88-3.66-2.91-3.22-3.66,2.59-.32,4.74.94Z"/><path class="cls-6" d="M1078.5,24s18.88-9,39.85,9.79c0,0-14.72-9.35-39.85-9.79Z"/><path class="cls-6" d="M1042.5,17.54c-6.07-3.47-6.7-8.4-9-15.66s3.91-9,3.91-9,3.35-1.33,15.92,5.94,13.07,10.8,13.07,10.8,1.64,6.19-5.81,7.83-12.06,3.53-18.06.06Z"/><path class="cls-7" d="M1018.05,28.91a2.48,2.48,0,0,1,2.91-1.83,2.43,2.43,0,0,1,1.77,3c-1.08,4.54,1.14,8.08,4.48,10.23L1045.28,9a2.46,2.46,0,0,1,3.28-.88,2.48,2.48,0,0,1,1,3.35L1031.7,42.3l.63.19a18.12,18.12,0,0,0,5.49.5c3.92-.19,7.39-1.83,8.28-5.18a2.43,2.43,0,0,1,3-1.7,2.49,2.49,0,0,1,1.7,3c-1.52,5.68-6.76,8.4-12.69,8.78a23.78,23.78,0,0,1-6.95-.7,21.35,21.35,0,0,1-6.44-2.78c-5.06-3.22-8.28-8.52-6.64-15.47Z"/><path class="cls-8" d="M1117.21,40.59c8.66,5,14,12,11.88,15.67s-10.87,2.59-19.52-2.4-14-12-11.87-15.67,10.86-2.59,19.51,2.4Z"/><path class="cls-4" d="M1157.26-18.65c4.86,7.52,9.34,16.49,10.54,25.39a252.93,252.93,0,0,0,3.86-25.39Z"/><path class="cls-6" d="M1062.83,45.2a1,1,0,0,1-.56-1.32,1.06,1.06,0,0,1,1.38-.63l45.29,17.93a1.14,1.14,0,0,1,.57,1.39,1.07,1.07,0,0,1-1.39.63Zm-5.68,14a1.08,1.08,0,0,1-.38-1.46,1.12,1.12,0,0,1,1.45-.38l51.6,29.44a1.13,1.13,0,0,1,.45,1.45,1.15,1.15,0,0,1-1.46.44Zm-8.53,10.67a1,1,0,0,1-.19-1.45,1.16,1.16,0,0,1,1.52-.19l34.29,28.29a1,1,0,0,1,.13,1.45,1,1,0,0,1-1.52.19Z"/><path class="cls-6" d="M1008.33,13.75a1.09,1.09,0,0,0,1.51-.19,1.14,1.14,0,0,0-.19-1.51L971.44-18.14a1,1,0,0,0-1.45.19,1,1,0,0,0,.13,1.45ZM999,25.69a1.07,1.07,0,0,0,1.46-.38,1.11,1.11,0,0,0-.38-1.45l-51.35-30a1,1,0,0,0-1.45.38,1.1,1.1,0,0,0,.38,1.45Zm-5,12.76a1.08,1.08,0,0,0,1.39-.64,1,1,0,0,0-.63-1.32l-41.62-15.6a1,1,0,0,0-1.33.63,1.08,1.08,0,0,0,.57,1.39Z"/></g><g id="Layer_1" data-name="Layer 1"><g class="cls-9"><path class="cls-10" d="M1931.46,83q.06,40.2.15,80.36c0,2-.47,2.28-2.49,2a10.36,10.36,0,0,0-11.76,8.75v0a9.2,9.2,0,0,0-.11,1.39c-.14,6.19,4.89,11,11.55,10.47,2.74-.21,2.83.74,2.83,2.86q-.06,57.29,0,114.61c0,2.7-.6,3.62-3.51,3.84a122.67,122.67,0,0,1-36.47-2.11c-18.05-4-32.22-13.7-43.11-28.51-11.08-15.15-17.12-32.63-23.08-50.16-5.58-16.47-10.54-33.17-18.46-48.76-5.88-11.6-13.29-22-24.17-29.49-9.83-6.78-21.14-10.21-32.5-13.26-16-4.3-32.44-6-49-6.75-24.86-1.1-49.73.07-74.58-.61-28.46-.77-56.38-4.82-83.1-15-32-12.2-56.67-32.82-72.35-63.53a139.84,139.84,0,0,1-14.33-46.53c-.25-2,.16-2.65,2.1-2.47.83.08,1.68,0,2.51,0h392.58c1.56,0,3.11.13,4.67.2-.28.36-.55,1-.85,1-4,.32-7.34,2.22-10.45,4.43-5,3.55-9.76,7.33-11.47,13.7-1.55,5.8.53,9.89,6.43,10.87,11.23,1.86,21.14-1,28.6-10,5.78-7,2.8-16.11-5.83-18.82-.75-.24-1.34-.44-1.53-1.25l13.09-.13c.17,3.3,2.28,6,3,9.12,1.62,7.31,3.54,14.56,5.28,21.85,2.56,10.87,14.37,15.54,24.69,10.59,7-3.38,14-7.17,21.7-9.25V42.64a14,14,0,0,0-12.15,13.09,37.11,37.11,0,0,0,2.33,15.79C1923.58,76.38,1925.74,81.24,1931.46,83ZM1722.32,34.36c-6.69-.66-12.24,1.16-16.7,6-5,5.49-6.12,11.94-3.86,18.75,2.33,7.05,7.6,11.33,15,12.3s13.79-1.49,17.73-7.84c2.13-3.43,3.43-2.34,5.64-.72q25,18.44,50.16,36.8,19.14,14,38.35,28c1.94,1.41,3,2.29.75,4.79-4.81,5.36-5.59,11.91-3,18.49,3.89,9.73,13.72,14.1,23.56,10.81,9.15-3,14.22-12.66,11.65-22.58-.71-2.73-.49-3.51,2.67-3.72,14.53-1,22.85-15.86,15.79-27.82-4-6.89-10.18-10-18.06-9.39-7.56.58-12.64,4.85-15.53,11.63-1,2.33-1.59,2.64-3.63,1-5.17-4.09-10.52-8-15.85-11.85l-74.29-54.37c-3.47-2.54-3.44-2.58-.27-5.73a19.25,19.25,0,0,0,3-22.93,18.88,18.88,0,0,0-21.23-8.4c-8.19,2.25-13.3,9.18-13.45,17.85C1720.84,28.51,1721.78,31.3,1722.32,34.36ZM1905.55,264c1.69,0,3.38.1,5,0,10.43-.71,15.69-10.87,10-19.52-2.83-4.29-7.37-6-12.36-6.36-1.9-.13-2.72-.57-2.81-2.67a19,19,0,0,0-2.33-8.24c-2.63-4.92-7.84-8.29-12-7.81-5,.59-9.42,5-10.83,10.72-2.21,8.93-.76,17.84-.11,26.79.24,3.23,1.54,4.34,4.41,4.79,7,1.08,14,2.29,21.14,2.3ZM1580.36,53.36a19,19,0,0,0,.16,3c2.24,9.6,7,18.05,12,26.41a2.3,2.3,0,0,0,2.8,1c9.24-2.13,18.59-4,26.92-8.76,9.36-5.3,9.64-16.38.8-21.91-4.33-2.71-9-2.21-13.55-.84-2,.59-3,.54-3.91-1.51a15.48,15.48,0,0,0-4.67-5.88c-4.3-3.4-9.21-5.22-14.38-2.82-4.69,2.16-6.06,6.78-6.17,11.28Zm302.19,23.32c0,1.91-.06,3.83,0,5.75.25,6,7,13.36,13.78,8.31,8.94-6.62,15.1-15.3,15-27.1,0-4.87-2.31-8.51-6.92-10.32-4.85-1.91-9.5-1.85-13.77,1.72-6.77,5.69-8.28,13.34-8.11,21.64ZM1856,71.53c8.86.07,22.15-10.59,24.45-19.61.76-2.94,1.25-5.85-.13-8.76a12.63,12.63,0,0,0-16.92-5.69,12.46,12.46,0,0,0-1.82,1.11A31,31,0,0,0,1848.77,64c-.07,5.05,2.73,7.53,7.21,7.57ZM1522,43.46a10.54,10.54,0,0,0,10.7-10,10.68,10.68,0,1,0-21.36-.09A10.53,10.53,0,0,0,1522,43.46Z"/><path class="cls-11" d="M1931.48,33.55c-7.66,2.08-14.62,5.87-21.7,9.25-10.32,4.94-22.15.28-24.69-10.59-1.74-7.29-3.66-14.54-5.28-21.85-.7-3.16-2.81-5.82-3-9.12,17.37,0,34.74,0,52.12-.12,2,0,2.71.52,2.68,2.61C1931.5,13.66,1931.51,23.61,1931.48,33.55Z"/><path class="cls-10" d="M1508.44,130.42a19.24,19.24,0,0,1-18.84,19.63h-.7c-11.22,0-19.61-8.54-19.58-20s8.55-19.57,19.92-19.64C1499.57,110.37,1509.38,120,1508.44,130.42Z"/><path class="cls-10" d="M1880.34,378.71a19.61,19.61,0,0,1-20-19.13v-.79c.11-10.2,9.27-19.7,19.35-19.51,12.64.22,20.35,9.5,20.29,19.87a19.35,19.35,0,0,1-19.1,19.6h0Z"/><path class="cls-10" d="M1400.53,27.43a5.55,5.55,0,0,1,2.77.24c3.79,2.14,5.21-.15,7-2.94a10.75,10.75,0,0,1,11.5-4.91,9.78,9.78,0,0,1,8.31,8.35c.56,4.11-1.21,7.77-3,11.29a118.93,118.93,0,0,1-8.8,14.4c-.82,1.17-1.56,2.15-3.17,1.61-7.59-2.57-15.33-4.86-22-9.53a10.36,10.36,0,0,1-4.61-7.41C1387.79,31.67,1392,27.51,1400.53,27.43Z"/><path class="cls-11" d="M1863.74,1.33c.19.8.78,1,1.53,1.25,8.63,2.78,11.61,11.84,5.83,18.89-7.42,9-17.37,11.82-28.6,10-5.9-1-8-5-6.43-10.86,1.71-6.37,6.5-10.15,11.47-13.7,3.11-2.21,6.47-4.11,10.45-4.43.3,0,.57-.68.85-1Z"/><path class="cls-11" d="M1931.46,84c-5.72-1.74-7.93-6.62-9.81-11.52a37.07,37.07,0,0,1-2.33-15.78,14,14,0,0,1,12.15-12.94Q1931.46,63.88,1931.46,84Z"/><path class="cls-11" d="M1882.55,76.68c-.17-8.3,1.34-15.93,8.13-21.64,4.27-3.57,8.92-3.63,13.77-1.72,4.61,1.81,6.9,5.45,6.92,10.32.07,11.8-6,20.48-15,27.1-6.79,5-13.53-2.27-13.78-8.31C1882.49,80.51,1882.55,78.59,1882.55,76.68Z"/><path class="cls-11" d="M1856,71.53c-4.48,0-7.28-2.52-7.21-7.6a31,31,0,0,1,12.79-25.35,12.63,12.63,0,0,1,17.63,2.77l0,0a13.09,13.09,0,0,1,1.08,1.79c1.38,2.91.89,5.82.13,8.76C1878.12,60.94,1864.84,71.6,1856,71.53Z"/></g></g></svg>